<svg width="1440" height="1149" viewBox="0 0 1440 1149" fill="none" xmlns="http://www.w3.org/2000/svg">
<g opacity="0.7">
<mask id="mask0_204_19" style="mask-type:alpha" maskUnits="userSpaceOnUse" x="-107" y="-66" width="1814" height="870">
<path d="M1706.83 -66H-107V803.77H1706.83V-66Z" fill="url(#paint0_radial_204_19)"/>
</mask>
<g mask="url(#mask0_204_19)">
<g opacity="0.04">
<path opacity="0.04" d="M1272.59 -54.5796L1310.52 47.6853C1310.52 47.6853 1310.52 47.6853 1310.84 47.6853C1310.84 47.6853 1310.84 47.6853 1310.84 47.4257L1272.91 -54.5796H1272.59Z" fill="#277BF9"/>
</g>
<g opacity="0.03">
<path opacity="0.03" d="M1310.52 47.4256L1419.08 24.5847L1310.52 47.4256C1310.52 47.6851 1310.52 47.6851 1310.52 47.4256C1310.52 47.6851 1310.52 47.6851 1310.52 47.4256Z" fill="#277BF9"/>
</g>
<g opacity="0.19">
<path opacity="0.19" d="M1310.19 46.9066C1310.84 46.647 1311.5 46.9066 1311.5 47.1661L1354.33 150.729C1354.33 150.988 1354.33 151.507 1353.68 151.507C1353.35 151.507 1352.7 151.507 1352.7 150.988L1309.86 47.9448C1309.54 47.4257 1309.86 47.1661 1310.19 46.9066Z" fill="#277BF9"/>
</g>
<g opacity="0.28">
<path opacity="0.28" d="M1352.7 150.21C1353.35 149.95 1354.33 149.95 1354.66 150.469L1395.54 196.41C1395.86 196.93 1395.86 197.708 1395.21 197.968C1394.56 198.227 1393.57 198.227 1393.25 197.708L1352.37 151.767C1352.05 151.248 1352.05 150.729 1352.7 150.21Z" fill="#277BF9"/>
</g>
<g opacity="0.09">
<path opacity="0.09" d="M801.062 -0.592041C801.389 -0.592041 801.389 -0.592041 801.716 -0.592041C802.043 -0.332486 802.043 -0.0729283 801.716 -0.0729283L769.67 37.5626C769.343 37.8222 769.016 37.8222 769.016 37.5626C768.689 37.303 768.689 37.0435 769.016 37.0435L801.062 -0.592041Z" fill="#277BF9"/>
</g>
<g opacity="0.18">
<path opacity="0.18" d="M769.016 36.7841L865.806 -14.0888C866.133 -14.3483 866.787 -14.3483 867.114 -13.8292C867.441 -13.5697 867.441 -13.0506 866.787 -12.791L769.997 38.0819C769.67 38.3414 769.016 38.3414 768.689 37.8223C768.362 37.5627 768.362 37.0436 769.016 36.7841Z" fill="#277BF9"/>
</g>
<g opacity="0.14">
<path opacity="0.14" d="M865.807 -13.8295C866.134 -14.0891 866.461 -14.0891 866.788 -13.8295L948.537 42.494C948.864 42.7536 948.864 43.0131 948.537 43.5322C948.21 43.7918 947.883 43.7918 947.229 43.5322L865.48 -12.7913C865.48 -13.0508 865.48 -13.5699 865.807 -13.8295Z" fill="#277BF9"/>
</g>
<g opacity="0.01">
<path opacity="0.01" d="M948.209 43.0132L800.408 127.109L948.209 43.0132Z" fill="#277BF9"/>
</g>
<g opacity="0.19">
<path opacity="0.19" d="M947.555 42.2347C947.882 41.9751 948.536 41.9751 949.19 42.4943L1024.73 118.025C1025.05 118.284 1025.05 119.063 1024.4 119.323C1024.07 119.582 1023.09 119.582 1022.76 119.063L947.228 43.5325C946.901 43.2729 946.901 42.4943 947.555 42.2347Z" fill="#277BF9"/>
</g>
<g opacity="0.26">
<path opacity="0.26" d="M1022.76 117.506C1023.42 117.246 1024.07 117.246 1024.72 117.765L1091.1 172.013C1091.76 172.532 1091.76 173.31 1091.1 173.57C1090.45 174.089 1089.47 174.089 1089.14 173.57L1022.76 119.323C1022.11 118.804 1022.11 118.025 1022.76 117.506Z" fill="#277BF9"/>
</g>
<g opacity="0.02">
<path opacity="0.02" d="M1023.74 118.284L1148.66 177.463L1023.74 118.284C1023.74 118.544 1023.74 118.544 1023.74 118.284Z" fill="#277BF9"/>
</g>
<g opacity="0.29">
<path opacity="0.29" d="M1089.14 171.753C1089.47 171.493 1089.8 171.493 1090.12 171.493L1148.66 176.425C1149.64 176.425 1150.29 177.204 1149.96 177.723C1149.96 178.501 1148.98 179.021 1148.33 178.761L1089.8 173.829C1088.82 173.829 1088.16 173.051 1088.49 172.532C1088.49 172.272 1088.82 172.013 1089.14 171.753Z" fill="#277BF9"/>
</g>
<g opacity="0.04">
<path opacity="0.04" d="M788.308 360.19C788.635 360.19 788.635 360.19 788.635 360.45L778.826 429.491C778.826 429.491 778.826 429.751 778.499 429.751C778.499 429.751 778.172 429.751 778.172 429.491L788.308 360.19C788.308 360.45 788.308 360.19 788.308 360.19Z" fill="#277BF9"/>
</g>
<g opacity="0.01">
<path opacity="0.01" d="M669.283 336.83L788.636 360.45L669.283 336.83Z" fill="#277BF9"/>
</g>
<g opacity="0.14">
<path opacity="0.14" d="M694.462 338.907C694.789 338.907 695.116 338.647 695.116 338.907L788.637 359.931C789.291 359.931 789.291 360.45 789.291 360.969C789.291 361.488 788.637 361.488 787.983 361.488L694.462 340.464C693.808 340.464 693.808 339.945 693.808 339.426C694.135 339.166 694.135 338.907 694.462 338.907Z" fill="#277BF9"/>
</g>
<g opacity="0.02">
<path opacity="0.02" d="M788.308 360.449L873.654 395.23C873.654 395.23 873.654 395.23 873.654 395.489C873.654 395.489 873.654 395.489 873.327 395.489L788.308 360.449Z" fill="#277BF9"/>
</g>
<g opacity="0.19">
<path opacity="0.19" d="M787.656 359.671C787.983 359.671 787.983 359.411 788.31 359.411L821.99 358.113C822.644 358.113 823.298 358.632 823.298 359.151C823.298 359.671 822.644 360.19 821.99 360.19L788.31 361.488C787.656 361.488 787.002 360.968 787.002 360.449C787.002 360.19 787.329 359.93 787.656 359.671Z" fill="#277BF9"/>
</g>
<g opacity="0.02">
<path opacity="0.02" d="M669.283 336.83L822.316 358.892L669.283 336.83C669.283 337.09 669.283 336.83 669.283 336.83Z" fill="#277BF9"/>
</g>
<g opacity="0.24">
<path opacity="0.24" d="M821.335 358.114C821.989 357.854 822.643 357.854 823.297 358.114L874.635 394.192C875.289 394.711 875.289 395.49 874.635 396.009C873.981 396.528 873.001 396.528 872.347 396.009L821.008 359.93C820.681 359.411 820.354 358.892 821.335 358.114C821.008 358.114 821.335 358.114 821.335 358.114Z" fill="#277BF9"/>
</g>
<g opacity="0.04">
<path opacity="0.04" d="M821.988 358.892C822.315 358.892 822.315 358.892 821.988 358.892L937.744 432.346V432.606H937.417L821.988 359.152C821.988 359.152 821.988 359.152 821.988 358.892Z" fill="#277BF9"/>
</g>
<g opacity="0.03">
<path opacity="0.03" d="M873.328 394.971C873.328 394.971 873.655 394.971 873.328 394.971L1008.05 432.866C1008.05 432.866 1008.05 432.866 1008.05 433.125C1008.05 433.125 1008.05 433.125 1007.72 433.125L873.328 394.971C873.328 395.23 873.328 395.23 873.328 394.971Z" fill="#277BF9"/>
</g>
<g opacity="0.25">
<path opacity="0.25" d="M872.671 394.192C873.325 393.932 873.979 393.932 874.633 394.192L938.724 431.568C939.378 432.087 939.705 432.865 939.051 433.385C938.397 433.904 937.416 434.163 936.762 433.644L872.671 396.268C872.017 395.749 871.691 394.97 872.345 394.451C872.345 394.192 872.344 394.192 872.671 394.192Z" fill="#277BF9"/>
</g>
<g opacity="0.02">
<path opacity="0.02" d="M937.745 432.606C937.745 432.346 937.745 432.346 937.745 432.606L1073.45 458.561L937.745 432.606C937.745 432.606 937.418 432.606 937.745 432.606C937.418 432.606 937.745 432.606 937.745 432.606Z" fill="#277BF9"/>
</g>
<g opacity="0.22">
<path opacity="0.22" d="M936.763 431.827C937.09 431.827 937.09 431.568 937.417 431.568L1007.72 432.087C1008.37 432.087 1009.03 432.606 1009.03 433.125C1009.03 433.644 1008.37 434.163 1007.72 434.163L937.417 433.644C936.763 433.644 936.109 433.125 936.109 432.606C936.436 432.087 936.436 431.827 936.763 431.827Z" fill="#277BF9"/>
</g>
<g opacity="0.01">
<path opacity="0.01" d="M1008.05 432.866L1073.12 458.562L1008.05 432.866C1008.05 433.125 1008.05 432.866 1008.05 432.866Z" fill="#277BF9"/>
</g>
<g opacity="0.12">
<path opacity="0.12" d="M634.294 588.599C634.621 588.599 634.621 588.34 634.948 588.599C635.275 588.599 635.602 588.859 635.602 589.378L626.119 641.549C626.119 641.808 625.792 642.068 625.138 642.068C624.811 642.068 624.484 641.808 624.484 641.289L633.967 589.118C633.967 588.859 634.294 588.599 634.294 588.599Z" fill="#277BF9"/>
</g>
<g opacity="0.22">
<path opacity="0.22" d="M633.967 588.339C634.294 588.08 634.948 588.08 635.602 588.339L651.951 595.347C652.605 595.607 652.932 596.385 652.605 596.905C652.278 597.424 651.297 597.683 650.643 597.424L634.294 590.416C633.64 590.156 633.313 589.377 633.64 588.858C633.64 588.339 633.64 588.339 633.967 588.339Z" fill="#277BF9"/>
</g>
<g opacity="0.01">
<path opacity="0.01" d="M634.621 589.118C634.621 589.118 634.948 589.118 634.621 589.118L682.035 650.633L634.621 589.118Z" fill="#277BF9"/>
</g>
<g opacity="0.21">
<path opacity="0.21" d="M650.317 595.088C651.298 594.829 651.952 595.088 652.279 595.607L683.343 650.114C683.67 650.633 683.343 651.152 682.689 651.412C682.035 651.671 681.381 651.412 681.054 650.893L649.99 596.386C649.663 596.126 649.663 595.607 650.317 595.088Z" fill="#277BF9"/>
</g>
<g opacity="0.17">
<path opacity="0.17" d="M681.709 649.854C682.363 649.595 683.017 649.854 683.344 650.114L739.914 730.576C740.241 731.095 739.914 731.355 739.587 731.614C738.933 731.874 738.606 731.614 738.279 731.355L681.709 650.892C681.055 650.633 681.055 650.114 681.709 649.854Z" fill="#277BF9"/>
</g>
<g opacity="0.01">
<path opacity="0.01" d="M738.933 731.095L870.057 666.984L738.933 731.095C738.606 731.095 738.606 731.095 738.933 731.095Z" fill="#277BF9"/>
</g>
<g opacity="0.14">
<path opacity="0.14" d="M738.278 730.576C738.605 730.316 738.932 730.316 739.259 730.576L834.414 802.213C834.741 802.472 834.741 802.991 834.414 803.251C834.087 803.511 833.433 803.511 833.106 803.251L737.951 731.614C737.951 731.354 737.951 730.835 738.278 730.576Z" fill="#277BF9"/>
</g>
<g opacity="0.13">
<path opacity="0.13" d="M440.388 553.559C440.715 553.3 441.369 553.3 441.696 553.559L452.486 561.346C452.813 561.606 452.813 562.125 452.486 562.384C452.159 562.644 451.505 562.644 451.178 562.384L440.388 554.598C440.061 554.598 440.061 554.079 440.388 553.559C440.388 553.819 440.388 553.559 440.388 553.559Z" fill="#277BF9"/>
</g>
<g opacity="0.16">
<path opacity="0.16" d="M440.387 553.559C440.714 553.299 441.041 553.299 441.368 553.299C442.022 553.299 442.349 553.818 442.349 554.338L430.904 591.454C430.904 591.973 430.25 592.233 429.596 592.233C428.942 592.233 428.615 591.713 428.615 591.194L440.06 554.078C440.06 553.818 440.06 553.559 440.387 553.559Z" fill="#277BF9"/>
</g>
<g opacity="0.11">
<path opacity="0.11" d="M429.269 590.676C429.269 590.676 429.596 590.676 429.923 590.676C430.25 590.676 430.577 590.935 430.577 591.195L419.786 676.329C419.786 676.588 419.459 676.848 419.132 676.848C418.805 676.848 418.478 676.588 418.478 676.329L429.269 591.195C428.942 590.935 428.942 590.935 429.269 590.676Z" fill="#277BF9"/>
</g>
<g opacity="0.02">
<path opacity="0.02" d="M270.351 674.252L418.48 676.069L270.351 674.252C270.351 674.511 270.351 674.511 270.351 674.252C270.351 674.511 270.351 674.252 270.351 674.252Z" fill="#277BF9"/>
</g>
<g opacity="0.02">
<path opacity="0.02" d="M418.478 676.329C418.805 676.329 418.805 676.329 418.478 676.329L411.611 807.145L418.478 676.329Z" fill="#277BF9"/>
</g>
<g opacity="0.09">
<path opacity="0.09" d="M1330.14 603.394L1490.69 537.207C1491.02 537.207 1491.35 537.207 1491.35 537.467C1491.35 537.726 1491.35 537.986 1491.02 537.986L1330.46 604.172C1330.14 604.172 1329.81 604.172 1329.81 603.913C1329.81 603.913 1329.81 603.653 1330.14 603.394Z" fill="#277BF9"/>
</g>
<g opacity="0.3">
<path opacity="0.3" d="M1386.05 -52.2436C1386.05 -52.2436 1386.38 -52.2436 1386.38 -52.5032C1387.03 -52.7627 1387.69 -52.5032 1388.01 -51.984L1420.39 24.0657C1420.71 24.5848 1420.39 25.104 1419.73 25.3635C1419.08 25.6231 1418.42 25.3635 1418.1 24.8444L1385.73 -51.2054C1385.4 -51.4649 1385.72 -51.984 1386.05 -52.2436Z" fill="#277BF9"/>
</g>
<g opacity="0.06">
<path opacity="0.06" d="M1419.08 24.5847C1419.41 24.5847 1419.41 24.5847 1419.41 24.8443L1350.74 199.266C1350.74 199.266 1350.41 199.525 1350.41 199.266C1350.41 199.266 1350.08 199.006 1350.41 199.006L1419.08 24.5847Z" fill="#277BF9"/>
</g>
<g opacity="0.08">
<path opacity="0.08" d="M1227.46 138.01H1227.79L1350.41 198.747C1350.41 198.747 1350.74 199.006 1350.41 199.006C1350.41 199.266 1350.08 199.266 1350.08 199.006L1227.46 138.27C1227.46 138.53 1227.46 138.27 1227.46 138.01C1227.46 138.27 1227.46 138.27 1227.46 138.01Z" fill="#277BF9"/>
</g>
<g opacity="0.23">
<path opacity="0.23" d="M1349.76 198.487C1350.08 198.228 1350.41 198.228 1350.74 198.487C1351.39 198.747 1351.39 199.006 1351.39 199.525L1297.76 318.661C1297.44 319.18 1297.11 319.18 1296.46 319.18C1295.8 318.921 1295.8 318.661 1295.8 318.142L1349.43 199.006C1349.43 198.747 1349.76 198.487 1349.76 198.487Z" fill="#277BF9"/>
</g>
<g opacity="0.32">
<path opacity="0.32" d="M1295.8 317.363C1296.13 317.104 1296.78 317.104 1297.11 317.104C1297.76 317.363 1298.42 317.882 1298.09 318.661L1272.59 382.771C1272.26 383.29 1271.61 383.81 1270.62 383.55C1269.97 383.29 1269.32 382.771 1269.64 381.993L1295.15 317.882C1295.48 317.623 1295.48 317.363 1295.8 317.363Z" fill="#277BF9"/>
</g>
<g opacity="0.24">
<path opacity="0.24" d="M1270.3 381.474C1270.63 381.214 1271.28 381.214 1271.61 381.474C1272.26 381.734 1272.26 382.253 1271.93 382.772L1270.95 384.069C1270.63 384.589 1269.97 384.589 1269.32 384.329C1268.66 384.07 1268.66 383.55 1268.99 383.031L1270.3 381.474C1270.3 381.734 1270.3 381.474 1270.3 381.474Z" fill="#277BF9"/>
</g>
<g opacity="0.14">
<path opacity="0.14" d="M1030.28 -51.465C1030.61 -51.7245 1030.94 -51.465 1031.26 -51.465C1031.59 -51.2054 1031.59 -50.9459 1031.26 -50.6863L918.124 37.303C917.797 37.5626 917.47 37.5626 917.143 37.303C916.816 37.0435 916.816 36.7839 917.143 36.5243L1030.28 -51.465Z" fill="#277BF9"/>
</g>
<g opacity="0.06">
<path opacity="0.06" d="M917.472 36.7837H917.799L1038.46 129.445V129.705H1038.13L917.472 37.0432C917.145 37.0432 917.145 36.7837 917.472 36.7837Z" fill="#277BF9"/>
</g>
<g opacity="0.05">
<path opacity="0.05" d="M1038.13 129.445C1038.46 129.445 1038.46 129.445 1038.46 129.705L1035.52 279.209C1035.52 279.209 1035.52 279.468 1035.19 279.468C1035.19 279.468 1034.86 279.468 1034.86 279.209L1038.13 129.445Z" fill="#277BF9"/>
</g>
<g opacity="0.13">
<path opacity="0.13" d="M1035.19 278.43H1035.52C1035.84 278.43 1036.17 278.69 1036.17 278.949L1044.67 392.375C1044.67 392.635 1044.34 392.894 1044.02 392.894C1043.69 392.894 1043.36 392.635 1043.36 392.375L1034.86 278.949C1034.86 278.69 1034.86 278.69 1035.19 278.43Z" fill="#277BF9"/>
</g>
<g opacity="0.17">
<path opacity="0.17" d="M1043.36 391.856C1043.69 391.856 1043.69 391.856 1043.36 391.856C1044.02 391.596 1044.67 391.856 1044.67 392.115L1074.1 458.302C1074.1 458.561 1074.1 459.08 1073.45 459.08C1073.12 459.08 1072.47 459.08 1072.47 458.561L1043.04 392.375C1043.04 392.375 1043.04 392.115 1043.36 391.856Z" fill="#277BF9"/>
</g>
<g opacity="0.13">
<path opacity="0.13" d="M715.061 -16.944C715.388 -17.2036 716.042 -17.2036 716.042 -16.944L769.996 36.784C770.323 37.0435 770.323 37.5627 769.996 37.5627C769.669 37.8222 769.015 37.8222 769.015 37.5627L714.734 -16.1653C714.407 -16.4249 714.407 -16.6844 715.061 -16.944Z" fill="#277BF9"/>
</g>
<g opacity="0.05">
<path opacity="0.05" d="M769.344 37.3027C769.671 37.3027 769.671 37.3027 769.671 37.5623L800.409 127.368C800.409 127.368 800.409 127.628 800.082 127.628C800.082 127.628 799.755 127.628 799.755 127.368L769.344 37.3027C769.017 37.3027 769.344 37.3027 769.344 37.3027Z" fill="#277BF9"/>
</g>
<g opacity="0.14">
<path opacity="0.14" d="M702.309 100.375C702.636 100.375 702.636 100.116 702.963 100.375L800.407 126.59C800.734 126.59 801.061 127.109 801.061 127.369C801.061 127.628 800.407 127.888 800.08 127.888L702.636 101.673C702.309 101.673 701.982 101.154 701.982 100.894C702.309 100.635 702.309 100.635 702.309 100.375Z" fill="#277BF9"/>
</g>
<g opacity="0.04">
<path opacity="0.04" d="M800.08 127.109C800.407 127.109 800.407 127.109 800.407 127.109L818.392 253.513C818.392 253.513 818.392 253.772 818.065 253.772C818.065 253.772 817.738 253.772 817.738 253.513L800.08 127.109Z" fill="#277BF9"/>
</g>
<g opacity="0.02">
<path opacity="0.02" d="M818.066 253.513C818.393 253.513 818.393 253.513 818.066 253.513L824.933 393.673L818.066 253.513C818.066 253.772 818.066 253.513 818.066 253.513Z" fill="#277BF9"/>
</g>
<g opacity="0.02">
<path opacity="0.02" d="M824.933 393.672L836.05 534.871L824.933 393.672C824.606 393.672 824.606 393.672 824.933 393.672Z" fill="#277BF9"/>
</g>
<g opacity="0.04">
<path opacity="0.04" d="M835.722 534.871C836.049 534.871 836.049 534.871 836.049 534.871L870.057 666.725C870.057 666.725 870.057 666.985 869.73 666.985C869.73 666.985 869.403 666.985 869.403 666.725L835.722 534.871C835.722 535.131 835.722 534.871 835.722 534.871Z" fill="#277BF9"/>
</g>
<g opacity="0.14">
<path opacity="0.14" d="M869.403 666.466C869.73 666.206 870.384 666.206 870.711 666.725L899.814 700.727C900.141 700.987 899.814 701.506 899.487 701.506C899.16 701.765 898.506 701.506 898.506 701.246L869.403 667.245C869.076 666.985 869.076 666.466 869.403 666.466Z" fill="#277BF9"/>
</g>
<g opacity="0.08">
<path opacity="0.08" d="M668.956 336.57H669.283L694.789 339.166C695.116 339.166 695.443 339.425 695.116 339.685C695.116 339.945 694.789 340.204 694.462 339.945L668.956 337.349C668.629 337.349 668.302 337.089 668.629 336.83L668.956 336.57Z" fill="#277BF9"/>
</g>
<g opacity="0.13">
<path opacity="0.13" d="M668.957 336.311C669.284 336.311 669.284 336.052 669.611 336.311C669.938 336.311 670.265 336.83 670.265 337.09L646.394 395.749C646.394 396.009 645.74 396.268 645.413 396.268C645.087 396.268 644.76 395.749 644.76 395.49L668.63 336.83C668.63 336.571 668.63 336.571 668.957 336.311Z" fill="#277BF9"/>
</g>
<g opacity="0.1">
<path opacity="0.1" d="M645.086 395.23H645.413C645.74 395.23 646.067 395.49 645.74 395.75L615.329 497.755C615.329 498.014 615.002 498.274 614.675 498.014C614.348 498.014 614.021 497.755 614.348 497.495L644.759 395.49C644.759 395.49 644.759 395.23 645.086 395.23Z" fill="#277BF9"/>
</g>
<g opacity="0.04">
<path opacity="0.04" d="M615.001 497.495C615.328 497.495 615.328 497.495 615.328 497.754L580.994 630.906C580.994 630.906 580.994 631.166 580.667 631.166C580.667 631.166 580.34 631.166 580.34 630.906L615.001 497.495C614.674 497.495 614.674 497.495 615.001 497.495Z" fill="#277BF9"/>
</g>
<g opacity="0.05">
<path opacity="0.05" d="M580.34 630.647C580.667 630.647 580.667 630.647 580.34 630.647C580.667 630.647 580.667 630.647 580.667 630.907L600.613 723.308C600.613 723.308 600.613 723.568 600.286 723.568C600.286 723.568 599.959 723.568 599.959 723.308L580.34 630.647Z" fill="#277BF9"/>
</g>
<g opacity="0.12">
<path opacity="0.12" d="M600.287 722.789C600.614 722.789 600.614 722.789 600.941 722.789C601.268 723.049 601.268 723.308 601.268 723.568L552.546 792.35C552.219 792.61 551.892 792.61 551.565 792.61C551.238 792.35 551.238 792.09 551.238 791.831L600.287 722.789C599.96 722.789 599.96 722.789 600.287 722.789Z" fill="#277BF9"/>
</g>
<g opacity="0.02">
<path opacity="0.02" d="M517.884 404.315L568.895 465.829C568.895 465.829 568.895 465.829 568.895 466.089H568.568L517.884 404.315Z" fill="#277BF9"/>
</g>
<g opacity="0.14">
<path opacity="0.14" d="M463.604 403.017C463.604 403.017 463.931 402.757 464.258 402.757L517.885 403.536C518.539 403.536 518.866 403.795 518.866 404.314C518.866 404.834 518.539 405.093 517.885 405.093L464.258 404.314C463.604 404.314 463.277 404.055 463.277 403.536C463.277 403.536 463.604 403.276 463.604 403.017Z" fill="#277BF9"/>
</g>
<g opacity="0.19">
<path opacity="0.19" d="M463.604 403.017C463.931 402.757 464.585 402.757 465.239 403.017C465.566 403.276 465.893 404.055 465.239 404.315L406.38 454.928C406.053 455.188 405.072 455.447 404.745 454.928C404.418 454.668 404.091 453.89 404.745 453.63L463.604 403.017Z" fill="#277BF9"/>
</g>
<g opacity="0.14">
<path opacity="0.14" d="M404.744 453.63C405.071 453.371 405.398 453.371 405.725 453.63C406.052 453.89 406.379 454.149 406.052 454.409L341.635 546.291C341.308 546.551 340.981 546.811 340.654 546.551C340.327 546.291 340 546.032 340.327 545.772L404.744 453.63C404.744 453.89 404.744 453.63 404.744 453.63Z" fill="#277BF9"/>
</g>
<g opacity="0.05">
<path opacity="0.05" d="M340.98 545.772C341.307 545.772 341.307 545.772 341.307 546.032L339.345 597.165C339.345 597.165 339.345 597.424 339.018 597.424C339.018 597.424 338.691 597.424 338.691 597.165L340.98 545.772C340.653 546.032 340.653 545.772 340.98 545.772Z" fill="#277BF9"/>
</g>
<g opacity="0.03">
<path opacity="0.03" d="M340.982 545.772C341.309 545.772 341.309 546.032 340.982 545.772L270.678 674.512C270.678 674.512 270.678 674.512 270.351 674.512C270.351 674.512 270.351 674.512 270.351 674.252L340.982 545.772Z" fill="#277BF9"/>
</g>
<g opacity="0.26">
<path opacity="0.26" d="M1387.03 814.153H1390.63L1362.18 792.61C1361.86 792.35 1361.2 792.35 1360.55 792.61C1360.55 792.61 1360.55 792.61 1360.22 792.61C1359.89 792.869 1359.89 793.648 1360.22 793.907L1387.03 814.153Z" fill="#277BF9"/>
</g>
<g opacity="0.02">
<path opacity="0.02" d="M1337.66 714.224C1337.99 714.224 1337.99 714.483 1337.66 714.224L1361.2 793.128L1337.66 714.224C1337.66 714.483 1337.66 714.483 1337.66 714.224Z" fill="#277BF9"/>
</g>
<g opacity="0.25">
<path opacity="0.25" d="M1310.84 498.273C1310.84 498.273 1311.17 498.273 1310.84 498.273L1496.58 428.712C1497.23 428.453 1497.89 428.712 1498.21 429.232C1498.54 429.751 1498.21 430.27 1497.56 430.529L1311.83 499.831C1311.17 500.09 1310.52 499.831 1310.19 499.312C1310.19 499.052 1310.52 498.533 1310.84 498.273Z" fill="#277BF9"/>
</g>
<g opacity="0.11">
<path opacity="0.11" d="M1282.07 437.018C1282.4 437.018 1282.72 437.018 1282.72 437.278L1312.15 498.793C1312.15 499.052 1312.15 499.312 1311.83 499.312C1311.5 499.312 1311.17 499.312 1311.17 499.052L1281.74 437.537C1281.74 437.278 1281.74 437.018 1282.07 437.018Z" fill="#277BF9"/>
</g>
<g opacity="0.33">
<path opacity="0.33" d="M1189.86 552.78C1189.86 552.521 1189.86 552.521 1189.86 552.78L1310.84 498.014C1311.5 497.754 1312.48 498.014 1312.81 498.533C1313.13 499.052 1312.81 499.831 1312.15 500.09L1191.16 554.597C1190.51 554.857 1189.53 554.597 1189.2 554.078C1188.88 553.559 1189.2 553.04 1189.86 552.78Z" fill="#277BF9"/>
</g>
<g opacity="0.28">
<path opacity="0.28" d="M1189.86 552.781C1190.18 552.521 1190.84 552.521 1191.49 552.781C1191.82 553.04 1191.82 553.819 1191.49 554.078L1138.85 596.126C1138.52 596.386 1137.54 596.386 1137.21 596.126C1136.88 595.867 1136.88 595.088 1137.21 594.828L1189.86 552.781Z" fill="#277BF9"/>
</g>
<g opacity="0.15">
<path opacity="0.15" d="M1137.54 595.347H1137.86C1138.19 595.347 1138.52 595.607 1138.52 595.866L1135.58 616.111C1135.58 616.371 1135.25 616.631 1134.92 616.631C1134.59 616.631 1134.27 616.371 1134.27 616.111L1137.21 595.866C1137.21 595.607 1137.54 595.347 1137.54 595.347Z" fill="#277BF9"/>
</g>
<g opacity="0.23">
<path opacity="0.23" d="M1113.67 140.606C1113.67 140.606 1113.99 140.346 1114.32 140.346L1227.46 137.232C1228.11 137.232 1228.44 137.491 1228.44 138.01C1228.44 138.529 1228.11 138.789 1227.46 138.789L1114.32 141.904C1113.67 141.904 1113.34 141.644 1113.34 141.125C1113.34 141.125 1113.67 140.865 1113.67 140.606Z" fill="#277BF9"/>
</g>
<g opacity="0.05">
<path opacity="0.05" d="M1364.15 -3.18774C1364.47 -2.92819 1364.47 -2.92819 1364.15 -3.18774L1228.12 138.27H1227.79V138.01L1364.15 -3.18774C1363.82 -3.18774 1363.82 -3.18774 1364.15 -3.18774Z" fill="#277BF9"/>
</g>
<g opacity="0.02">
<path opacity="0.02" d="M1227.79 138.27L1086.53 295.82L1227.79 138.27Z" fill="#277BF9"/>
</g>
<g opacity="0.06">
<path opacity="0.06" d="M1086.2 295.561C1086.2 295.561 1086.53 295.561 1086.2 295.561C1086.53 295.561 1086.53 295.82 1086.53 295.82L978.62 435.72H978.293V435.461L1086.2 295.561Z" fill="#277BF9"/>
</g>
<g opacity="0.07">
<path opacity="0.07" d="M978.291 435.461C978.291 435.461 978.291 435.202 978.291 435.461C978.618 435.461 978.945 435.721 978.618 435.721L915.835 569.132L915.508 569.392L915.181 569.132L978.291 435.461Z" fill="#277BF9"/>
</g>
<g opacity="0.05">
<path opacity="0.05" d="M915.509 568.873C915.836 568.873 915.836 568.873 915.836 569.132L899.486 700.987C899.486 700.987 899.486 701.246 899.159 701.246C899.159 701.246 898.832 701.246 898.832 700.987L915.509 568.873C915.182 569.132 915.182 568.873 915.509 568.873Z" fill="#277BF9"/>
</g>
<g opacity="0.21">
<path opacity="0.21" d="M850.438 -40.8232C850.765 -41.0827 851.419 -41.0827 851.746 -40.5636L918.453 36.5244C918.78 36.7839 918.78 37.303 918.126 37.5626C917.799 37.8222 917.145 37.8222 916.818 37.303L850.111 -39.7849C849.784 -40.0445 849.784 -40.5636 850.438 -40.8232Z" fill="#277BF9"/>
</g>
<g opacity="0.18">
<path opacity="0.18" d="M599.961 722.529C600.288 722.27 600.615 722.27 600.942 722.529C601.269 722.789 601.596 723.048 601.269 723.567L559.741 795.464C559.414 795.724 559.087 795.983 558.433 795.724C558.106 795.464 557.779 795.205 558.106 794.686L599.634 722.789L599.961 722.529Z" fill="#277BF9"/>
</g>
<g opacity="0.03">
<path opacity="0.03" d="M715.389 -16.4249C715.389 -16.4249 715.389 -16.6845 715.389 -16.4249L703.291 101.154L715.389 -16.4249Z" fill="#277BF9"/>
</g>
<g opacity="0.05">
<path opacity="0.05" d="M702.636 100.894C702.963 100.894 702.963 100.894 702.636 100.894C702.963 100.894 702.963 100.894 702.963 101.154L653.914 227.557C653.914 227.557 653.587 227.817 653.587 227.557C653.587 227.557 653.26 227.298 653.587 227.298L702.636 100.894Z" fill="#277BF9"/>
</g>
<g opacity="0.05">
<path opacity="0.05" d="M653.587 227.038C653.587 227.038 653.914 227.038 653.587 227.038C653.914 227.038 653.914 227.297 653.914 227.297L568.242 352.922C568.242 352.922 567.915 353.182 567.915 352.922C567.915 352.922 567.588 352.663 567.915 352.663L653.587 227.038C653.587 227.297 653.587 227.038 653.587 227.038Z" fill="#277BF9"/>
</g>
<g opacity="0.04">
<path opacity="0.04" d="M567.915 352.663C567.915 352.403 568.242 352.403 567.915 352.663C568.242 352.663 568.242 352.663 567.915 352.663L457.718 474.654H457.391V474.394L567.915 352.663Z" fill="#277BF9"/>
</g>
<g opacity="0.01">
<path opacity="0.01" d="M457.718 474.395L339.019 596.905L457.718 474.395Z" fill="#277BF9"/>
</g>
<g opacity="0.15">
<path opacity="0.15" d="M326.92 595.867C326.92 595.867 327.248 595.867 327.574 595.867L339.346 596.645C339.673 596.645 340 596.905 340 597.424C340 597.683 339.673 597.943 339.019 597.943L327.247 597.164C326.92 597.164 326.594 596.905 326.594 596.386C326.594 596.126 326.593 595.867 326.92 595.867Z" fill="#277BF9"/>
</g>
<g opacity="0.02">
<path opacity="0.02" d="M573.472 200.304L634.62 215.358L573.472 200.304C573.472 200.563 573.472 200.563 573.472 200.304C573.472 200.563 573.472 200.304 573.472 200.304Z" fill="#277BF9"/>
</g>
<g opacity="0.1">
<path opacity="0.1" d="M498.592 218.732C498.919 218.732 498.919 218.732 498.592 218.732L573.147 200.044C573.474 200.044 573.801 200.044 573.801 200.304C573.801 200.564 573.801 200.823 573.474 200.823L498.919 219.511C498.592 219.511 498.265 219.511 498.265 219.252C498.265 219.252 498.592 218.992 498.592 218.732Z" fill="#277BF9"/>
</g>
<g opacity="0.17">
<path opacity="0.17" d="M400.822 257.666L498.593 218.473C498.92 218.213 499.574 218.473 499.901 218.733C500.228 218.992 499.901 219.511 499.574 219.771L401.803 258.964C401.476 259.223 400.822 258.964 400.495 258.704C400.168 258.445 400.495 257.925 400.822 257.666Z" fill="#277BF9"/>
</g>
<g opacity="0.21">
<path opacity="0.21" d="M284.411 306.462L400.82 257.666C401.474 257.406 402.128 257.666 402.455 257.925C402.782 258.444 402.455 258.963 402.128 259.223L285.719 308.019C285.065 308.279 284.411 308.019 284.084 307.76C283.757 307.241 283.757 306.722 284.411 306.462Z" fill="#277BF9"/>
</g>
<g opacity="0.07">
<path opacity="0.07" d="M194.814 352.403L284.411 306.981C284.738 306.981 284.737 306.981 285.064 306.981C285.064 307.241 285.064 307.241 285.064 307.5L195.468 352.922C195.141 352.922 195.141 352.922 194.814 352.922C194.814 352.663 194.814 352.403 194.814 352.403Z" fill="#277BF9"/>
</g>
<g opacity="0.17">
<path opacity="0.17" d="M171.924 362.526L284.41 306.462C284.737 306.202 285.391 306.462 285.718 306.722C286.045 306.981 285.718 307.5 285.391 307.76L172.905 363.824C172.578 364.083 171.924 363.824 171.597 363.564C171.597 363.305 171.597 362.786 171.924 362.526Z" fill="#277BF9"/>
</g>
<g opacity="0.16">
<path opacity="0.16" d="M1301.36 814.153H1305.61L1273.24 801.435C1272.91 801.435 1272.59 801.435 1272.26 801.435L1271.93 801.694C1271.6 801.954 1271.93 802.473 1272.26 802.732L1301.36 814.153Z" fill="#277BF9"/>
</g>
<g opacity="0.23">
<path opacity="0.23" d="M1078.35 745.37C1078.68 745.111 1079.01 745.111 1079.33 745.37L1273.24 801.175C1273.89 801.435 1274.22 801.954 1273.89 802.473C1273.57 802.992 1272.91 803.251 1272.26 802.992L1078.35 747.187C1077.7 746.928 1077.37 746.409 1077.7 745.89C1078.03 745.63 1078.03 745.63 1078.35 745.37Z" fill="#277BF9"/>
</g>
<g opacity="0.27">
<path opacity="0.27" d="M965.867 744.073C966.194 744.073 966.194 743.813 966.521 743.813L1079.01 745.111C1079.66 745.111 1080.31 745.63 1080.31 746.149C1080.31 746.669 1079.66 747.188 1079.01 747.188L966.521 745.89C965.867 745.89 965.213 745.371 965.213 744.852C965.213 744.592 965.54 744.333 965.867 744.073Z" fill="#277BF9"/>
</g>
<g opacity="0.27">
<path opacity="0.27" d="M965.867 744.073C966.194 743.813 966.848 743.813 967.502 744.073C967.829 744.332 967.829 745.111 967.502 745.37L911.259 788.716C910.932 788.976 909.951 788.976 909.624 788.716C909.297 788.457 909.297 787.678 909.624 787.418L965.867 744.073Z" fill="#277BF9"/>
</g>
<g opacity="0.22">
<path opacity="0.22" d="M904.719 814.153L911.258 788.456C911.258 788.197 910.931 787.678 910.604 787.678C910.277 787.678 909.951 787.678 909.951 787.678C909.624 787.678 909.624 787.937 909.624 788.197L903.084 814.412H904.719V814.153Z" fill="#277BF9"/>
</g>
<g opacity="0.05">
<path opacity="0.05" d="M1017.86 486.075L1282.4 437.278H1282.72V437.538L1018.51 486.334C1017.86 486.334 1017.53 486.334 1017.86 486.075C1017.53 486.075 1017.53 486.075 1017.86 486.075Z" fill="#277BF9"/>
</g>
<g opacity="0.25">
<path opacity="0.25" d="M1224.19 391.337C1224.85 391.077 1225.5 391.077 1225.83 391.337L1283.38 436.499C1284.03 437.019 1284.03 437.538 1283.38 438.057C1282.72 438.316 1282.07 438.576 1281.42 438.057L1223.86 392.894C1223.54 392.375 1223.54 391.856 1224.19 391.337C1223.86 391.337 1224.19 391.337 1224.19 391.337Z" fill="#277BF9"/>
</g>
<g opacity="0.08">
<path opacity="0.08" d="M820.353 560.826L1017.86 485.814C1018.18 485.814 1018.18 485.814 1018.18 485.814C1018.18 486.074 1018.18 486.074 1018.18 486.074L821.007 561.085C820.68 561.085 820.68 561.085 820.68 561.085C820.026 561.085 820.353 561.085 820.353 560.826Z" fill="#277BF9"/>
</g>
<g opacity="0.08">
<path opacity="0.08" d="M820.355 560.827H820.682V561.086L677.131 664.389H676.804V664.13L820.355 560.827C820.355 561.086 820.355 561.086 820.355 560.827Z" fill="#277BF9"/>
</g>
<g opacity="0.04">
<path opacity="0.04" d="M676.804 664.389C677.131 664.129 677.131 664.129 676.804 664.389C677.131 664.389 677.131 664.389 676.804 664.389L559.086 795.205H558.76V794.945L676.804 664.389Z" fill="#277BF9"/>
</g>
<g opacity="0.1">
<path opacity="0.1" d="M553.528 814.152L559.414 795.205C559.414 794.945 559.413 794.945 559.086 794.686H558.76C558.76 794.686 558.76 794.685 558.433 794.945L552.547 813.893H553.528V814.152Z" fill="#277BF9"/>
</g>
<g opacity="0.05">
<path opacity="0.05" d="M1170.24 32.3713L1364.14 -2.92822C1364.14 -2.92822 1364.47 -2.92822 1364.47 -2.66867C1364.47 -2.66867 1364.47 -2.40911 1364.14 -2.40911L1170.24 32.8904C1170.24 32.6309 1170.24 32.6309 1170.24 32.3713C1169.91 32.3713 1170.24 32.3713 1170.24 32.3713Z" fill="#277BF9"/>
</g>
<g opacity="0.23">
<path opacity="0.23" d="M1169.58 31.8526C1169.91 31.5931 1170.24 31.5931 1170.56 31.8526C1171.22 32.1122 1171.55 32.6313 1171.22 32.8909L1115.3 141.904C1114.98 142.423 1114.32 142.423 1113.99 142.423C1113.34 142.164 1113.01 141.645 1113.34 141.385L1169.26 32.3717C1169.26 31.8526 1169.58 31.8526 1169.58 31.8526Z" fill="#277BF9"/>
</g>
<g opacity="0.19">
<path opacity="0.19" d="M184.678 668.801L326.594 595.607C326.921 595.347 327.575 595.607 327.902 595.866C328.229 596.126 328.229 596.645 327.575 596.904L185.659 670.099C185.332 670.358 184.678 670.099 184.351 669.839C184.351 669.58 184.351 669.061 184.678 668.801Z" fill="#277BF9"/>
</g>
<g opacity="0.05">
<path opacity="0.05" d="M850.765 -40.3042C851.092 -40.3042 851.092 -40.3042 850.765 -40.3042L719.313 115.17H718.986V114.91L850.765 -40.3042Z" fill="#277BF9"/>
</g>
<g opacity="0.08">
<path opacity="0.08" d="M718.986 114.65H719.313V114.91L557.124 229.893H556.797V229.633L718.986 114.65Z" fill="#277BF9"/>
</g>
<g opacity="0.07">
<path opacity="0.07" d="M373.027 306.722L556.798 229.634H557.125V229.893L373.354 306.981H373.027C373.027 306.981 373.027 306.981 373.027 306.722Z" fill="#277BF9"/>
</g>
<g opacity="0.04">
<path opacity="0.04" d="M195.142 352.403L373.354 306.722H373.681V306.981L195.142 352.403C195.142 352.663 195.142 352.663 195.142 352.403C195.142 352.663 195.142 352.663 195.142 352.403Z" fill="#277BF9"/>
</g>
<g opacity="0.21">
<path opacity="0.21" d="M115.028 383.291L194.814 351.884C195.141 351.625 195.795 351.884 196.122 352.144C196.449 352.403 196.122 352.923 195.795 353.182L116.336 384.329C116.009 384.588 115.355 384.329 115.028 384.069C114.374 383.81 114.701 383.55 115.028 383.291Z" fill="#277BF9"/>
</g>
<g opacity="0.17">
<path opacity="0.17" d="M633.313 -53.2817C633.64 -53.5412 633.967 -53.5412 634.294 -53.2817C634.621 -53.0221 634.621 -52.7625 634.621 -52.2434L559.086 29.5165C558.759 29.7761 558.432 29.7761 557.778 29.7761C557.451 29.5165 557.451 29.257 557.451 28.7379L633.313 -53.2817C632.986 -53.0221 633.313 -53.0221 633.313 -53.2817Z" fill="#277BF9"/>
</g>
<g opacity="0.21">
<path opacity="0.21" d="M437.445 79.3507C437.445 79.0912 437.445 79.0912 437.445 79.3507L557.778 28.4779C558.432 28.2183 558.759 28.4779 559.086 28.7374C559.413 29.2565 559.086 29.5161 558.759 29.7757L438.426 80.389C437.772 80.6485 437.445 80.389 437.118 80.1294C436.791 79.8699 437.118 79.3507 437.445 79.3507Z" fill="#277BF9"/>
</g>
<g opacity="0.24">
<path opacity="0.24" d="M274.275 95.9625L274.602 95.7029L437.772 78.8318C438.426 78.8318 439.08 79.0913 439.08 79.6105C439.08 80.1296 438.753 80.6487 438.099 80.6487L274.929 97.5198C274.275 97.5198 273.621 97.2602 273.621 96.7411C273.621 96.4816 273.948 96.222 274.275 95.9625Z" fill="#277BF9"/>
</g>
<g opacity="0.22">
<path opacity="0.22" d="M82.0025 79.3511C82.3295 79.3511 82.3295 79.0916 82.6565 79.0916L274.929 95.7031C275.583 95.7031 275.91 96.2222 275.91 96.4818C275.91 97.0009 275.256 97.2604 274.929 97.2604L82.6565 80.6489C82.0025 80.6489 81.6755 80.1298 81.6755 79.8702C81.6755 79.8702 81.6755 79.6107 82.0025 79.3511Z" fill="#277BF9"/>
</g>
<g opacity="0.05">
<path opacity="0.05" d="M1170.24 814.153H1171.22L1003.14 719.155H1002.82V719.415L1170.24 814.153Z" fill="#277BF9"/>
</g>
<g opacity="0.25">
<path opacity="0.25" d="M981.235 665.687C981.235 665.687 981.562 665.687 981.562 665.427C982.543 665.168 983.197 665.687 983.524 666.206L1004.78 718.896C1005.11 719.674 1004.45 720.193 1003.8 720.453C1002.82 720.712 1002.16 720.193 1001.84 719.674L980.581 666.985C980.254 666.725 980.581 665.946 981.235 665.687Z" fill="#277BF9"/>
</g>
<g opacity="0.07">
<path opacity="0.07" d="M749.396 637.396H749.723L1003.14 719.155C1003.47 719.155 1003.47 719.415 1003.47 719.674C1003.47 719.934 1003.14 719.934 1002.82 719.934L749.396 638.174C749.396 637.915 749.396 637.655 749.396 637.396Z" fill="#277BF9"/>
</g>
<g opacity="0.08">
<path opacity="0.08" d="M539.794 619.486C539.794 619.227 539.794 619.227 539.794 619.486L749.724 637.395C750.051 637.395 750.051 637.655 750.051 637.655C750.051 637.915 749.724 637.915 749.724 637.915L539.794 620.005C539.794 620.005 539.467 619.746 539.794 619.486C539.467 619.486 539.794 619.486 539.794 619.486Z" fill="#277BF9"/>
</g>
<g opacity="0.06">
<path opacity="0.06" d="M356.023 638.693C356.35 638.693 356.35 638.693 356.023 638.693L539.794 619.486C539.794 619.486 540.121 619.486 540.121 619.745C540.121 619.745 540.121 620.005 539.794 620.005L356.023 639.212C356.35 639.212 356.023 638.952 356.023 638.693Z" fill="#277BF9"/>
</g>
<g opacity="0.02">
<path opacity="0.02" d="M185.332 669.321L356.35 638.693L185.332 669.321C185.332 669.58 185.332 669.58 185.332 669.321Z" fill="#277BF9"/>
</g>
<g opacity="0.08">
<path opacity="0.08" d="M185.006 669.32H185.333C185.66 669.32 185.66 669.58 185.333 669.839L60.7486 813.633C60.7486 813.893 60.4216 813.893 60.0946 813.633C59.7676 813.633 59.7676 813.374 60.0946 813.114L185.006 669.32Z" fill="#277BF9"/>
</g>
<g opacity="0.08">
<path opacity="0.08" d="M1126.75 230.672C1127.07 230.672 1127.4 230.672 1127.4 230.931L1225.5 391.856C1225.5 392.115 1225.5 392.115 1225.17 392.375C1224.84 392.375 1224.52 392.375 1224.52 392.115L1126.42 231.191C1126.42 231.191 1126.42 230.931 1126.75 230.672Z" fill="#277BF9"/>
</g>
<g opacity="0.18">
<path opacity="0.18" d="M1224.19 391.337C1224.19 391.337 1224.52 391.337 1224.19 391.337L1487.09 331.639C1487.75 331.639 1488.07 331.639 1488.4 332.158C1488.4 332.677 1488.4 332.937 1487.75 333.196L1224.84 392.635C1224.19 392.635 1223.86 392.635 1223.54 392.116C1223.86 392.116 1223.86 391.596 1224.19 391.337Z" fill="#277BF9"/>
</g>
<g opacity="0.18">
<path opacity="0.18" d="M-89.9972 421.964L115.355 383.291C115.682 383.291 116.336 383.291 116.336 383.81C116.336 384.069 116.336 384.588 115.682 384.588L-89.3432 423.002C-89.6702 423.002 -90.3242 423.002 -90.3242 422.483C-90.3242 422.483 -90.3242 422.224 -89.9972 421.964Z" fill="#277BF9"/>
</g>
<g opacity="0.08">
<path opacity="0.08" d="M115.356 383.55H115.683C116.009 383.55 116.009 383.81 115.683 383.81L31.3181 501.907C31.3181 501.907 30.9911 502.167 30.9911 501.907C30.6641 501.907 30.6641 501.648 30.9911 501.648L115.356 383.55Z" fill="#277BF9"/>
</g>
<g opacity="0.08">
<path opacity="0.08" d="M1156.5 -54.5796L1169.91 32.3715C1169.91 32.6311 1170.24 32.6311 1170.56 32.6311C1170.89 32.6311 1170.89 32.3715 1170.89 32.1119L1157.48 -54.5796H1156.5Z" fill="#277BF9"/>
</g>
<g opacity="0.02">
<path opacity="0.02" d="M882.156 102.971L1170.24 32.3716L882.156 102.971C882.156 103.23 882.156 103.23 882.156 102.971Z" fill="#277BF9"/>
</g>
<g opacity="0.06">
<path opacity="0.06" d="M617.618 150.729L882.156 102.711C882.156 102.711 882.483 102.711 882.483 102.971C882.483 102.971 882.483 103.23 882.156 103.23L617.618 150.988C617.618 151.248 617.291 150.989 617.618 150.729C617.291 150.989 617.291 150.729 617.618 150.729Z" fill="#277BF9"/>
</g>
<g opacity="0.08">
<path opacity="0.08" d="M359.619 158.775C359.946 158.775 359.946 158.775 359.619 158.775L617.617 150.469C617.944 150.469 617.944 150.729 617.944 150.729C617.944 150.988 617.617 150.988 617.617 150.988L359.946 159.294C359.619 159.294 359.619 159.035 359.619 159.035C359.619 159.035 359.619 159.035 359.619 158.775Z" fill="#277BF9"/>
</g>
<g opacity="0.07">
<path opacity="0.07" d="M106.527 119.582C106.527 119.582 106.854 119.582 106.527 119.582L359.947 158.775C360.274 158.775 360.274 159.035 360.274 159.035C360.274 159.294 359.947 159.294 359.947 159.294L106.854 120.101C106.527 120.101 106.527 120.101 106.527 119.582C106.527 119.842 106.527 119.582 106.527 119.582Z" fill="#277BF9"/>
</g>
<g opacity="0.25">
<path opacity="0.25" d="M-60.2407 164.485C-59.9137 164.485 -59.9137 164.485 -60.2407 164.485L106.526 119.063C107.18 118.803 107.834 119.063 108.161 119.582C108.488 120.101 108.161 120.62 107.507 120.88L-58.9327 166.302C-59.5867 166.562 -60.2407 166.302 -60.5677 165.783C-60.8947 165.264 -60.5677 164.745 -60.2407 164.485Z" fill="#277BF9"/>
</g>
<g opacity="0.06">
<path opacity="0.06" d="M-62.2026 761.203L60.7471 813.114C60.7471 813.114 61.0741 813.374 60.7471 813.374C60.7471 813.374 60.4201 813.633 60.4201 813.374L-62.2026 761.463C-62.2026 761.463 -62.5296 761.463 -62.2026 761.203Z" fill="#277BF9"/>
</g>
<g opacity="0.2">
<path opacity="0.2" d="M215.741 814.153L252.365 793.907C253.019 793.648 253.346 792.869 252.692 792.35C252.365 791.831 251.384 791.571 250.73 792.091L210.51 814.153H215.741Z" fill="#277BF9"/>
</g>
<g opacity="0.27">
<path opacity="0.27" d="M256.616 669.061C256.943 668.801 257.27 668.801 257.597 668.801C258.578 668.801 259.232 669.58 259.232 670.099L253.346 792.869C253.346 793.647 252.692 794.166 251.711 794.166C250.73 794.166 250.076 793.388 250.076 792.869L255.962 670.099C255.962 669.58 256.289 669.32 256.616 669.061Z" fill="#277BF9"/>
</g>
<g opacity="0.19">
<path opacity="0.19" d="M160.48 577.698C160.807 577.438 161.461 577.438 161.788 577.957L258.579 669.58C258.906 669.84 258.906 670.359 258.579 670.619C258.252 670.878 257.598 670.878 257.271 670.619L160.48 578.996C159.826 578.477 159.826 577.957 160.48 577.698Z" fill="#277BF9"/>
</g>
<g opacity="0.07">
<path opacity="0.07" d="M30.99 501.907H31.317L161.134 578.217C161.134 578.217 161.461 578.476 161.134 578.476C161.134 578.476 160.807 578.736 160.807 578.476L30.99 502.167C30.99 502.167 30.99 501.907 30.99 501.907Z" fill="#277BF9"/>
</g>
<g opacity="0.1">
<path opacity="0.1" d="M1125.11 814.153H1127.07L982.87 666.466C982.543 666.206 982.216 666.206 981.889 666.466C981.562 666.725 981.562 666.985 981.889 667.244L1125.11 814.153Z" fill="#277BF9"/>
</g>
<g opacity="0.07">
<path opacity="0.07" d="M699.366 499.312C699.366 499.312 699.693 499.312 700.02 499.312L982.543 666.465C982.87 666.465 982.87 666.725 982.543 666.984C982.543 667.244 982.216 667.244 981.889 666.984L699.366 499.831C699.039 499.831 699.039 499.571 699.366 499.312C699.039 499.571 699.039 499.312 699.366 499.312Z" fill="#277BF9"/>
</g>
<g opacity="0.04">
<path opacity="0.04" d="M425.673 382.512L699.693 499.571C699.693 499.571 700.02 499.831 699.693 499.831C699.693 499.831 699.367 500.09 699.367 499.831L425.673 382.771C425.346 382.771 425.346 382.771 425.673 382.512C425.346 382.512 425.673 382.512 425.673 382.512Z" fill="#277BF9"/>
</g>
<g opacity="0.04">
<path opacity="0.04" d="M173.561 280.247L426 382.512V382.771H425.673L173.561 280.507C173.561 280.766 173.234 280.507 173.561 280.247C173.561 280.507 173.561 280.507 173.561 280.247Z" fill="#277BF9"/>
</g>
<g opacity="0.07">
<path opacity="0.07" d="M-59.587 165.004H-59.26L173.887 280.247C174.214 280.247 174.214 280.507 173.887 280.766C173.887 281.026 173.56 281.026 173.233 280.766L-59.587 165.524C-59.914 165.524 -59.914 165.264 -59.587 165.004Z" fill="#277BF9"/>
</g>
<g opacity="0.07">
<path opacity="0.07" d="M804.657 154.622H804.984L1127.07 230.932C1127.4 230.932 1127.4 231.191 1127.4 231.451C1127.4 231.71 1127.07 231.71 1126.75 231.71L804.657 155.401C804.33 155.141 804.33 154.882 804.657 154.622C804.33 154.622 804.33 154.622 804.657 154.622Z" fill="#277BF9"/>
</g>
<g opacity="0.19">
<path opacity="0.19" d="M525.405 73.3814C525.732 73.1219 526.059 73.1219 526.386 73.3814L804.985 153.844C805.639 154.103 805.966 154.622 805.639 155.141C805.312 155.661 804.658 155.92 804.004 155.661L525.405 75.1983C524.751 74.9388 524.424 74.4197 524.751 73.9005C525.078 73.641 525.405 73.641 525.405 73.3814Z" fill="#277BF9"/>
</g>
<g opacity="0.27">
<path opacity="0.27" d="M278.525 -36.6703C279.179 -36.9299 279.833 -36.9299 280.487 -36.6703L527.04 73.1216C528.021 73.3812 528.348 74.4194 527.694 74.9385C527.367 75.7172 526.059 75.9767 525.405 75.4576L278.525 -34.3343C277.544 -34.5939 277.217 -35.6321 277.871 -36.1512C278.198 -36.4108 278.198 -36.4108 278.525 -36.6703Z" fill="#277BF9"/>
</g>
<path opacity="0.44" d="M1310.52 50.0214C1312.14 50.0214 1313.46 48.9755 1313.46 47.6854C1313.46 46.3952 1312.14 45.3494 1310.52 45.3494C1308.89 45.3494 1307.57 46.3952 1307.57 47.6854C1307.57 48.9755 1308.89 50.0214 1310.52 50.0214Z" fill="#277BF9"/>
<path opacity="0.4" d="M1353.35 153.324C1354.8 153.324 1355.97 152.395 1355.97 151.248C1355.97 150.101 1354.8 149.172 1353.35 149.172C1351.91 149.172 1350.74 150.101 1350.74 151.248C1350.74 152.395 1351.91 153.324 1353.35 153.324Z" fill="#277BF9"/>
<path opacity="0.37" d="M1394.23 199.266C1395.67 199.266 1396.85 198.336 1396.85 197.189C1396.85 196.042 1395.67 195.113 1394.23 195.113C1392.78 195.113 1391.61 196.042 1391.61 197.189C1391.61 198.336 1392.78 199.266 1394.23 199.266Z" fill="#277BF9"/>
<path opacity="0.26" d="M801.388 1.48412C802.653 1.48412 803.677 0.670669 803.677 -0.332772C803.677 -1.33621 802.653 -2.14966 801.388 -2.14966C800.124 -2.14966 799.099 -1.33621 799.099 -0.332772C799.099 0.670669 800.124 1.48412 801.388 1.48412Z" fill="#277BF9"/>
<path opacity="0.34" d="M948.209 45.0897C949.654 45.0897 950.825 44.16 950.825 43.0132C950.825 41.8664 949.654 40.9368 948.209 40.9368C946.765 40.9368 945.594 41.8664 945.594 43.0132C945.594 44.16 946.765 45.0897 948.209 45.0897Z" fill="#277BF9"/>
<path opacity="0.34" d="M1023.74 120.62C1025.19 120.62 1026.36 119.691 1026.36 118.544C1026.36 117.397 1025.19 116.467 1023.74 116.467C1022.3 116.467 1021.13 117.397 1021.13 118.544C1021.13 119.691 1022.3 120.62 1023.74 120.62Z" fill="#277BF9"/>
<path opacity="0.33" d="M1090.12 174.608C1091.39 174.608 1092.41 173.794 1092.41 172.791C1092.41 171.788 1091.39 170.974 1090.12 170.974C1088.86 170.974 1087.84 171.788 1087.84 172.791C1087.84 173.794 1088.86 174.608 1090.12 174.608Z" fill="#277BF9"/>
<path opacity="0.31" d="M1148.66 179.54C1149.92 179.54 1150.94 178.726 1150.94 177.723C1150.94 176.719 1149.92 175.906 1148.66 175.906C1147.39 175.906 1146.37 176.719 1146.37 177.723C1146.37 178.726 1147.39 179.54 1148.66 179.54Z" fill="#277BF9"/>
<path opacity="0.21" d="M778.499 431.049C779.582 431.049 780.461 430.352 780.461 429.491C780.461 428.631 779.582 427.934 778.499 427.934C777.415 427.934 776.537 428.631 776.537 429.491C776.537 430.352 777.415 431.049 778.499 431.049Z" fill="#277BF9"/>
<path opacity="0.24" d="M788.307 362.007C789.391 362.007 790.269 361.309 790.269 360.449C790.269 359.589 789.391 358.892 788.307 358.892C787.224 358.892 786.345 359.589 786.345 360.449C786.345 361.309 787.224 362.007 788.307 362.007Z" fill="#277BF9"/>
<path opacity="0.27" d="M822.316 360.969C823.58 360.969 824.605 360.155 824.605 359.152C824.605 358.148 823.58 357.335 822.316 357.335C821.052 357.335 820.027 358.148 820.027 359.152C820.027 360.155 821.052 360.969 822.316 360.969Z" fill="#277BF9"/>
<path opacity="0.28" d="M873.654 397.047C874.918 397.047 875.943 396.234 875.943 395.23C875.943 394.227 874.918 393.414 873.654 393.414C872.39 393.414 871.365 394.227 871.365 395.23C871.365 396.234 872.39 397.047 873.654 397.047Z" fill="#277BF9"/>
<path opacity="0.28" d="M937.746 434.423C939.01 434.423 940.035 433.609 940.035 432.606C940.035 431.603 939.01 430.789 937.746 430.789C936.482 430.789 935.457 431.603 935.457 432.606C935.457 433.609 936.482 434.423 937.746 434.423Z" fill="#277BF9"/>
<path opacity="0.27" d="M1008.05 434.683C1009.31 434.683 1010.34 433.869 1010.34 432.866C1010.34 431.862 1009.31 431.049 1008.05 431.049C1006.78 431.049 1005.76 431.862 1005.76 432.866C1005.76 433.869 1006.78 434.683 1008.05 434.683Z" fill="#277BF9"/>
<path opacity="0.23" d="M625.466 642.846C626.549 642.846 627.427 642.149 627.427 641.289C627.427 640.429 626.549 639.731 625.466 639.731C624.382 639.731 623.504 640.429 623.504 641.289C623.504 642.149 624.382 642.846 625.466 642.846Z" fill="#277BF9"/>
<path opacity="0.25" d="M634.948 590.675C636.032 590.675 636.91 589.978 636.91 589.118C636.91 588.258 636.032 587.561 634.948 587.561C633.865 587.561 632.986 588.258 632.986 589.118C632.986 589.978 633.865 590.675 634.948 590.675Z" fill="#277BF9"/>
<path opacity="0.27" d="M650.97 597.943C652.234 597.943 653.259 597.129 653.259 596.126C653.259 595.123 652.234 594.309 650.97 594.309C649.706 594.309 648.681 595.123 648.681 596.126C648.681 597.129 649.706 597.943 650.97 597.943Z" fill="#277BF9"/>
<path opacity="0.3" d="M682.363 652.449C683.627 652.449 684.652 651.636 684.652 650.632C684.652 649.629 683.627 648.815 682.363 648.815C681.099 648.815 680.074 649.629 680.074 650.632C680.074 651.636 681.099 652.449 682.363 652.449Z" fill="#277BF9"/>
<path opacity="0.31" d="M738.933 732.912C740.197 732.912 741.222 732.098 741.222 731.095C741.222 730.091 740.197 729.278 738.933 729.278C737.669 729.278 736.644 730.091 736.644 731.095C736.644 732.098 737.669 732.912 738.933 732.912Z" fill="#277BF9"/>
<path opacity="0.31" d="M833.761 804.549C835.025 804.549 836.05 803.736 836.05 802.732C836.05 801.729 835.025 800.916 833.761 800.916C832.497 800.916 831.472 801.729 831.472 802.732C831.472 803.736 832.497 804.549 833.761 804.549Z" fill="#277BF9"/>
<path opacity="0.21" d="M451.833 563.682C452.916 563.682 453.795 562.984 453.795 562.124C453.795 561.264 452.916 560.567 451.833 560.567C450.749 560.567 449.871 561.264 449.871 562.124C449.871 562.984 450.749 563.682 451.833 563.682Z" fill="#277BF9"/>
<path opacity="0.24" d="M441.042 555.895C442.125 555.895 443.004 555.198 443.004 554.338C443.004 553.478 442.125 552.78 441.042 552.78C439.958 552.78 439.08 553.478 439.08 554.338C439.08 555.198 439.958 555.895 441.042 555.895Z" fill="#277BF9"/>
<path opacity="0.26" d="M429.597 593.011C430.861 593.011 431.886 592.198 431.886 591.194C431.886 590.191 430.861 589.377 429.597 589.377C428.333 589.377 427.308 590.191 427.308 591.194C427.308 592.198 428.333 593.011 429.597 593.011Z" fill="#277BF9"/>
<path opacity="0.29" d="M418.804 678.146C420.069 678.146 421.093 677.332 421.093 676.329C421.093 675.325 420.069 674.512 418.804 674.512C417.54 674.512 416.515 675.325 416.515 676.329C416.515 677.332 417.54 678.146 418.804 678.146Z" fill="#277BF9"/>
<path opacity="0.58" d="M1419.08 27.4401C1420.89 27.4401 1422.35 26.2781 1422.35 24.8446C1422.35 23.4111 1420.89 22.249 1419.08 22.249C1417.27 22.249 1415.81 23.4111 1415.81 24.8446C1415.81 26.2781 1417.27 27.4401 1419.08 27.4401Z" fill="#277BF9"/>
<path opacity="0.52" d="M1350.41 201.342C1352.04 201.342 1353.35 200.296 1353.35 199.006C1353.35 197.716 1352.04 196.67 1350.41 196.67C1348.79 196.67 1347.47 197.716 1347.47 199.006C1347.47 200.296 1348.79 201.342 1350.41 201.342Z" fill="#277BF9"/>
<path opacity="0.47" d="M1296.46 320.478C1298.08 320.478 1299.4 319.432 1299.4 318.142C1299.4 316.852 1298.08 315.806 1296.46 315.806C1294.83 315.806 1293.51 316.852 1293.51 318.142C1293.51 319.432 1294.83 320.478 1296.46 320.478Z" fill="#277BF9"/>
<path opacity="0.42" d="M1270.95 384.329C1272.4 384.329 1273.57 383.399 1273.57 382.252C1273.57 381.105 1272.4 380.176 1270.95 380.176C1269.51 380.176 1268.34 381.105 1268.34 382.252C1268.34 383.399 1269.51 384.329 1270.95 384.329Z" fill="#277BF9"/>
<path opacity="0.36" d="M1269.97 385.627C1271.42 385.627 1272.59 384.697 1272.59 383.55C1272.59 382.403 1271.42 381.474 1269.97 381.474C1268.53 381.474 1267.36 382.403 1267.36 383.55C1267.36 384.697 1268.53 385.627 1269.97 385.627Z" fill="#277BF9"/>
<path opacity="0.43" d="M1038.46 131.522C1039.9 131.522 1041.08 130.592 1041.08 129.446C1041.08 128.299 1039.9 127.369 1038.46 127.369C1037.01 127.369 1035.84 128.299 1035.84 129.446C1035.84 130.592 1037.01 131.522 1038.46 131.522Z" fill="#277BF9"/>
<path opacity="0.4" d="M1035.51 281.026C1036.96 281.026 1038.13 280.096 1038.13 278.949C1038.13 277.803 1036.96 276.873 1035.51 276.873C1034.07 276.873 1032.9 277.803 1032.9 278.949C1032.9 280.096 1034.07 281.026 1035.51 281.026Z" fill="#277BF9"/>
<path opacity="0.37" d="M1044.02 394.451C1045.46 394.451 1046.63 393.522 1046.63 392.375C1046.63 391.228 1045.46 390.298 1044.02 390.298C1042.57 390.298 1041.4 391.228 1041.4 392.375C1041.4 393.522 1042.57 394.451 1044.02 394.451Z" fill="#277BF9"/>
<path opacity="0.33" d="M1073.12 460.378C1074.38 460.378 1075.41 459.565 1075.41 458.562C1075.41 457.558 1074.38 456.745 1073.12 456.745C1071.86 456.745 1070.83 457.558 1070.83 458.562C1070.83 459.565 1071.86 460.378 1073.12 460.378Z" fill="#277BF9"/>
<path opacity="0.3" d="M769.343 39.1199C770.608 39.1199 771.632 38.3064 771.632 37.303C771.632 36.2995 770.608 35.4861 769.343 35.4861C768.079 35.4861 767.054 36.2995 767.054 37.303C767.054 38.3064 768.079 39.1199 769.343 39.1199Z" fill="#277BF9"/>
<path opacity="0.33" d="M800.408 128.926C801.672 128.926 802.697 128.113 802.697 127.109C802.697 126.106 801.672 125.292 800.408 125.292C799.144 125.292 798.119 126.106 798.119 127.109C798.119 128.113 799.144 128.926 800.408 128.926Z" fill="#277BF9"/>
<path opacity="0.34" d="M818.065 255.849C819.51 255.849 820.681 254.919 820.681 253.772C820.681 252.625 819.51 251.696 818.065 251.696C816.62 251.696 815.449 252.625 815.449 253.772C815.449 254.919 816.62 255.849 818.065 255.849Z" fill="#277BF9"/>
<path opacity="0.35" d="M824.932 396.008C826.377 396.008 827.548 395.079 827.548 393.932C827.548 392.785 826.377 391.855 824.932 391.855C823.487 391.855 822.316 392.785 822.316 393.932C822.316 395.079 823.487 396.008 824.932 396.008Z" fill="#277BF9"/>
<path opacity="0.35" d="M836.05 537.207C837.494 537.207 838.666 536.277 838.666 535.13C838.666 533.984 837.494 533.054 836.05 533.054C834.605 533.054 833.434 533.984 833.434 535.13C833.434 536.277 834.605 537.207 836.05 537.207Z" fill="#277BF9"/>
<path opacity="0.34" d="M870.057 669.061C871.502 669.061 872.673 668.131 872.673 666.985C872.673 665.838 871.502 664.908 870.057 664.908C868.612 664.908 867.441 665.838 867.441 666.985C867.441 668.131 868.612 669.061 870.057 669.061Z" fill="#277BF9"/>
<path opacity="0.23" d="M694.788 340.983C695.871 340.983 696.75 340.286 696.75 339.426C696.75 338.566 695.871 337.868 694.788 337.868C693.704 337.868 692.826 338.566 692.826 339.426C692.826 340.286 693.704 340.983 694.788 340.983Z" fill="#277BF9"/>
<path opacity="0.27" d="M669.283 338.647C670.547 338.647 671.572 337.833 671.572 336.83C671.572 335.827 670.547 335.013 669.283 335.013C668.019 335.013 666.994 335.827 666.994 336.83C666.994 337.833 668.019 338.647 669.283 338.647Z" fill="#277BF9"/>
<path opacity="0.3" d="M645.412 397.566C646.676 397.566 647.701 396.752 647.701 395.749C647.701 394.746 646.676 393.932 645.412 393.932C644.148 393.932 643.123 394.746 643.123 395.749C643.123 396.752 644.148 397.566 645.412 397.566Z" fill="#277BF9"/>
<path opacity="0.33" d="M615.002 499.312C616.266 499.312 617.291 498.498 617.291 497.495C617.291 496.491 616.266 495.678 615.002 495.678C613.737 495.678 612.713 496.491 612.713 497.495C612.713 498.498 613.737 499.312 615.002 499.312Z" fill="#277BF9"/>
<path opacity="0.35" d="M580.668 632.723C582.113 632.723 583.284 631.793 583.284 630.647C583.284 629.5 582.113 628.57 580.668 628.57C579.224 628.57 578.052 629.5 578.052 630.647C578.052 631.793 579.224 632.723 580.668 632.723Z" fill="#277BF9"/>
<path opacity="0.38" d="M551.565 793.907C553.01 793.907 554.181 792.978 554.181 791.831C554.181 790.684 553.01 789.754 551.565 789.754C550.12 789.754 548.949 790.684 548.949 791.831C548.949 792.978 550.12 793.907 551.565 793.907Z" fill="#277BF9"/>
<path opacity="0.22" d="M568.895 467.646C569.979 467.646 570.857 466.949 570.857 466.089C570.857 465.229 569.979 464.531 568.895 464.531C567.812 464.531 566.933 465.229 566.933 466.089C566.933 466.949 567.812 467.646 568.895 467.646Z" fill="#277BF9"/>
<path opacity="0.25" d="M517.886 405.871C518.969 405.871 519.848 405.174 519.848 404.314C519.848 403.454 518.969 402.757 517.886 402.757C516.802 402.757 515.924 403.454 515.924 404.314C515.924 405.174 516.802 405.871 517.886 405.871Z" fill="#277BF9"/>
<path opacity="0.29" d="M464.257 405.612C465.522 405.612 466.546 404.799 466.546 403.795C466.546 402.792 465.522 401.979 464.257 401.979C462.993 401.979 461.969 402.792 461.969 403.795C461.969 404.799 462.993 405.612 464.257 405.612Z" fill="#277BF9"/>
<path opacity="0.31" d="M405.4 455.966C406.664 455.966 407.689 455.153 407.689 454.149C407.689 453.146 406.664 452.333 405.4 452.333C404.136 452.333 403.111 453.146 403.111 454.149C403.111 455.153 404.136 455.966 405.4 455.966Z" fill="#277BF9"/>
<path opacity="0.33" d="M340.98 547.849C342.244 547.849 343.269 547.035 343.269 546.032C343.269 545.028 342.244 544.215 340.98 544.215C339.716 544.215 338.691 545.028 338.691 546.032C338.691 547.035 339.716 547.849 340.98 547.849Z" fill="#277BF9"/>
<path opacity="0.34" d="M270.35 676.588C271.795 676.588 272.966 675.659 272.966 674.512C272.966 673.365 271.795 672.436 270.35 672.436C268.905 672.436 267.734 673.365 267.734 674.512C267.734 675.659 268.905 676.588 270.35 676.588Z" fill="#277BF9"/>
<path opacity="0.59" d="M1361.2 796.243C1363.19 796.243 1364.8 794.965 1364.8 793.388C1364.8 791.811 1363.19 790.533 1361.2 790.533C1359.22 790.533 1357.61 791.811 1357.61 793.388C1357.61 794.965 1359.22 796.243 1361.2 796.243Z" fill="#277BF9"/>
<path opacity="0.51" d="M1337.66 716.819C1339.28 716.819 1340.6 715.774 1340.6 714.483C1340.6 713.193 1339.28 712.147 1337.66 712.147C1336.03 712.147 1334.71 713.193 1334.71 714.483C1334.71 715.774 1336.03 716.819 1337.66 716.819Z" fill="#277BF9"/>
<path opacity="0.38" d="M1330.46 605.989C1331.91 605.989 1333.08 605.059 1333.08 603.912C1333.08 602.766 1331.91 601.836 1330.46 601.836C1329.02 601.836 1327.85 602.766 1327.85 603.912C1327.85 605.059 1329.02 605.989 1330.46 605.989Z" fill="#277BF9"/>
<path opacity="0.59" d="M1311.5 501.648C1313.3 501.648 1314.77 500.486 1314.77 499.053C1314.77 497.619 1313.3 496.457 1311.5 496.457C1309.69 496.457 1308.23 497.619 1308.23 499.053C1308.23 500.486 1309.69 501.648 1311.5 501.648Z" fill="#277BF9"/>
<path opacity="0.55" d="M1190.51 556.155C1192.32 556.155 1193.78 554.992 1193.78 553.559C1193.78 552.125 1192.32 550.963 1190.51 550.963C1188.7 550.963 1187.24 552.125 1187.24 553.559C1187.24 554.992 1188.7 556.155 1190.51 556.155Z" fill="#277BF9"/>
<path opacity="0.46" d="M1137.87 597.943C1139.49 597.943 1140.81 596.897 1140.81 595.607C1140.81 594.317 1139.49 593.271 1137.87 593.271C1136.24 593.271 1134.92 594.317 1134.92 595.607C1134.92 596.897 1136.24 597.943 1137.87 597.943Z" fill="#277BF9"/>
<path opacity="0.38" d="M1134.92 617.929C1136.37 617.929 1137.54 616.999 1137.54 615.852C1137.54 614.705 1136.37 613.776 1134.92 613.776C1133.48 613.776 1132.31 614.705 1132.31 615.852C1132.31 616.999 1133.48 617.929 1134.92 617.929Z" fill="#277BF9"/>
<path opacity="0.59" d="M1227.79 140.866C1229.6 140.866 1231.06 139.704 1231.06 138.27C1231.06 136.837 1229.6 135.675 1227.79 135.675C1225.98 135.675 1224.52 136.837 1224.52 138.27C1224.52 139.704 1225.98 140.866 1227.79 140.866Z" fill="#277BF9"/>
<path opacity="0.55" d="M1086.53 298.156C1088.33 298.156 1089.8 296.994 1089.8 295.561C1089.8 294.127 1088.33 292.965 1086.53 292.965C1084.72 292.965 1083.26 294.127 1083.26 295.561C1083.26 296.994 1084.72 298.156 1086.53 298.156Z" fill="#277BF9"/>
<path opacity="0.49" d="M978.293 437.797C979.918 437.797 981.236 436.751 981.236 435.461C981.236 434.171 979.918 433.125 978.293 433.125C976.667 433.125 975.35 434.171 975.35 435.461C975.35 436.751 976.667 437.797 978.293 437.797Z" fill="#277BF9"/>
<path opacity="0.45" d="M915.509 571.468C917.135 571.468 918.452 570.422 918.452 569.132C918.452 567.842 917.135 566.796 915.509 566.796C913.884 566.796 912.566 567.842 912.566 569.132C912.566 570.422 913.884 571.468 915.509 571.468Z" fill="#277BF9"/>
<path opacity="0.41" d="M899.159 703.063C900.603 703.063 901.775 702.133 901.775 700.987C901.775 699.84 900.603 698.91 899.159 698.91C897.714 698.91 896.543 699.84 896.543 700.987C896.543 702.133 897.714 703.063 899.159 703.063Z" fill="#277BF9"/>
<path opacity="0.49" d="M917.472 39.3795C919.097 39.3795 920.415 38.3336 920.415 37.0435C920.415 35.7534 919.097 34.7075 917.472 34.7075C915.847 34.7075 914.529 35.7534 914.529 37.0435C914.529 38.3336 915.847 39.3795 917.472 39.3795Z" fill="#277BF9"/>
<path opacity="0.43" d="M600.614 725.125C602.058 725.125 603.23 724.196 603.23 723.049C603.23 721.902 602.058 720.972 600.614 720.972C599.169 720.972 597.998 721.902 597.998 723.049C597.998 724.196 599.169 725.125 600.614 725.125Z" fill="#277BF9"/>
<path opacity="0.37" d="M702.963 102.971C704.408 102.971 705.579 102.041 705.579 100.894C705.579 99.7475 704.408 98.8179 702.963 98.8179C701.518 98.8179 700.347 99.7475 700.347 100.894C700.347 102.041 701.518 102.971 702.963 102.971Z" fill="#277BF9"/>
<path opacity="0.39" d="M653.914 229.374C655.359 229.374 656.53 228.445 656.53 227.298C656.53 226.151 655.359 225.221 653.914 225.221C652.47 225.221 651.298 226.151 651.298 227.298C651.298 228.445 652.47 229.374 653.914 229.374Z" fill="#277BF9"/>
<path opacity="0.4" d="M568.241 354.74C569.685 354.74 570.857 353.81 570.857 352.663C570.857 351.517 569.685 350.587 568.241 350.587C566.796 350.587 565.625 351.517 565.625 352.663C565.625 353.81 566.796 354.74 568.241 354.74Z" fill="#277BF9"/>
<path opacity="0.41" d="M457.717 476.471C459.162 476.471 460.333 475.541 460.333 474.394C460.333 473.248 459.162 472.318 457.717 472.318C456.272 472.318 455.101 473.248 455.101 474.394C455.101 475.541 456.272 476.471 457.717 476.471Z" fill="#277BF9"/>
<path opacity="0.4" d="M339.018 598.981C340.463 598.981 341.634 598.051 341.634 596.905C341.634 595.758 340.463 594.828 339.018 594.828C337.573 594.828 336.402 595.758 336.402 596.905C336.402 598.051 337.573 598.981 339.018 598.981Z" fill="#277BF9"/>
<path opacity="0.24" d="M634.622 217.175C635.705 217.175 636.584 216.478 636.584 215.618C636.584 214.758 635.705 214.061 634.622 214.061C633.538 214.061 632.66 214.758 632.66 215.618C632.66 216.478 633.538 217.175 634.622 217.175Z" fill="#277BF9"/>
<path opacity="0.29" d="M573.474 202.38C574.738 202.38 575.763 201.567 575.763 200.563C575.763 199.56 574.738 198.747 573.474 198.747C572.21 198.747 571.185 199.56 571.185 200.563C571.185 201.567 572.21 202.38 573.474 202.38Z" fill="#277BF9"/>
<path opacity="0.34" d="M498.92 221.328C500.365 221.328 501.536 220.398 501.536 219.251C501.536 218.105 500.365 217.175 498.92 217.175C497.476 217.175 496.304 218.105 496.304 219.251C496.304 220.398 497.476 221.328 498.92 221.328Z" fill="#277BF9"/>
<path opacity="0.38" d="M401.475 260.521C402.92 260.521 404.091 259.591 404.091 258.445C404.091 257.298 402.92 256.368 401.475 256.368C400.03 256.368 398.859 257.298 398.859 258.445C398.859 259.591 400.03 260.521 401.475 260.521Z" fill="#277BF9"/>
<path opacity="0.39" d="M285.065 309.317C286.51 309.317 287.681 308.388 287.681 307.241C287.681 306.094 286.51 305.165 285.065 305.165C283.62 305.165 282.449 306.094 282.449 307.241C282.449 308.388 283.62 309.317 285.065 309.317Z" fill="#277BF9"/>
<path opacity="0.37" d="M172.579 365.381C174.023 365.381 175.195 364.451 175.195 363.304C175.195 362.158 174.023 361.228 172.579 361.228C171.134 361.228 169.963 362.158 169.963 363.304C169.963 364.451 171.134 365.381 172.579 365.381Z" fill="#277BF9"/>
<path opacity="0.59" d="M1272.91 805.327C1275.26 805.327 1277.16 803.817 1277.16 801.953C1277.16 800.09 1275.26 798.579 1272.91 798.579C1270.57 798.579 1268.66 800.09 1268.66 801.953C1268.66 803.817 1270.57 805.327 1272.91 805.327Z" fill="#277BF9"/>
<path opacity="0.59" d="M1079.01 749.263C1081.17 749.263 1082.93 747.869 1082.93 746.149C1082.93 744.429 1081.17 743.034 1079.01 743.034C1076.84 743.034 1075.08 744.429 1075.08 746.149C1075.08 747.869 1076.84 749.263 1079.01 749.263Z" fill="#277BF9"/>
<path opacity="0.59" d="M966.521 747.706C968.507 747.706 970.117 746.428 970.117 744.851C970.117 743.274 968.507 741.996 966.521 741.996C964.534 741.996 962.924 743.274 962.924 744.851C962.924 746.428 964.534 747.706 966.521 747.706Z" fill="#277BF9"/>
<path opacity="0.56" d="M910.278 790.793C912.084 790.793 913.548 789.631 913.548 788.197C913.548 786.764 912.084 785.602 910.278 785.602C908.472 785.602 907.008 786.764 907.008 788.197C907.008 789.631 908.472 790.793 910.278 790.793Z" fill="#277BF9"/>
<path opacity="0.59" d="M1282.07 440.393C1284.24 440.393 1285.99 438.998 1285.99 437.278C1285.99 435.558 1284.24 434.163 1282.07 434.163C1279.9 434.163 1278.14 435.558 1278.14 437.278C1278.14 438.998 1279.9 440.393 1282.07 440.393Z" fill="#277BF9"/>
<path opacity="0.59" d="M1017.86 489.189C1019.84 489.189 1021.46 487.91 1021.46 486.334C1021.46 484.757 1019.84 483.479 1017.86 483.479C1015.87 483.479 1014.26 484.757 1014.26 486.334C1014.26 487.91 1015.87 489.189 1017.86 489.189Z" fill="#277BF9"/>
<path opacity="0.59" d="M820.68 563.681C822.486 563.681 823.95 562.519 823.95 561.086C823.95 559.652 822.486 558.49 820.68 558.49C818.874 558.49 817.41 559.652 817.41 561.086C817.41 562.519 818.874 563.681 820.68 563.681Z" fill="#277BF9"/>
<path opacity="0.56" d="M677.131 666.985C678.937 666.985 680.401 665.822 680.401 664.389C680.401 662.956 678.937 661.793 677.131 661.793C675.325 661.793 673.861 662.956 673.861 664.389C673.861 665.822 675.325 666.985 677.131 666.985Z" fill="#277BF9"/>
<path opacity="0.52" d="M559.085 797.541C560.711 797.541 562.028 796.495 562.028 795.205C562.028 793.915 560.711 792.869 559.085 792.869C557.46 792.869 556.142 793.915 556.142 795.205C556.142 796.495 557.46 797.541 559.085 797.541Z" fill="#277BF9"/>
<path opacity="0.59" d="M1114.32 144.24C1116.31 144.24 1117.92 142.961 1117.92 141.385C1117.92 139.808 1116.31 138.53 1114.32 138.53C1112.34 138.53 1110.72 139.808 1110.72 141.385C1110.72 142.961 1112.34 144.24 1114.32 144.24Z" fill="#277BF9"/>
<path opacity="0.49" d="M327.248 598.721C328.873 598.721 330.191 597.676 330.191 596.385C330.191 595.095 328.873 594.049 327.248 594.049C325.622 594.049 324.305 595.095 324.305 596.385C324.305 597.676 325.622 598.721 327.248 598.721Z" fill="#277BF9"/>
<path opacity="0.56" d="M719.313 117.506C721.119 117.506 722.583 116.344 722.583 114.91C722.583 113.477 721.119 112.315 719.313 112.315C717.507 112.315 716.043 113.477 716.043 114.91C716.043 116.344 717.507 117.506 719.313 117.506Z" fill="#277BF9"/>
<path opacity="0.55" d="M557.123 232.489C558.929 232.489 560.393 231.327 560.393 229.893C560.393 228.46 558.929 227.298 557.123 227.298C555.318 227.298 553.854 228.46 553.854 229.893C553.854 231.327 555.318 232.489 557.123 232.489Z" fill="#277BF9"/>
<path opacity="0.53" d="M373.353 309.317C374.978 309.317 376.296 308.271 376.296 306.981C376.296 305.691 374.978 304.645 373.353 304.645C371.728 304.645 370.41 305.691 370.41 306.981C370.41 308.271 371.728 309.317 373.353 309.317Z" fill="#277BF9"/>
<path opacity="0.48" d="M195.142 354.999C196.767 354.999 198.085 353.953 198.085 352.663C198.085 351.373 196.767 350.327 195.142 350.327C193.517 350.327 192.199 351.373 192.199 352.663C192.199 353.953 193.517 354.999 195.142 354.999Z" fill="#277BF9"/>
<path opacity="0.46" d="M558.105 31.5927C559.73 31.5927 561.048 30.5468 561.048 29.2567C561.048 27.9665 559.73 26.9207 558.105 26.9207C556.479 26.9207 555.162 27.9665 555.162 29.2567C555.162 30.5468 556.479 31.5927 558.105 31.5927Z" fill="#277BF9"/>
<path opacity="0.51" d="M438.099 82.2059C439.724 82.2059 441.042 81.1601 441.042 79.8699C441.042 78.5798 439.724 77.5339 438.099 77.5339C436.474 77.5339 435.156 78.5798 435.156 79.8699C435.156 81.1601 436.474 82.2059 438.099 82.2059Z" fill="#277BF9"/>
<path opacity="0.56" d="M274.928 99.3369C276.734 99.3369 278.198 98.1748 278.198 96.7413C278.198 95.3078 276.734 94.1458 274.928 94.1458C273.122 94.1458 271.658 95.3078 271.658 96.7413C271.658 98.1748 273.122 99.3369 274.928 99.3369Z" fill="#277BF9"/>
<path opacity="0.59" d="M82.6564 82.725C84.4623 82.725 85.9263 81.563 85.9263 80.1295C85.9263 78.696 84.4623 77.5339 82.6564 77.5339C80.8505 77.5339 79.3865 78.696 79.3865 80.1295C79.3865 81.563 80.8505 82.725 82.6564 82.725Z" fill="#277BF9"/>
<path opacity="0.59" d="M1003.14 723.308C1005.85 723.308 1008.05 721.565 1008.05 719.415C1008.05 717.265 1005.85 715.521 1003.14 715.521C1000.43 715.521 998.238 717.265 998.238 719.415C998.238 721.565 1000.43 723.308 1003.14 723.308Z" fill="#277BF9"/>
<path opacity="0.59" d="M749.723 641.029C752.071 641.029 753.974 639.518 753.974 637.655C753.974 635.791 752.071 634.28 749.723 634.28C747.376 634.28 745.472 635.791 745.472 637.655C745.472 639.518 747.376 641.029 749.723 641.029Z" fill="#277BF9"/>
<path opacity="0.59" d="M540.12 622.601C542.107 622.601 543.717 621.323 543.717 619.746C543.717 618.169 542.107 616.891 540.12 616.891C538.134 616.891 536.523 618.169 536.523 619.746C536.523 621.323 538.134 622.601 540.12 622.601Z" fill="#277BF9"/>
<path opacity="0.59" d="M356.349 641.808C358.335 641.808 359.946 640.53 359.946 638.953C359.946 637.376 358.335 636.098 356.349 636.098C354.362 636.098 352.752 637.376 352.752 638.953C352.752 640.53 354.362 641.808 356.349 641.808Z" fill="#277BF9"/>
<path opacity="0.57" d="M185.332 671.916C187.138 671.916 188.602 670.754 188.602 669.32C188.602 667.887 187.138 666.725 185.332 666.725C183.526 666.725 182.062 667.887 182.062 669.32C182.062 670.754 183.526 671.916 185.332 671.916Z" fill="#277BF9"/>
<path opacity="0.59" d="M1224.85 395.49C1227.19 395.49 1229.1 393.979 1229.1 392.115C1229.1 390.252 1227.19 388.741 1224.85 388.741C1222.5 388.741 1220.6 390.252 1220.6 392.115C1220.6 393.979 1222.5 395.49 1224.85 395.49Z" fill="#277BF9"/>
<path opacity="0.59" d="M115.682 386.405C117.488 386.405 118.952 385.243 118.952 383.809C118.952 382.376 117.488 381.214 115.682 381.214C113.876 381.214 112.412 382.376 112.412 383.809C112.412 385.243 113.876 386.405 115.682 386.405Z" fill="#277BF9"/>
<path opacity="0.59" d="M1170.24 35.4862C1172.4 35.4862 1174.16 34.0917 1174.16 32.3715C1174.16 30.6513 1172.4 29.2568 1170.24 29.2568C1168.07 29.2568 1166.31 30.6513 1166.31 32.3715C1166.31 34.0917 1168.07 35.4862 1170.24 35.4862Z" fill="#277BF9"/>
<path opacity="0.59" d="M882.156 106.085C884.323 106.085 886.08 104.691 886.08 102.97C886.08 101.25 884.323 99.8557 882.156 99.8557C879.989 99.8557 878.232 101.25 878.232 102.97C878.232 104.691 879.989 106.085 882.156 106.085Z" fill="#277BF9"/>
<path opacity="0.59" d="M617.619 154.103C619.786 154.103 621.543 152.708 621.543 150.988C621.543 149.268 619.786 147.874 617.619 147.874C615.452 147.874 613.695 149.268 613.695 150.988C613.695 152.708 615.452 154.103 617.619 154.103Z" fill="#277BF9"/>
<path opacity="0.59" d="M359.947 162.149C362.114 162.149 363.871 160.755 363.871 159.035C363.871 157.314 362.114 155.92 359.947 155.92C357.78 155.92 356.023 157.314 356.023 159.035C356.023 160.755 357.78 162.149 359.947 162.149Z" fill="#277BF9"/>
<path opacity="0.59" d="M106.854 122.697C108.841 122.697 110.451 121.419 110.451 119.842C110.451 118.265 108.841 116.987 106.854 116.987C104.868 116.987 103.258 118.265 103.258 119.842C103.258 121.419 104.868 122.697 106.854 122.697Z" fill="#277BF9"/>
<path opacity="0.59" d="M251.713 797.282C254.783 797.282 257.272 795.306 257.272 792.869C257.272 790.432 254.783 788.457 251.713 788.457C248.643 788.457 246.154 790.432 246.154 792.869C246.154 795.306 248.643 797.282 251.713 797.282Z" fill="#277BF9"/>
<path opacity="0.59" d="M257.597 673.733C260.125 673.733 262.175 672.106 262.175 670.099C262.175 668.093 260.125 666.466 257.597 666.466C255.069 666.466 253.019 668.093 253.019 670.099C253.019 672.106 255.069 673.733 257.597 673.733Z" fill="#277BF9"/>
<path opacity="0.59" d="M160.807 581.851C163.155 581.851 165.058 580.34 165.058 578.477C165.058 576.613 163.155 575.103 160.807 575.103C158.46 575.103 156.556 576.613 156.556 578.477C156.556 580.34 158.46 581.851 160.807 581.851Z" fill="#277BF9"/>
<path opacity="0.59" d="M31.3176 504.762C33.3042 504.762 34.9145 503.484 34.9145 501.907C34.9145 500.33 33.3042 499.052 31.3176 499.052C29.3311 499.052 27.7207 500.33 27.7207 501.907C27.7207 503.484 29.3311 504.762 31.3176 504.762Z" fill="#277BF9"/>
<path opacity="0.59" d="M982.217 671.137C985.287 671.137 987.776 669.162 987.776 666.725C987.776 664.288 985.287 662.312 982.217 662.312C979.147 662.312 976.658 664.288 976.658 666.725C976.658 669.162 979.147 671.137 982.217 671.137Z" fill="#277BF9"/>
<path opacity="0.59" d="M699.366 503.724C702.075 503.724 704.271 501.981 704.271 499.831C704.271 497.681 702.075 495.938 699.366 495.938C696.657 495.938 694.461 497.681 694.461 499.831C694.461 501.981 696.657 503.724 699.366 503.724Z" fill="#277BF9"/>
<path opacity="0.59" d="M425.673 386.405C428.202 386.405 430.251 384.778 430.251 382.771C430.251 380.765 428.202 379.138 425.673 379.138C423.145 379.138 421.095 380.765 421.095 382.771C421.095 384.778 423.145 386.405 425.673 386.405Z" fill="#277BF9"/>
<path opacity="0.59" d="M173.561 283.881C175.909 283.881 177.812 282.37 177.812 280.507C177.812 278.643 175.909 277.132 173.561 277.132C171.214 277.132 169.31 278.643 169.31 280.507C169.31 282.37 171.214 283.881 173.561 283.881Z" fill="#277BF9"/>
<path opacity="0.59" d="M1126.75 235.085C1129.46 235.085 1131.65 233.341 1131.65 231.191C1131.65 229.041 1129.46 227.298 1126.75 227.298C1124.04 227.298 1121.84 229.041 1121.84 231.191C1121.84 233.341 1124.04 235.085 1126.75 235.085Z" fill="#277BF9"/>
<path opacity="0.59" d="M804.659 158.775C807.367 158.775 809.563 157.032 809.563 154.882C809.563 152.731 807.367 150.988 804.659 150.988C801.95 150.988 799.754 152.731 799.754 154.882C799.754 157.032 801.95 158.775 804.659 158.775Z" fill="#277BF9"/>
<path opacity="0.59" d="M526.059 78.0535C528.768 78.0535 530.964 76.3104 530.964 74.1602C530.964 72.01 528.768 70.2668 526.059 70.2668C523.35 70.2668 521.154 72.01 521.154 74.1602C521.154 76.3104 523.35 78.0535 526.059 78.0535Z" fill="#277BF9"/>
</g>
</g>
<g filter="url(#filter0_f_204_19)">
<circle cx="94.0713" cy="607.407" r="215.329" fill="#0A55FF"/>
</g>
<g filter="url(#filter1_f_204_19)">
<circle cx="1525.6" cy="377.5" r="371.5" fill="#0A55FF"/>
</g>
<g opacity="0.9" filter="url(#filter2_f_204_19)">
<circle cx="1235.6" cy="97.5" r="371.5" fill="#AB42B5"/>
</g>
<g opacity="0.7" filter="url(#filter3_f_204_19)">
<circle cx="134.043" cy="488.877" r="232.5" fill="#D13FBA"/>
</g>
<defs>
<filter id="filter0_f_204_19" x="-421.258" y="92.0781" width="1030.66" height="1030.66" filterUnits="userSpaceOnUse" color-interpolation-filters="sRGB">
<feFlood flood-opacity="0" result="BackgroundImageFix"/>
<feBlend mode="normal" in="SourceGraphic" in2="BackgroundImageFix" result="shape"/>
<feGaussianBlur stdDeviation="150" result="effect1_foregroundBlur_204_19"/>
</filter>
<filter id="filter1_f_204_19" x="754.098" y="-394" width="1543" height="1543" filterUnits="userSpaceOnUse" color-interpolation-filters="sRGB">
<feFlood flood-opacity="0" result="BackgroundImageFix"/>
<feBlend mode="normal" in="SourceGraphic" in2="BackgroundImageFix" result="shape"/>
<feGaussianBlur stdDeviation="200" result="effect1_foregroundBlur_204_19"/>
</filter>
<filter id="filter2_f_204_19" x="464.098" y="-674" width="1543" height="1543" filterUnits="userSpaceOnUse" color-interpolation-filters="sRGB">
<feFlood flood-opacity="0" result="BackgroundImageFix"/>
<feBlend mode="normal" in="SourceGraphic" in2="BackgroundImageFix" result="shape"/>
<feGaussianBlur stdDeviation="200" result="effect1_foregroundBlur_204_19"/>
</filter>
<filter id="filter3_f_204_19" x="-348.457" y="6.37695" width="965" height="965" filterUnits="userSpaceOnUse" color-interpolation-filters="sRGB">
<feFlood flood-opacity="0" result="BackgroundImageFix"/>
<feBlend mode="normal" in="SourceGraphic" in2="BackgroundImageFix" result="shape"/>
<feGaussianBlur stdDeviation="125" result="effect1_foregroundBlur_204_19"/>
</filter>
<radialGradient id="paint0_radial_204_19" cx="0" cy="0" r="1" gradientUnits="userSpaceOnUse" gradientTransform="translate(334.808 363.017) scale(596.876 473.778)">
<stop offset="0.1436" stop-color="#1C1C1C"/>
<stop offset="0.2152" stop-color="#262626"/>
<stop offset="0.3384" stop-color="#424242"/>
<stop offset="0.4984" stop-color="#6F6F6F"/>
<stop offset="0.6888" stop-color="#ADADAD"/>
<stop offset="0.903" stop-color="#FCFCFC"/>
<stop offset="0.9109" stop-color="white"/>
</radialGradient>
</defs>
</svg>
