<svg width="472" height="274" viewBox="0 0 472 274" fill="none" xmlns="http://www.w3.org/2000/svg">
<g clip-path="url(#clip0_70_596)">
<path d="M76.2483 59.9243C76.2466 58.3792 76.1203 56.8368 75.8707 55.3119L83.5163 49.1202L74.8639 34.1908L65.6765 37.6403C63.2763 35.676 60.5717 34.1155 57.6691 33.02L56.0959 23.3159H38.791L37.2179 33.02C34.3454 34.1233 31.6705 35.6835 29.297 37.6403L20.086 34.1515L11.4336 49.0809L19.0713 55.3119C18.579 58.3699 18.579 61.4867 19.0713 64.5446L11.4415 70.7364L20.0939 85.6658L29.297 82.1848C31.6944 84.1489 34.3964 85.7095 37.2965 86.8051L38.8697 96.5092H56.1746L57.7478 86.8051C60.6504 85.7096 63.3549 84.1491 65.7552 82.1848L74.9425 85.705L83.595 70.7757L75.9493 64.5839C76.1744 63.0413 76.2744 61.483 76.2483 59.9243ZM67.2104 58.3528C67.5461 62.3903 66.6325 66.4333 64.5932 69.9351C62.5538 73.437 59.4871 76.2288 55.8077 77.9329C52.1283 79.637 48.0138 80.1712 44.0206 79.4633C40.0274 78.7554 36.3482 76.8396 33.4804 73.9748C30.6127 71.1101 28.6948 67.4347 27.9862 63.4457C27.2775 59.4567 27.8123 55.3466 29.5182 51.6711C31.2241 47.9956 34.0188 44.9321 37.5244 42.8949C41.0299 40.8577 45.0772 39.945 49.1189 40.2804C53.7819 40.6683 58.1568 42.6927 61.4683 45.995C64.7798 49.2973 66.814 53.664 67.2104 58.3214V58.3528Z" fill="url(#paint0_linear_70_596)"/>
<path d="M50.1692 57.8501H335.582C336.625 57.8501 337.625 58.264 338.363 59.0008C339.1 59.7376 339.515 60.7369 339.515 61.7789V260.065H46.2441V61.771C46.2462 60.7318 46.6604 59.7357 47.3961 59.0008C48.1317 58.2659 49.1289 57.8522 50.1692 57.8501Z" fill="url(#paint1_linear_70_596)"/>
<path d="M333.214 66.2573V242.62H52.5371V66.2573C52.5361 65.9794 52.5901 65.7041 52.6961 65.4472C52.802 65.1902 52.9579 64.9568 53.1545 64.7603C53.3512 64.5639 53.5849 64.4082 53.8421 64.3023C54.0993 64.1965 54.3749 64.1425 54.653 64.1436H331.099C331.66 64.1436 332.198 64.3663 332.595 64.7627C332.992 65.159 333.214 65.6967 333.214 66.2573Z" fill="url(#paint2_linear_70_596)"/>
<path d="M12.3197 260.064H373.433C374.326 260.064 375.182 260.418 375.814 261.049C376.445 261.68 376.8 262.535 376.8 263.427V269.587H8.95312V263.427C8.95312 262.535 9.30782 261.68 9.93918 261.049C10.5705 260.418 11.4268 260.064 12.3197 260.064Z" fill="url(#paint3_linear_70_596)"/>
<path d="M359.574 273.611H26.1481C24.4102 273.609 22.6803 273.377 21.0038 272.919L8.92188 269.588H376.8L364.718 272.919C363.042 273.377 361.312 273.609 359.574 273.611Z" fill="url(#paint4_linear_70_596)"/>
<path d="M151.105 260.064H234.649V262.233C234.649 263.066 234.317 263.866 233.727 264.455C233.137 265.045 232.337 265.376 231.502 265.376H154.26C153.425 265.376 152.625 265.045 152.035 264.455C151.445 263.866 151.113 263.066 151.113 262.233V260.064H151.105Z" fill="url(#paint5_linear_70_596)"/>
<path style="mix-blend-mode:multiply" opacity="0.5" d="M122.413 112.279H75.218C70.8303 112.279 67.2734 115.832 67.2734 120.215V220.478C67.2734 224.861 70.8303 228.414 75.218 228.414H122.413C126.801 228.414 130.358 224.861 130.358 220.478V120.215C130.358 115.832 126.801 112.279 122.413 112.279Z" fill="url(#paint6_linear_70_596)"/>
<path style="mix-blend-mode:multiply" opacity="0.5" d="M290.92 113.261H153.339C148.182 113.261 144.002 117.437 144.002 122.588V188.136C144.002 193.287 148.182 197.463 153.339 197.463H290.92C296.077 197.463 300.257 193.287 300.257 188.136V122.588C300.257 117.437 296.077 113.261 290.92 113.261Z" fill="url(#paint7_linear_70_596)"/>
<path style="mix-blend-mode:multiply" opacity="0.5" d="M300.257 218.992V242.62H143.994V218.992C144.05 217.007 144.892 215.124 146.336 213.759C147.78 212.393 149.707 211.655 151.695 211.708H292.564C294.551 211.658 296.476 212.396 297.918 213.761C299.361 215.127 300.202 217.008 300.257 218.992Z" fill="url(#paint8_linear_70_596)"/>
<g style="mix-blend-mode:multiply" opacity="0.5">
<path d="M218.909 90.3482H188.099C187.659 90.3482 187.223 90.2616 186.817 90.0934C186.41 89.9252 186.041 89.6786 185.729 89.3678C185.418 89.057 185.172 88.688 185.003 88.2819C184.835 87.8758 184.748 87.4405 184.748 87.0009C184.748 86.1131 185.101 85.2617 185.729 84.634C186.358 84.0062 187.21 83.6536 188.099 83.6536H218.909C219.35 83.6525 219.787 83.7384 220.194 83.9061C220.602 84.0739 220.972 84.3203 221.284 84.6312C221.596 84.9421 221.843 85.3115 222.012 85.7181C222.181 86.1247 222.268 86.5607 222.268 87.0009C222.268 87.4411 222.181 87.8771 222.012 88.2837C221.843 88.6903 221.596 89.0597 221.284 89.3706C220.972 89.6815 220.602 89.9279 220.194 90.0957C219.787 90.2634 219.35 90.3493 218.909 90.3482Z" fill="url(#paint9_linear_70_596)"/>
<path d="M268.739 90.3482H237.929C237.488 90.3493 237.052 90.2634 236.644 90.0957C236.237 89.9279 235.866 89.6815 235.554 89.3706C235.242 89.0597 234.995 88.6903 234.826 88.2837C234.657 87.8771 234.57 87.4411 234.57 87.0009C234.57 86.5607 234.657 86.1247 234.826 85.7181C234.995 85.3115 235.242 84.9421 235.554 84.6312C235.866 84.3203 236.237 84.0739 236.644 83.9061C237.052 83.7384 237.488 83.6525 237.929 83.6536H268.739C269.628 83.6536 270.48 84.0062 271.109 84.634C271.737 85.2617 272.09 86.1131 272.09 87.0009C272.09 87.4405 272.004 87.8758 271.835 88.2819C271.667 88.688 271.42 89.057 271.109 89.3678C270.798 89.6786 270.428 89.9252 270.022 90.0934C269.615 90.2616 269.179 90.3482 268.739 90.3482Z" fill="url(#paint10_linear_70_596)"/>
<path d="M317.702 90.3482H286.892C286.452 90.3482 286.016 90.2616 285.61 90.0934C285.203 89.9252 284.834 89.6786 284.522 89.3678C284.211 89.057 283.964 88.688 283.796 88.2819C283.628 87.8758 283.541 87.4405 283.541 87.0009C283.541 86.1131 283.894 85.2617 284.522 84.634C285.151 84.0062 286.003 83.6536 286.892 83.6536H317.702C318.143 83.6525 318.58 83.7384 318.987 83.9061C319.395 84.0739 319.765 84.3203 320.077 84.6312C320.389 84.9421 320.636 85.3115 320.805 85.7181C320.974 86.1247 321.061 86.5607 321.061 87.0009C321.061 87.4411 320.974 87.8771 320.805 88.2837C320.636 88.6903 320.389 89.0597 320.077 89.3706C319.765 89.6815 319.395 89.9279 318.987 90.0957C318.58 90.2634 318.143 90.3493 317.702 90.3482Z" fill="url(#paint11_linear_70_596)"/>
</g>
<path d="M386.699 41.0029H322.049C312.648 41.0029 305.027 48.6158 305.027 58.0067V205.863C305.027 215.254 312.648 222.866 322.049 222.866H386.699C396.099 222.866 403.72 215.254 403.72 205.863V58.0067C403.72 48.6158 396.099 41.0029 386.699 41.0029Z" fill="url(#paint12_linear_70_596)"/>
<path style="mix-blend-mode:screen" d="M386.691 41.0029H322.049C317.535 41.0029 313.205 42.7944 310.013 45.9832C306.821 49.1721 305.027 53.497 305.027 58.0067V205.863C305.027 210.372 306.821 214.697 310.013 217.886C313.205 221.075 317.535 222.866 322.049 222.866H386.691C391.205 222.866 395.535 221.075 398.727 217.886C401.919 214.697 403.712 210.372 403.712 205.863V58.0067C403.712 53.497 401.919 49.1721 398.727 45.9832C395.535 42.7944 391.205 41.0029 386.691 41.0029ZM401.353 205.863C401.348 209.746 399.802 213.469 397.054 216.215C394.305 218.961 390.578 220.505 386.691 220.509H322.049C318.162 220.505 314.435 218.961 311.686 216.215C308.937 213.469 307.391 209.746 307.387 205.863V58.0067C307.391 54.1235 308.937 50.4005 311.686 47.6547C314.435 44.9088 318.162 43.3644 322.049 43.3602H386.691C390.578 43.3644 394.305 44.9088 397.054 47.6547C399.802 50.4005 401.348 54.1235 401.353 58.0067V205.863Z" fill="url(#paint13_linear_70_596)"/>
<path d="M398.986 205.862V58.0061C398.986 51.2189 393.478 45.7168 386.684 45.7168L322.043 45.7168C315.248 45.7168 309.74 51.2189 309.74 58.0061V205.862C309.74 212.649 315.248 218.151 322.043 218.151H386.684C393.478 218.151 398.986 212.649 398.986 205.862Z" fill="url(#paint14_linear_70_596)"/>
<path style="mix-blend-mode:screen" d="M386.684 45.7168H322.042C318.78 45.7168 315.651 47.0116 313.343 49.3162C311.036 51.6209 309.74 54.7467 309.74 58.006V205.862C309.74 209.121 311.036 212.247 313.343 214.552C315.651 216.856 318.78 218.151 322.042 218.151H386.684C389.947 218.151 393.076 216.856 395.383 214.552C397.69 212.247 398.986 209.121 398.986 205.862V58.006C398.986 54.7467 397.69 51.6209 395.383 49.3162C393.076 47.0116 389.947 45.7168 386.684 45.7168ZM396.626 205.862C396.624 208.495 395.576 211.02 393.712 212.883C391.848 214.745 389.32 215.792 386.684 215.794H322.042C319.406 215.792 316.878 214.745 315.014 212.883C313.15 211.02 312.102 208.495 312.1 205.862V58.006C312.102 55.3726 313.15 52.8475 315.014 50.9854C316.878 49.1232 319.406 48.0761 322.042 48.0741H386.684C389.32 48.0761 391.848 49.1232 393.712 50.9854C395.576 52.8475 396.624 55.3726 396.626 58.006V205.862Z" fill="url(#paint15_linear_70_596)"/>
<path d="M403.709 82.2158H404.566C404.659 82.2158 404.751 82.2341 404.837 82.2696C404.923 82.3052 405.001 82.3573 405.067 82.4229C405.133 82.4886 405.185 82.5666 405.22 82.6524C405.256 82.7382 405.274 82.8301 405.274 82.923V100.642C405.274 100.829 405.2 101.009 405.067 101.142C404.934 101.274 404.754 101.349 404.566 101.349H403.709V82.2158Z" fill="url(#paint16_linear_70_596)"/>
<path d="M305.027 101.35H304.17C304.077 101.35 303.985 101.331 303.899 101.296C303.813 101.26 303.735 101.208 303.669 101.142C303.604 101.077 303.551 100.999 303.516 100.913C303.48 100.827 303.462 100.735 303.462 100.642V82.9236C303.462 82.7361 303.537 82.5562 303.669 82.4236C303.802 82.2909 303.982 82.2164 304.17 82.2164H305.027V101.35Z" fill="url(#paint17_linear_70_596)"/>
<path d="M403.709 103.699H404.566C404.754 103.699 404.934 103.773 405.067 103.906C405.2 104.038 405.274 104.218 405.274 104.406V122.125C405.274 122.218 405.256 122.31 405.22 122.395C405.185 122.481 405.133 122.559 405.067 122.625C405.001 122.69 404.923 122.743 404.837 122.778C404.751 122.814 404.659 122.832 404.566 122.832H403.709V103.699Z" fill="url(#paint18_linear_70_596)"/>
<path d="M330.123 75.2538C329.685 75.3008 329.243 75.2425 328.832 75.084C328.422 74.9254 328.055 74.6711 327.763 74.3423C327.283 73.6292 327.046 72.7806 327.087 71.9222V64.1196H329.549V71.9772C329.519 72.194 329.543 72.4147 329.619 72.6201C329.694 72.8255 329.818 73.0094 329.981 73.1558C330.296 73.3601 330.667 73.4617 331.043 73.4466H334.976C335.36 73.4683 335.74 73.3664 336.061 73.1558C336.227 73.0143 336.354 72.8339 336.433 72.6309C336.511 72.4279 336.537 72.2087 336.51 71.9929V64.1353H338.972V71.9379C338.984 72.5342 338.888 73.1278 338.689 73.6902C338.517 74.1697 338.19 74.5787 337.76 74.8531C337.208 75.1585 336.582 75.3028 335.951 75.2695L330.123 75.2538Z" fill="#F5F7F9"/>
<path d="M341.631 75.0655V64.1199H344.093V75.0655H341.631Z" fill="#F5F7F9"/>
<path d="M345.959 76.5581L350.781 64.2374L351.009 63.2866H353.447L348.649 75.6466L348.429 76.5581H345.959Z" fill="#F5F7F9"/>
<path d="M358.088 75.2543C357.65 75.3026 357.207 75.2449 356.796 75.0863C356.386 74.9277 356.019 74.6727 355.728 74.3428C355.248 73.6297 355.011 72.781 355.051 71.9227V64.1201H357.513V71.9777C357.485 72.1937 357.509 72.4134 357.583 72.6185C357.657 72.8235 357.778 73.0079 357.938 73.1563C358.254 73.3587 358.625 73.4601 359 73.4471H362.933C363.305 73.4553 363.67 73.3483 363.979 73.1406C364.144 72.9991 364.272 72.8187 364.35 72.6157C364.429 72.4127 364.455 72.1935 364.427 71.9777V64.1201H366.889V71.9227C366.901 72.519 366.805 73.1126 366.606 73.6749C366.431 74.1525 366.105 74.5604 365.678 74.8378C365.126 75.1425 364.499 75.2868 363.869 75.2543H358.088Z" fill="#F5F7F9"/>
<path d="M368.312 75.0654L369.02 73.9496L373.158 69.5965L368.312 64.0962H371.294L374.888 68.2136H375.093L378.711 64.0962H381.684L380.898 65.2198L376.784 69.5965L381.629 75.0968H378.648L375.03 70.948H374.825L371.231 75.0968L368.312 75.0654Z" fill="#F5F7F9"/>
<path style="mix-blend-mode:multiply" opacity="0.5" d="M385.435 88.4705H323.295C320.945 88.4705 319.039 90.3737 319.039 92.7214V131.829C319.039 134.176 320.945 136.079 323.295 136.079H385.435C387.785 136.079 389.69 134.176 389.69 131.829V92.7214C389.69 90.3737 387.785 88.4705 385.435 88.4705Z" fill="url(#paint19_linear_70_596)"/>
<path style="mix-blend-mode:multiply" opacity="0.5" d="M348.341 148.572H323.665C322.778 148.564 321.93 148.206 321.305 147.576C320.681 146.947 320.33 146.096 320.33 145.209C320.332 144.319 320.688 143.465 321.319 142.836C321.95 142.207 322.805 141.854 323.697 141.854H348.372C349.264 141.854 350.119 142.207 350.75 142.836C351.381 143.465 351.737 144.319 351.739 145.209C351.739 145.654 351.651 146.094 351.479 146.504C351.308 146.914 351.058 147.286 350.742 147.599C350.426 147.911 350.051 148.158 349.639 148.326C349.227 148.493 348.785 148.577 348.341 148.572Z" fill="url(#paint20_linear_70_596)"/>
<g style="mix-blend-mode:screen">
<path d="M345.359 157.499H321.597C321.252 157.499 320.922 157.363 320.679 157.12C320.436 156.876 320.299 156.547 320.299 156.203C320.299 155.859 320.436 155.529 320.679 155.286C320.922 155.043 321.252 154.906 321.597 154.906H345.359C345.704 154.906 346.034 155.043 346.277 155.286C346.521 155.529 346.657 155.859 346.657 156.203C346.657 156.373 346.624 156.542 346.559 156.699C346.493 156.856 346.398 156.999 346.277 157.12C346.157 157.24 346.014 157.335 345.856 157.401C345.699 157.466 345.53 157.499 345.359 157.499Z" fill="url(#paint21_linear_70_596)"/>
<path d="M374.896 163.659H321.597C321.427 163.66 321.258 163.628 321.101 163.564C320.943 163.499 320.8 163.404 320.679 163.285C320.559 163.165 320.463 163.023 320.398 162.866C320.332 162.709 320.299 162.541 320.299 162.371C320.299 162.027 320.436 161.697 320.679 161.454C320.922 161.211 321.252 161.074 321.597 161.074H374.896C375.066 161.074 375.234 161.108 375.391 161.173C375.548 161.238 375.691 161.334 375.811 161.454C375.931 161.575 376.025 161.718 376.09 161.875C376.154 162.032 376.187 162.201 376.186 162.371C376.187 162.54 376.154 162.708 376.09 162.865C376.025 163.022 375.93 163.164 375.81 163.284C375.69 163.404 375.548 163.499 375.391 163.563C375.234 163.628 375.065 163.66 374.896 163.659Z" fill="url(#paint22_linear_70_596)"/>
<path d="M374.896 170.197H321.597C321.427 170.198 321.258 170.165 321.101 170.101C320.943 170.037 320.8 169.942 320.679 169.822C320.559 169.703 320.463 169.56 320.398 169.403C320.332 169.246 320.299 169.078 320.299 168.908C320.299 168.564 320.436 168.235 320.679 167.992C320.922 167.748 321.252 167.612 321.597 167.612H374.896C375.066 167.612 375.234 167.645 375.391 167.711C375.548 167.776 375.691 167.872 375.811 167.992C375.931 168.113 376.025 168.255 376.09 168.413C376.154 168.57 376.187 168.738 376.186 168.908C376.187 169.078 376.154 169.246 376.09 169.403C376.025 169.559 375.93 169.702 375.81 169.822C375.69 169.942 375.548 170.037 375.391 170.101C375.234 170.165 375.065 170.198 374.896 170.197Z" fill="url(#paint23_linear_70_596)"/>
<path d="M367.321 176.554H321.597C321.252 176.554 320.922 176.417 320.679 176.174C320.436 175.931 320.299 175.601 320.299 175.257C320.299 174.913 320.436 174.584 320.679 174.34C320.922 174.097 321.252 173.961 321.597 173.961H367.321C367.665 173.961 367.995 174.097 368.239 174.34C368.482 174.584 368.619 174.913 368.619 175.257C368.619 175.601 368.482 175.931 368.239 176.174C367.995 176.417 367.665 176.554 367.321 176.554Z" fill="url(#paint24_linear_70_596)"/>
</g>
<path style="mix-blend-mode:screen" d="M346.093 95.6919H330.59C328.522 95.6919 326.846 97.3664 326.846 99.4321V114.919C326.846 116.985 328.522 118.66 330.59 118.66H346.093C348.161 118.66 349.838 116.985 349.838 114.919V99.4321C349.838 97.3664 348.161 95.6919 346.093 95.6919Z" fill="url(#paint25_linear_70_596)"/>
<path style="mix-blend-mode:screen" d="M380.763 96.6738H355.537C354.916 96.6738 354.412 97.1769 354.412 97.7975V100.728C354.412 101.349 354.916 101.852 355.537 101.852H380.763C381.384 101.852 381.888 101.349 381.888 100.728V97.7975C381.888 97.1769 381.384 96.6738 380.763 96.6738Z" fill="url(#paint26_linear_70_596)"/>
<path style="mix-blend-mode:screen" d="M380.763 106.197H355.537C354.916 106.197 354.412 106.698 354.412 107.316C354.412 107.935 354.916 108.436 355.537 108.436H380.763C381.384 108.436 381.888 107.935 381.888 107.316C381.888 106.698 381.384 106.197 380.763 106.197Z" fill="url(#paint27_linear_70_596)"/>
<path style="mix-blend-mode:screen" d="M375.854 113.128H355.529C355.232 113.126 354.948 113.006 354.739 112.796C354.53 112.585 354.412 112.301 354.412 112.004C354.414 111.709 354.533 111.426 354.742 111.217C354.951 111.008 355.233 110.89 355.529 110.888H375.854C376.151 110.888 376.436 111.005 376.647 111.215C376.858 111.424 376.977 111.707 376.979 112.004C376.979 112.302 376.861 112.588 376.65 112.798C376.439 113.009 376.153 113.128 375.854 113.128Z" fill="url(#paint28_linear_70_596)"/>
<path style="mix-blend-mode:multiply" opacity="0.5" d="M381.883 122.997H326.846V128.128H381.883V122.997Z" fill="url(#paint29_linear_70_596)"/>
<path style="mix-blend-mode:multiply" opacity="0.5" d="M385.946 183.963H322.783C320.716 183.963 319.039 185.638 319.039 187.703V199.828C319.039 201.893 320.716 203.568 322.783 203.568H385.946C388.014 203.568 389.69 201.893 389.69 199.828V187.703C389.69 185.638 388.014 183.963 385.946 183.963Z" fill="url(#paint30_linear_70_596)"/>
<path style="mix-blend-mode:multiply" opacity="0.5" d="M343.482 188.536H336.851C335.791 188.536 334.932 189.395 334.932 190.453V197.077C334.932 198.136 335.791 198.995 336.851 198.995H343.482C344.542 198.995 345.401 198.136 345.401 197.077V190.453C345.401 189.395 344.542 188.536 343.482 188.536Z" fill="url(#paint31_linear_70_596)"/>
<path style="mix-blend-mode:screen" d="M358.181 187.453H350.174C348.897 187.453 347.861 188.487 347.861 189.763V197.762C347.861 199.038 348.897 200.072 350.174 200.072H358.181C359.459 200.072 360.494 199.038 360.494 197.762V189.763C360.494 188.487 359.459 187.453 358.181 187.453Z" fill="url(#paint32_linear_70_596)"/>
<path style="mix-blend-mode:multiply" opacity="0.5" d="M371.892 188.536H365.261C364.201 188.536 363.342 189.395 363.342 190.453V197.077C363.342 198.136 364.201 198.995 365.261 198.995H371.892C372.952 198.995 373.811 198.136 373.811 197.077V190.453C373.811 189.395 372.952 188.536 371.892 188.536Z" fill="url(#paint33_linear_70_596)"/>
<path style="mix-blend-mode:screen" d="M381.451 197.462C381.318 197.465 381.189 197.417 381.089 197.329C380.978 197.232 380.91 197.095 380.899 196.947C380.889 196.8 380.937 196.655 381.034 196.543L383.182 194.084C383.193 194.071 383.2 194.054 383.2 194.037C383.2 194.019 383.193 194.002 383.182 193.989L380.712 191.852C380.657 191.805 380.612 191.747 380.58 191.682C380.547 191.617 380.528 191.547 380.523 191.475C380.518 191.402 380.527 191.33 380.55 191.261C380.573 191.192 380.609 191.129 380.657 191.074C380.704 191.02 380.762 190.975 380.827 190.942C380.892 190.91 380.962 190.891 381.035 190.886C381.107 190.881 381.179 190.89 381.248 190.913C381.317 190.936 381.381 190.972 381.435 191.019L383.905 193.164C384.138 193.363 384.283 193.644 384.31 193.949C384.336 194.253 384.242 194.556 384.047 194.791L381.907 197.25C381.853 197.319 381.784 197.374 381.704 197.411C381.625 197.447 381.538 197.465 381.451 197.462Z" fill="url(#paint34_linear_70_596)"/>
<path style="mix-blend-mode:screen" d="M327.284 190.862C327.416 190.863 327.545 190.91 327.646 190.996C327.702 191.043 327.748 191.102 327.781 191.167C327.814 191.233 327.834 191.304 327.839 191.377C327.844 191.45 327.834 191.524 327.811 191.593C327.787 191.663 327.749 191.727 327.701 191.782L325.553 194.249C325.544 194.261 325.538 194.277 325.538 194.292C325.538 194.308 325.544 194.323 325.553 194.335L328.023 196.473C328.134 196.57 328.203 196.707 328.213 196.854C328.223 197.001 328.175 197.147 328.078 197.258C328.031 197.314 327.972 197.36 327.907 197.394C327.841 197.427 327.77 197.446 327.696 197.452C327.623 197.457 327.55 197.447 327.48 197.423C327.41 197.4 327.346 197.362 327.292 197.313L324.822 195.168C324.707 195.068 324.613 194.947 324.545 194.811C324.477 194.674 324.437 194.526 324.426 194.374C324.416 194.222 324.436 194.07 324.485 193.926C324.534 193.781 324.611 193.648 324.712 193.534L326.859 191.067C326.909 191.002 326.973 190.95 327.047 190.914C327.121 190.879 327.202 190.861 327.284 190.862Z" fill="url(#paint35_linear_70_596)"/>
<g style="mix-blend-mode:screen" filter="url(#filter0_d_70_596)">
<path d="M73.657 106.794H23.1818C15.6967 106.794 9.62891 112.855 9.62891 120.333V204.629C9.62891 212.106 15.6967 218.167 23.1818 218.167H73.657C81.142 218.167 87.2098 212.106 87.2098 204.629V120.333C87.2098 112.855 81.142 106.794 73.657 106.794Z" fill="url(#paint36_linear_70_596)" style="mix-blend-mode:screen"/>
</g>
<path style="mix-blend-mode:screen" d="M73.657 106.794H23.1818C15.6967 106.794 9.62891 112.855 9.62891 120.333V204.629C9.62891 212.106 15.6967 218.167 23.1818 218.167H73.657C81.142 218.167 87.2098 212.106 87.2098 204.629V120.333C87.2098 112.855 81.142 106.794 73.657 106.794Z" fill="url(#paint37_linear_70_596)"/>
<path style="mix-blend-mode:multiply" d="M83.2793 204.636V120.34C83.2793 115.033 78.9723 110.73 73.6594 110.73H23.1842C17.8712 110.73 13.5642 115.033 13.5642 120.34V204.636C13.5642 209.944 17.8712 214.246 23.1842 214.246H73.6594C78.9723 214.246 83.2793 209.944 83.2793 204.636Z" fill="url(#paint38_linear_70_596)"/>
<g style="mix-blend-mode:multiply" opacity="0.49">
<path d="M70.7767 184.577H25.493C23.8575 184.577 22.2889 183.927 21.1324 182.772C19.9759 181.617 19.3262 180.05 19.3262 178.416C19.3262 176.782 19.9759 175.215 21.1324 174.06C22.2889 172.905 23.8575 172.256 25.493 172.256H70.7767C72.4123 172.256 73.9808 172.905 75.1373 174.06C76.2938 175.215 76.9436 176.782 76.9436 178.416C76.9436 180.05 76.2938 181.617 75.1373 182.772C73.9808 183.927 72.4123 184.577 70.7767 184.577Z" fill="#3F3DB4"/>
</g>
<g style="mix-blend-mode:multiply" opacity="0.49">
<path d="M70.7767 202.649H25.493C23.8575 202.649 22.2889 202 21.1324 200.845C19.9759 199.69 19.3262 198.123 19.3262 196.489C19.3262 194.855 19.9759 193.288 21.1324 192.133C22.2889 190.978 23.8575 190.329 25.493 190.329H70.7767C72.4123 190.329 73.9808 190.978 75.1373 192.133C76.2938 193.288 76.9436 194.855 76.9436 196.489C76.9436 198.123 76.2938 199.69 75.1373 200.845C73.9808 202 72.4123 202.649 70.7767 202.649Z" fill="#3F3DB4"/>
</g>
<g filter="url(#filter1_d_70_596)">
<path d="M72.8728 121.339H23.1606C20.4237 121.339 18.2051 123.556 18.2051 126.29V158.404C18.2051 161.137 20.4237 163.354 23.1606 163.354H72.8728C75.6096 163.354 77.8283 161.137 77.8283 158.404V126.29C77.8283 123.556 75.6096 121.339 72.8728 121.339Z" fill="url(#paint39_linear_70_596)"/>
<path d="M65.0676 143.199C64.1013 143.279 63.1364 143.03 62.3302 142.492C62.0249 142.203 61.7891 141.848 61.6406 141.455C61.4921 141.061 61.4347 140.64 61.4729 140.221V139.922C61.4665 139.403 61.5711 138.889 61.7796 138.414C62.002 137.94 62.3717 137.552 62.8337 137.306C63.4726 136.998 64.1783 136.855 64.8866 136.889H65.9249V135.734H67.7892V136.889H69.0162C69.7028 136.877 70.3893 136.919 71.0692 137.015C71.5936 137.104 71.8558 137.199 71.8558 137.298L71.4861 138.87C71.2344 138.87 70.7546 138.807 70.0309 138.767C69.3073 138.728 68.4027 138.705 67.3093 138.705L66.2632 138.657H65.4766C65.2703 138.63 65.0606 138.647 64.8613 138.706C64.662 138.766 64.4776 138.867 64.3203 139.003C64.1163 139.245 64.0048 139.551 64.0057 139.867V140.182C63.9923 140.35 64.0155 140.52 64.0739 140.678C64.1323 140.837 64.2244 140.981 64.3439 141.101C64.6785 141.335 65.0853 141.444 65.4923 141.408H68.5128C69.1972 141.396 69.8799 141.478 70.5422 141.651C71.0417 141.796 71.4753 142.11 71.7693 142.539C72.1057 143.108 72.262 143.765 72.2176 144.425V144.723C72.2568 145.536 72.0028 146.337 71.5018 146.979C71.1739 147.292 70.7819 147.531 70.3529 147.679C69.9238 147.826 69.4679 147.88 69.0162 147.835H67.7892V148.951H65.9249V147.835H63.9034C63.2797 147.851 62.6559 147.812 62.0392 147.717C61.638 147.646 61.4414 147.56 61.4414 147.458L62.228 145.839C62.401 145.839 62.8415 145.902 63.5573 145.949C64.2731 145.996 65.2406 146.028 66.452 146.028H67.4981H68.2847C68.6847 146.066 69.0856 145.964 69.4174 145.737C69.5412 145.609 69.6356 145.455 69.6941 145.287C69.7525 145.119 69.7735 144.94 69.7556 144.763V144.393C69.7874 144.058 69.6888 143.723 69.4803 143.458C69.1265 143.229 68.7032 143.132 68.2847 143.183L65.0676 143.199Z" fill="#F5F7F9"/>
<path d="M43.8661 133.008H27.3478C26.7219 133.008 26.1217 132.759 25.6792 132.317C25.2367 131.875 24.988 131.275 24.988 130.65C24.988 130.025 25.2367 129.425 25.6792 128.983C26.1217 128.541 26.7219 128.293 27.3478 128.293H43.8661C44.4919 128.293 45.0922 128.541 45.5347 128.983C45.9772 129.425 46.2258 130.025 46.2258 130.65C46.2258 131.275 45.9772 131.875 45.5347 132.317C45.0922 132.759 44.4919 133.008 43.8661 133.008Z" fill="url(#paint40_linear_70_596)"/>
<g style="mix-blend-mode:multiply" opacity="0.5">
<path d="M45.5499 139.003H24.9414V140.897H45.5499V139.003Z" fill="#B84374"/>
</g>
<g style="mix-blend-mode:multiply" opacity="0.5">
<path d="M52.9045 143.906H24.9414V145.8H52.9045V143.906Z" fill="#B84374"/>
</g>
<g style="mix-blend-mode:multiply" opacity="0.5">
<path d="M52.9045 148.801H24.9414V150.695H52.9045V148.801Z" fill="#B84374"/>
</g>
<path d="M69.5843 159.731H58.8631C58.2686 159.731 57.6984 159.495 57.278 159.075C56.8575 158.655 56.6214 158.086 56.6214 157.492C56.6203 157.197 56.6775 156.905 56.7897 156.632C56.9019 156.36 57.0669 156.112 57.2752 155.903C57.4834 155.695 57.7309 155.529 58.0034 155.416C58.2759 155.303 58.5681 155.245 58.8631 155.245H69.5843C69.8793 155.245 70.1715 155.303 70.444 155.416C70.7165 155.529 70.964 155.695 71.1722 155.903C71.3805 156.112 71.5455 156.36 71.6577 156.632C71.7699 156.905 71.8271 157.197 71.8261 157.492C71.8261 158.086 71.5899 158.655 71.1695 159.075C70.749 159.495 70.1788 159.731 69.5843 159.731Z" fill="url(#paint41_linear_70_596)"/>
</g>
<g style="mix-blend-mode:screen" filter="url(#filter2_d_70_596)">
<path d="M286.123 88.054H194.494C189.111 88.054 184.748 92.4127 184.748 97.7895V151.339C184.748 156.716 189.111 161.074 194.494 161.074H286.123C291.506 161.074 295.869 156.716 295.869 151.339V97.7895C295.869 92.4127 291.506 88.054 286.123 88.054Z" fill="url(#paint42_linear_70_596)" style="mix-blend-mode:screen"/>
</g>
<path style="mix-blend-mode:screen" d="M286.312 88.054H194.305C189.027 88.054 184.748 92.3283 184.748 97.6009V151.527C184.748 156.8 189.027 161.074 194.305 161.074H286.312C291.59 161.074 295.869 156.8 295.869 151.527V97.6009C295.869 92.3283 291.59 88.054 286.312 88.054Z" fill="url(#paint43_linear_70_596)"/>
<path style="mix-blend-mode:multiply" d="M291.936 151.527V97.6006C291.936 94.4978 289.418 91.9824 286.311 91.9824H194.305C191.198 91.9824 188.68 94.4978 188.68 97.6006V151.527C188.68 154.63 191.198 157.145 194.305 157.145H286.311C289.418 157.145 291.936 154.63 291.936 151.527Z" fill="url(#paint44_linear_70_596)"/>
<path d="M282.781 142.641H207.355C204.621 142.639 201.999 141.553 200.066 139.622C198.132 137.69 197.045 135.071 197.043 132.34V101.35H198.616V132.34C198.618 134.655 199.54 136.874 201.178 138.51C202.816 140.147 205.038 141.068 207.355 141.07H282.781V142.641Z" fill="#F5F7F9"/>
<g filter="url(#filter3_d_70_596)">
<path d="M210.02 129.573C210.948 127.051 213.458 126.98 215.668 127.782C216.764 128.289 217.832 128.853 218.869 129.471C220.335 130.274 222.039 130.527 223.675 130.186C226.979 129.353 228.953 126.179 230.243 123.28C231.651 120.136 232.878 116.844 236.135 115.178C237.479 114.501 238.958 114.133 240.463 114.1C241.968 114.067 243.462 114.371 244.834 114.99C248.075 116.561 249.507 120.081 252.425 122.062C253.734 123.002 255.347 123.42 256.948 123.232C257.703 123.076 258.418 122.768 259.051 122.328C259.684 121.888 260.22 121.324 260.629 120.671C261.683 119.162 262.139 117.363 262.989 115.736C263.775 114.243 265.246 112.389 267.158 112.829C269.069 113.269 269.848 115.634 271.138 116.844C272.428 118.054 274.143 118.683 275.7 117.708C277.014 116.883 277.541 115.257 277.895 113.827C278.249 112.397 278.752 109.992 280.608 110.157C281.615 110.252 281.607 108.68 280.608 108.586C277.195 108.279 276.833 112.515 275.968 114.778C275.773 115.484 275.314 116.089 274.685 116.467C273.686 116.923 272.703 116.208 272.027 115.508C270.855 114.306 270.162 112.672 268.676 111.768C268.003 111.388 267.24 111.199 266.468 111.222C265.696 111.244 264.944 111.476 264.295 111.894C262.827 112.897 261.723 114.346 261.148 116.027C260.464 117.638 259.913 119.453 258.608 120.702C257.034 122.203 254.942 121.826 253.259 120.702C251.576 119.579 250.6 118.054 249.381 116.663C247.924 114.847 245.931 113.538 243.685 112.921C241.439 112.304 239.055 112.412 236.874 113.23C233.681 114.345 231.596 116.703 230.18 119.704C228.765 122.706 227.577 126.839 224.163 128.403C220.749 129.966 218.138 126.682 215.015 125.975C212.144 125.33 209.595 126.336 208.541 129.196C208.187 130.139 209.706 130.556 210.059 129.613L210.02 129.573Z" fill="#F5F7F9"/>
</g>
<g filter="url(#filter4_d_70_596)">
<path d="M210.757 116.38C213.471 115.32 216.303 116.813 218.151 118.816C220.22 121.071 221.439 123.955 223.311 126.36C224.884 128.442 227.181 130.288 229.871 130.658C232.561 131.027 234.858 129.715 236.597 127.845C238.602 125.684 239.743 122.887 241.615 120.647C242.56 119.512 243.728 118.582 245.047 117.917C246.367 117.252 247.809 116.865 249.284 116.78C250.76 116.695 252.237 116.915 253.624 117.425C255.011 117.934 256.278 118.724 257.347 119.743C259.478 121.771 260.595 124.599 262.656 126.697C263.526 127.64 264.614 128.355 265.825 128.781C267.036 129.207 268.332 129.331 269.602 129.141C270.806 128.968 271.94 128.47 272.881 127.7C273.822 126.93 274.535 125.917 274.943 124.772C275.328 123.837 273.802 123.429 273.424 124.356C273.05 125.331 272.388 126.169 271.525 126.759C270.662 127.348 269.64 127.661 268.595 127.656C265.732 127.75 263.757 125.88 262.216 123.657C260.674 121.433 259.282 119.036 256.961 117.418C254.719 115.862 252.027 115.086 249.3 115.21C246.671 115.366 244.155 116.335 242.103 117.983C239.822 119.814 238.539 122.454 236.943 124.843C235.495 127.02 233.356 129.283 230.524 129.149C227.692 129.015 225.293 126.58 223.759 124.301C222.005 121.708 220.613 118.706 218.175 116.679C216.012 114.895 213.07 113.803 210.309 114.864C209.381 115.233 209.782 116.75 210.734 116.38H210.757Z" fill="url(#paint45_linear_70_596)"/>
</g>
<path d="M222.95 148.573H208.445V151.253H222.95V148.573Z" fill="#F5F7F9"/>
<path d="M241.823 148.573H227.318V151.253H241.823V148.573Z" fill="#F5F7F9"/>
<path d="M259.297 148.573H244.793V151.253H259.297V148.573Z" fill="#F5F7F9"/>
<path d="M277.63 148.573H263.125V151.253H277.63V148.573Z" fill="#F5F7F9"/>
<g style="mix-blend-mode:screen" filter="url(#filter5_d_70_596)">
<path d="M262.705 180.098H167.654C161.316 180.098 156.178 185.23 156.178 191.562V218.71C156.178 225.041 161.316 230.174 167.654 230.174H262.705C269.043 230.174 274.181 225.041 274.181 218.71V191.562C274.181 185.23 269.043 180.098 262.705 180.098Z" fill="url(#paint46_linear_70_596)" style="mix-blend-mode:screen"/>
</g>
<path style="mix-blend-mode:screen" d="M262.705 180.098H167.654C161.316 180.098 156.178 185.23 156.178 191.562V218.71C156.178 225.041 161.316 230.174 167.654 230.174H262.705C269.043 230.174 274.181 225.041 274.181 218.71V191.562C274.181 185.23 269.043 180.098 262.705 180.098Z" fill="url(#paint47_linear_70_596)"/>
<path style="mix-blend-mode:multiply" d="M270.25 218.71V191.562C270.25 187.4 266.873 184.026 262.707 184.026H167.656C163.49 184.026 160.112 187.4 160.112 191.562V218.71C160.112 222.871 163.49 226.245 167.656 226.245H262.707C266.873 226.245 270.25 222.871 270.25 218.71Z" fill="url(#paint48_linear_70_596)"/>
<g style="mix-blend-mode:multiply" opacity="0.49">
<path d="M179.532 193.558C177.24 193.558 175.001 194.237 173.095 195.508C171.19 196.78 169.705 198.587 168.828 200.701C167.951 202.816 167.721 205.142 168.167 207.387C168.614 209.632 169.717 211.695 171.336 213.314C172.956 214.933 175.019 216.036 177.267 216.483C179.514 216.931 181.843 216.703 183.96 215.828C186.077 214.953 187.888 213.471 189.162 211.568C190.436 209.666 191.117 207.429 191.118 205.14C191.118 202.07 189.898 199.125 187.725 196.953C185.552 194.781 182.605 193.56 179.532 193.558ZM179.532 213.823C177.596 213.821 175.716 213.175 174.189 211.986C172.663 210.797 171.576 209.134 171.103 207.259C170.629 205.384 170.795 203.405 171.574 201.634C172.353 199.864 173.701 198.404 175.405 197.485C177.108 196.567 179.069 196.242 180.978 196.562C182.888 196.882 184.635 197.829 185.945 199.253C187.254 200.677 188.051 202.497 188.209 204.424C188.366 206.352 187.876 208.276 186.816 209.894C186.024 211.102 184.944 212.094 183.672 212.78C182.4 213.466 180.977 213.825 179.532 213.823Z" fill="#3F3DB4"/>
</g>
<path d="M191.078 205.14C191.079 207.372 190.428 209.557 189.206 211.426L186.776 209.854C187.636 208.55 188.126 207.037 188.194 205.477C188.262 203.916 187.905 202.367 187.162 200.992C186.419 199.618 185.317 198.471 183.974 197.672C182.63 196.874 181.095 196.454 179.531 196.457V193.558C182.599 193.568 185.537 194.793 187.701 196.964C189.866 199.135 191.08 202.075 191.078 205.14Z" fill="url(#paint49_linear_70_596)"/>
<g style="mix-blend-mode:multiply" opacity="0.49">
<path d="M209.116 190.58C206.822 190.578 204.58 191.256 202.672 192.528C200.765 193.799 199.277 195.608 198.398 197.724C197.52 199.84 197.289 202.169 197.735 204.416C198.182 206.664 199.286 208.728 200.907 210.349C202.528 211.969 204.594 213.073 206.843 213.521C209.092 213.968 211.424 213.739 213.543 212.863C215.662 211.986 217.473 210.502 218.748 208.597C220.022 206.692 220.702 204.453 220.702 202.162C220.702 199.091 219.482 196.147 217.309 193.975C215.136 191.803 212.189 190.582 209.116 190.58ZM209.116 210.844C207.397 210.844 205.716 210.335 204.287 209.381C202.858 208.427 201.744 207.071 201.086 205.484C200.428 203.898 200.256 202.152 200.591 200.468C200.926 198.784 201.754 197.236 202.97 196.022C204.185 194.808 205.734 193.981 207.42 193.646C209.106 193.311 210.854 193.483 212.442 194.14C214.03 194.797 215.388 195.91 216.343 197.338C217.298 198.766 217.808 200.444 217.808 202.162C217.813 203.303 217.592 204.435 217.157 205.491C216.722 206.546 216.082 207.505 215.273 208.313C214.465 209.12 213.505 209.759 212.448 210.194C211.391 210.628 210.259 210.849 209.116 210.844Z" fill="#3F3DB4"/>
</g>
<path d="M220.703 202.162C220.704 204.536 219.973 206.853 218.609 208.798C217.246 210.743 215.317 212.221 213.084 213.033C210.85 213.845 208.421 213.95 206.125 213.335C203.829 212.72 201.779 211.414 200.252 209.595L202.47 207.741C203.411 208.84 204.614 209.685 205.967 210.2C207.32 210.714 208.781 210.882 210.216 210.686C211.651 210.49 213.013 209.938 214.179 209.08C215.344 208.221 216.276 207.085 216.887 205.774C217.499 204.463 217.772 203.019 217.68 201.576C217.589 200.132 217.136 198.734 216.363 197.511C215.591 196.287 214.523 195.277 213.259 194.573C211.994 193.868 210.573 193.492 209.125 193.479V190.58C210.646 190.581 212.153 190.881 213.558 191.464C214.963 192.046 216.24 192.9 217.315 193.975C218.39 195.051 219.243 196.327 219.824 197.732C220.406 199.136 220.704 200.642 220.703 202.162Z" fill="url(#paint50_linear_70_596)"/>
<path d="M257.498 197.887H236.662C235.683 197.887 234.744 197.499 234.05 196.808C233.357 196.117 232.967 195.179 232.965 194.201C232.967 193.223 233.357 192.284 234.05 191.592C234.743 190.9 235.682 190.51 236.662 190.508H257.498C258.478 190.51 259.417 190.9 260.11 191.592C260.803 192.284 261.193 193.223 261.195 194.201C261.193 195.179 260.803 196.117 260.11 196.808C259.417 197.499 258.478 197.887 257.498 197.887Z" fill="url(#paint51_linear_70_596)"/>
<g style="mix-blend-mode:multiply" opacity="0.49">
<path d="M237.937 204.048H234.917C234.222 204.048 233.658 204.611 233.658 205.305V208.322C233.658 209.017 234.222 209.58 234.917 209.58H237.937C238.632 209.58 239.196 209.017 239.196 208.322V205.305C239.196 204.611 238.632 204.048 237.937 204.048Z" fill="#3F3DB4"/>
</g>
<g style="mix-blend-mode:multiply" opacity="0.49">
<path d="M258.978 208.149H243.844C243.449 208.149 243.07 207.993 242.79 207.714C242.51 207.436 242.352 207.058 242.35 206.664C242.35 206.268 242.507 205.888 242.787 205.608C243.068 205.328 243.448 205.171 243.844 205.171H258.978C259.374 205.171 259.755 205.328 260.035 205.608C260.315 205.888 260.473 206.268 260.473 206.664C260.47 207.058 260.312 207.436 260.032 207.714C259.752 207.993 259.373 208.149 258.978 208.149Z" fill="#3F3DB4"/>
</g>
<g style="mix-blend-mode:multiply" opacity="0.49">
<path d="M237.937 212.871H234.917C234.222 212.871 233.658 213.434 233.658 214.128V217.146C233.658 217.84 234.222 218.403 234.917 218.403H237.937C238.632 218.403 239.196 217.84 239.196 217.146V214.128C239.196 213.434 238.632 212.871 237.937 212.871Z" fill="#3F3DB4"/>
</g>
<g style="mix-blend-mode:multiply" opacity="0.49">
<path d="M258.978 216.934H243.844C243.448 216.934 243.068 216.776 242.787 216.496C242.507 216.216 242.35 215.837 242.35 215.441C242.352 215.046 242.51 214.668 242.79 214.39C243.07 214.112 243.449 213.956 243.844 213.956H258.978C259.373 213.956 259.752 214.112 260.032 214.39C260.312 214.668 260.47 215.046 260.473 215.441C260.473 215.837 260.315 216.216 260.035 216.496C259.755 216.776 259.374 216.934 258.978 216.934Z" fill="#3F3DB4"/>
</g>
<g style="mix-blend-mode:screen" filter="url(#filter6_d_70_596)">
<path d="M169.49 102.747H154.907C152.517 102.747 150.58 104.682 150.58 107.069V121.283C150.58 123.67 152.517 125.605 154.907 125.605H169.49C171.879 125.605 173.816 123.67 173.816 121.283V107.069C173.816 104.682 171.879 102.747 169.49 102.747Z" fill="url(#paint52_linear_70_596)" style="mix-blend-mode:screen"/>
</g>
<path style="mix-blend-mode:screen" d="M169.49 102.747H154.907C152.517 102.747 150.58 104.682 150.58 107.069V121.283C150.58 123.67 152.517 125.605 154.907 125.605H169.49C171.879 125.605 173.816 123.67 173.816 121.283V107.069C173.816 104.682 171.879 102.747 169.49 102.747Z" fill="url(#paint53_linear_70_596)"/>
<path d="M168.038 115.497C168.776 112.265 166.752 109.046 163.516 108.308C160.281 107.57 157.059 109.593 156.32 112.825C155.581 116.057 157.605 119.276 160.841 120.014C164.077 120.752 167.299 118.729 168.038 115.497Z" fill="url(#paint54_linear_70_596)"/>
<g style="mix-blend-mode:screen" filter="url(#filter7_d_70_596)">
<path d="M169.486 130.524H154.903C152.513 130.524 150.576 132.459 150.576 134.846V149.06C150.576 151.447 152.513 153.382 154.903 153.382H169.486C171.875 153.382 173.812 151.447 173.812 149.06V134.846C173.812 132.459 171.875 130.524 169.486 130.524Z" fill="url(#paint55_linear_70_596)" style="mix-blend-mode:screen"/>
</g>
<path style="mix-blend-mode:screen" d="M169.486 130.524H154.903C152.513 130.524 150.576 132.459 150.576 134.846V149.06C150.576 151.447 152.513 153.382 154.903 153.382H169.486C171.875 153.382 173.812 151.447 173.812 149.06V134.846C173.812 132.459 171.875 130.524 169.486 130.524Z" fill="url(#paint56_linear_70_596)"/>
<path d="M160.526 136.446L156.682 140.285C155.761 141.206 155.761 142.698 156.682 143.619L160.526 147.458C161.447 148.379 162.941 148.379 163.863 147.458L167.706 143.619C168.628 142.698 168.628 141.206 167.706 140.285L163.863 136.446C162.941 135.525 161.447 135.525 160.526 136.446Z" fill="url(#paint57_linear_70_596)"/>
<g style="mix-blend-mode:screen" filter="url(#filter8_d_70_596)">
<path d="M444.196 30.5288H401.303C394.274 30.5288 388.576 36.2209 388.576 43.2424V85.0368C388.576 92.0583 394.274 97.7503 401.303 97.7503H444.196C451.225 97.7503 456.923 92.0583 456.923 85.0368V43.2424C456.923 36.2209 451.225 30.5288 444.196 30.5288Z" fill="url(#paint58_linear_70_596)" style="mix-blend-mode:screen"/>
</g>
<path style="mix-blend-mode:screen" d="M444.196 30.5288H401.303C394.274 30.5288 388.576 36.2209 388.576 43.2424V85.0368C388.576 92.0583 394.274 97.7503 401.303 97.7503H444.196C451.225 97.7503 456.923 92.0583 456.923 85.0368V43.2424C456.923 36.2209 451.225 30.5288 444.196 30.5288Z" fill="url(#paint59_linear_70_596)"/>
<path style="mix-blend-mode:multiply" d="M452.99 85.0367V43.2423C452.99 38.3906 449.053 34.4575 444.196 34.4575H401.304C396.447 34.4575 392.51 38.3906 392.51 43.2423V85.0367C392.51 89.8884 396.447 93.8215 401.304 93.8215H444.196C449.053 93.8215 452.99 89.8884 452.99 85.0367Z" fill="url(#paint60_linear_70_596)"/>
<g style="mix-blend-mode:multiply" opacity="0.49">
<path d="M407.005 43.8161V85.3591C406.976 85.7761 406.79 86.1665 406.484 86.4517C406.178 86.7368 405.776 86.8954 405.357 86.8954C404.939 86.8954 404.536 86.7368 404.23 86.4517C403.924 86.1665 403.738 85.7761 403.709 85.3591V43.8161C403.694 43.5904 403.725 43.3639 403.8 43.1506C403.876 42.9373 403.995 42.7419 404.15 42.5765C404.304 42.4111 404.491 42.2792 404.699 42.189C404.907 42.0988 405.131 42.0522 405.357 42.0522C405.584 42.0522 405.808 42.0988 406.016 42.189C406.223 42.2792 406.41 42.4111 406.565 42.5765C406.719 42.7419 406.838 42.9373 406.914 43.1506C406.99 43.3639 407.021 43.5904 407.005 43.8161Z" fill="#3F3DB4"/>
</g>
<path d="M407.005 51.2884V85.3588C406.976 85.7757 406.79 86.1662 406.484 86.4513C406.178 86.7365 405.775 86.8951 405.357 86.8951C404.939 86.8951 404.536 86.7365 404.23 86.4513C403.924 86.1662 403.738 85.7757 403.709 85.3588V51.2884C403.707 50.9614 403.802 50.6413 403.983 50.3689C404.164 50.0965 404.422 49.8842 404.725 49.7593C405.027 49.6344 405.36 49.6026 405.681 49.6678C406.002 49.733 406.296 49.8923 406.525 50.1254C406.678 50.278 406.799 50.4593 406.881 50.6589C406.964 50.8585 407.006 51.0725 407.005 51.2884Z" fill="url(#paint61_linear_70_596)"/>
<g style="mix-blend-mode:multiply" opacity="0.49">
<path d="M418.778 43.816V85.3589C418.749 85.7759 418.563 86.1663 418.257 86.4515C417.951 86.7366 417.549 86.8952 417.13 86.8952C416.712 86.8952 416.309 86.7366 416.003 86.4515C415.697 86.1663 415.511 85.7759 415.482 85.3589V43.816C415.484 43.4907 415.582 43.1732 415.763 42.9033C415.945 42.6333 416.202 42.423 416.503 42.2988C416.804 42.1745 417.135 42.1418 417.454 42.2049C417.774 42.2679 418.067 42.4238 418.298 42.653C418.604 42.9632 418.777 43.3806 418.778 43.816Z" fill="#3F3DB4"/>
</g>
<path d="M418.778 67.7026V85.3585C418.749 85.7755 418.563 86.1659 418.257 86.4511C417.951 86.7362 417.549 86.8948 417.13 86.8948C416.712 86.8948 416.309 86.7362 416.003 86.4511C415.697 86.1659 415.511 85.7755 415.482 85.3585V67.7026C415.485 67.2663 415.659 66.8486 415.969 66.5408C416.279 66.2331 416.698 66.0603 417.134 66.0603C417.35 66.0593 417.565 66.101 417.765 66.1832C417.965 66.2654 418.146 66.3863 418.299 66.539C418.452 66.6917 418.573 66.8732 418.655 67.0729C418.737 67.2726 418.779 67.4866 418.778 67.7026Z" fill="url(#paint62_linear_70_596)"/>
<g style="mix-blend-mode:multiply" opacity="0.49">
<path d="M430.628 43.8157V85.3587C430.599 85.7756 430.413 86.1661 430.107 86.4512C429.801 86.7364 429.398 86.895 428.98 86.895C428.562 86.895 428.159 86.7364 427.853 86.4512C427.547 86.1661 427.361 85.7756 427.332 85.3587V43.8157C427.334 43.4905 427.431 43.173 427.613 42.903C427.794 42.6331 428.052 42.4228 428.353 42.2985C428.654 42.1743 428.985 42.1416 429.304 42.2046C429.623 42.2677 429.917 42.4236 430.148 42.6528C430.454 42.9629 430.626 43.3803 430.628 43.8157Z" fill="#3F3DB4"/>
</g>
<path d="M430.628 53.8978V85.328C430.599 85.745 430.413 86.1354 430.107 86.4206C429.801 86.7057 429.398 86.8643 428.98 86.8643C428.562 86.8643 428.159 86.7057 427.853 86.4206C427.547 86.1354 427.361 85.745 427.332 85.328V53.8978C427.334 53.5725 427.431 53.255 427.613 52.985C427.794 52.7151 428.052 52.5048 428.353 52.3805C428.654 52.2563 428.985 52.2236 429.304 52.2867C429.623 52.3497 429.917 52.5056 430.148 52.7348C430.454 53.0449 430.626 53.4624 430.628 53.8978Z" fill="url(#paint63_linear_70_596)"/>
<g filter="url(#filter9_d_70_596)">
<path d="M405.36 54.2505C407.006 54.2505 408.341 52.9172 408.341 51.2725C408.341 49.6277 407.006 48.2944 405.36 48.2944C403.714 48.2944 402.379 49.6277 402.379 51.2725C402.379 52.9172 403.714 54.2505 405.36 54.2505Z" fill="#F5F7F9"/>
<path style="mix-blend-mode:multiply" d="M406.789 51.2724C406.789 51.5572 406.704 51.8355 406.546 52.0721C406.387 52.3087 406.162 52.493 405.899 52.6016C405.635 52.7102 405.345 52.7383 405.066 52.6821C404.786 52.626 404.53 52.4883 404.329 52.2864C404.128 52.0845 403.992 51.8276 403.937 51.5481C403.882 51.2687 403.912 50.9793 404.022 50.7167C404.132 50.4541 404.318 50.2301 404.556 50.073C404.793 49.9159 405.072 49.8329 405.357 49.8345C405.546 49.8345 405.733 49.8717 405.907 49.9441C406.081 50.0165 406.24 50.1225 406.373 50.2561C406.506 50.3898 406.611 50.5483 406.682 50.7227C406.754 50.8972 406.79 51.084 406.789 51.2724Z" fill="url(#paint64_linear_70_596)"/>
</g>
<g filter="url(#filter10_d_70_596)">
<path d="M420.119 66.0615C420.119 66.6505 419.944 67.2263 419.616 67.716C419.289 68.2058 418.823 68.5874 418.278 68.8128C417.734 69.0382 417.134 69.0972 416.556 68.9823C415.978 68.8674 415.446 68.5838 415.029 68.1673C414.612 67.7508 414.329 67.2202 414.214 66.6425C414.099 66.0648 414.158 65.466 414.383 64.9219C414.609 64.3777 414.991 63.9126 415.481 63.5854C415.971 63.2582 416.548 63.0835 417.137 63.0835C417.928 63.0835 418.686 63.3973 419.245 63.9557C419.804 64.5142 420.119 65.2717 420.119 66.0615Z" fill="#F5F7F9"/>
<path style="mix-blend-mode:multiply" d="M418.566 66.0615C418.566 66.3462 418.482 66.6245 418.323 66.8612C418.165 67.0978 417.939 67.2821 417.676 67.3907C417.412 67.4993 417.123 67.5273 416.843 67.4712C416.564 67.4151 416.307 67.2773 416.106 67.0755C415.905 66.8736 415.769 66.6166 415.714 66.3372C415.66 66.0577 415.689 65.7684 415.799 65.5058C415.909 65.2431 416.095 65.0191 416.333 64.8621C416.571 64.705 416.85 64.622 417.135 64.6236C417.323 64.6236 417.51 64.6608 417.684 64.7332C417.859 64.8055 418.017 64.9116 418.15 65.0452C418.283 65.1788 418.388 65.3374 418.46 65.5118C418.531 65.6862 418.567 65.873 418.566 66.0615Z" fill="url(#paint65_linear_70_596)"/>
</g>
<g filter="url(#filter11_d_70_596)">
<path d="M431.962 52.6553C431.962 53.2443 431.787 53.82 431.46 54.3098C431.132 54.7995 430.667 55.1812 430.122 55.4066C429.577 55.632 428.978 55.691 428.4 55.5761C427.821 55.4612 427.29 55.1775 426.873 54.761C426.456 54.3446 426.172 53.8139 426.057 53.2363C425.942 52.6586 426.001 52.0598 426.227 51.5156C426.453 50.9715 426.835 50.5064 427.325 50.1791C427.815 49.8519 428.392 49.6772 428.981 49.6772C429.772 49.6772 430.53 49.991 431.089 50.5495C431.648 51.108 431.962 51.8654 431.962 52.6553Z" fill="#F5F7F9"/>
<path style="mix-blend-mode:multiply" d="M430.451 52.6552C430.451 52.94 430.367 53.2183 430.208 53.4549C430.049 53.6916 429.824 53.8759 429.561 53.9845C429.297 54.0931 429.007 54.1211 428.728 54.0649C428.449 54.0088 428.192 53.8711 427.991 53.6692C427.79 53.4673 427.654 53.2104 427.599 52.9309C427.544 52.6515 427.574 52.3621 427.684 52.0995C427.794 51.8369 427.98 51.6129 428.218 51.4558C428.455 51.2988 428.735 51.2158 429.02 51.2173C429.208 51.2173 429.395 51.2546 429.569 51.3269C429.743 51.3993 429.902 51.5053 430.035 51.6389C430.168 51.7726 430.273 51.9312 430.344 52.1056C430.416 52.28 430.452 52.4668 430.451 52.6552Z" fill="url(#paint66_linear_70_596)"/>
</g>
<g style="mix-blend-mode:multiply" opacity="0.49">
<path d="M447.523 47.5562H437.289V49.6306H447.523V47.5562Z" fill="#3F3DB4"/>
</g>
<g style="mix-blend-mode:multiply" opacity="0.49">
<path d="M447.523 54.5967H437.289V56.6711H447.523V54.5967Z" fill="#3F3DB4"/>
</g>
<g style="mix-blend-mode:multiply" opacity="0.49">
<path d="M447.523 61.6289H437.289V63.7033H447.523V61.6289Z" fill="#3F3DB4"/>
</g>
<g style="mix-blend-mode:multiply" opacity="0.49">
<path d="M447.523 68.6616H437.289V70.736H447.523V68.6616Z" fill="#3F3DB4"/>
</g>
<g style="mix-blend-mode:multiply" opacity="0.49">
<path d="M447.523 75.7017H437.289V77.7761H447.523V75.7017Z" fill="#3F3DB4"/>
</g>
<path d="M424.655 102.944C424.655 103.322 424.543 103.691 424.333 104.005C424.123 104.319 423.824 104.564 423.475 104.708C423.126 104.853 422.742 104.89 422.371 104.817C422 104.743 421.659 104.561 421.392 104.294C421.125 104.027 420.943 103.687 420.869 103.317C420.795 102.946 420.833 102.562 420.978 102.213C421.122 101.864 421.367 101.566 421.682 101.356C421.996 101.147 422.366 101.035 422.744 101.035C423.251 101.035 423.737 101.236 424.095 101.594C424.454 101.952 424.655 102.438 424.655 102.944Z" fill="#F5F7F9"/>
<path d="M411.842 145.21C411.844 145.588 411.733 145.958 411.524 146.273C411.315 146.588 411.017 146.834 410.668 146.979C410.319 147.125 409.934 147.164 409.563 147.091C409.192 147.018 408.85 146.837 408.582 146.57C408.314 146.304 408.131 145.963 408.057 145.593C407.982 145.222 408.02 144.838 408.164 144.489C408.309 144.139 408.554 143.841 408.868 143.63C409.183 143.42 409.553 143.308 409.931 143.308C410.436 143.308 410.921 143.508 411.28 143.865C411.638 144.221 411.84 144.705 411.842 145.21Z" fill="#F5F7F9"/>
<path d="M422.747 102.945V143.018C422.747 143.303 422.691 143.584 422.582 143.847C422.473 144.11 422.313 144.348 422.111 144.549C421.909 144.75 421.67 144.909 421.407 145.017C421.143 145.125 420.861 145.18 420.576 145.179H409.32" stroke="#F5F7F9" stroke-width="2.02149" stroke-miterlimit="10"/>
<path d="M95.8638 126.43C95.8638 126.808 95.7517 127.177 95.5417 127.491C95.3317 127.805 95.0331 128.05 94.6839 128.194C94.3346 128.339 93.9503 128.377 93.5795 128.303C93.2087 128.229 92.8682 128.048 92.6009 127.781C92.3335 127.514 92.1515 127.173 92.0777 126.803C92.004 126.433 92.0418 126.049 92.1865 125.7C92.3312 125.351 92.5762 125.053 92.8905 124.843C93.2048 124.633 93.5744 124.521 93.9524 124.521C94.2037 124.52 94.4527 124.569 94.6851 124.664C94.9175 124.76 95.1286 124.9 95.3063 125.078C95.484 125.255 95.6248 125.466 95.7204 125.698C95.8161 125.931 95.8649 126.179 95.8638 126.43Z" fill="#F5F7F9"/>
<path d="M104.411 192.866C104.412 193.244 104.301 193.614 104.092 193.929C103.883 194.244 103.585 194.49 103.236 194.636C102.887 194.781 102.503 194.82 102.131 194.747C101.76 194.675 101.419 194.493 101.151 194.227C100.882 193.96 100.7 193.62 100.625 193.249C100.551 192.879 100.588 192.494 100.733 192.145C100.877 191.796 101.122 191.497 101.437 191.287C101.751 191.077 102.121 190.964 102.499 190.964C103.005 190.964 103.49 191.164 103.848 191.521C104.206 191.877 104.409 192.361 104.411 192.866Z" fill="#F5F7F9"/>
<path d="M93.9512 126.431H99.8978C100.588 126.431 101.251 126.705 101.739 127.192C102.227 127.68 102.501 128.342 102.501 129.032V192.513" stroke="#F5F7F9" stroke-width="2.02149" stroke-miterlimit="10"/>
<path d="M281.442 196.685C281.442 197.062 281.33 197.432 281.12 197.746C280.91 198.06 280.611 198.304 280.262 198.449C279.913 198.593 279.528 198.631 279.158 198.557C278.787 198.484 278.446 198.302 278.179 198.035C277.912 197.768 277.73 197.428 277.656 197.057C277.582 196.687 277.62 196.303 277.765 195.954C277.909 195.605 278.154 195.307 278.469 195.097C278.783 194.887 279.152 194.775 279.531 194.775C279.782 194.774 280.031 194.823 280.263 194.919C280.496 195.014 280.707 195.155 280.884 195.332C281.062 195.51 281.203 195.721 281.299 195.953C281.394 196.185 281.443 196.434 281.442 196.685Z" fill="#F5F7F9"/>
<path d="M289.993 227.164C289.993 227.542 289.881 227.911 289.671 228.225C289.461 228.539 289.162 228.784 288.813 228.928C288.464 229.073 288.079 229.111 287.708 229.037C287.338 228.963 286.997 228.781 286.73 228.514C286.462 228.247 286.28 227.907 286.207 227.537C286.133 227.166 286.171 226.783 286.315 226.434C286.46 226.085 286.705 225.787 287.019 225.577C287.334 225.367 287.703 225.255 288.081 225.255C288.333 225.254 288.582 225.303 288.814 225.398C289.046 225.494 289.258 225.634 289.435 225.812C289.613 225.989 289.754 226.2 289.849 226.432C289.945 226.665 289.994 226.913 289.993 227.164Z" fill="#F5F7F9"/>
<path d="M279.529 196.685H285.476C286.166 196.685 286.829 196.959 287.317 197.447C287.805 197.935 288.079 198.596 288.079 199.286V226.788" stroke="#F5F7F9" stroke-width="2.02149" stroke-miterlimit="10"/>
<path d="M118.179 13.0535C117.608 12.2959 116.98 11.5839 116.299 10.9241L117.872 5.10947L108.213 0.709229L104.893 5.74593C102.995 5.62867 101.09 5.81974 99.2534 6.31168L95.0058 2.0293L86.3534 8.22107L89.0749 13.6035C88.013 15.1877 87.216 16.934 86.7152 18.7738L80.8708 20.3453L81.9957 30.8587L88.0209 31.2045C88.4434 32.0554 88.9354 32.8701 89.4918 33.6403C90.0455 34.4119 90.6611 35.1371 91.3324 35.809L89.7593 41.6236L99.4343 45.9846L102.746 40.94C104.646 41.0602 106.553 40.8718 108.393 40.3821L112.641 44.6645L121.293 38.4727L118.58 33.0824C119.643 31.5018 120.44 29.7579 120.94 27.92L126.776 26.3485L125.722 15.7958L119.697 15.45C119.257 14.611 118.749 13.8094 118.179 13.0535ZM113.105 15.4893C114.715 17.3818 115.704 19.7223 115.94 22.1945C116.176 24.6668 115.647 27.1518 114.423 29.3139C113.2 31.476 111.342 33.211 109.101 34.2847C106.859 35.3584 104.341 35.719 101.888 35.3177C99.4345 34.9165 97.1635 33.7728 95.3815 32.0411C93.5995 30.3094 92.3925 28.0731 91.9234 25.6343C91.4543 23.1954 91.7457 20.6715 92.7583 18.4034C93.7709 16.1353 95.4559 14.2323 97.5858 12.9513C100.05 11.4777 102.957 10.9241 105.791 11.3887C108.625 11.8534 111.202 13.3062 113.066 15.4893H113.105Z" fill="url(#paint67_linear_70_596)"/>
</g>
<defs>
<filter id="filter0_d_70_596" x="-4.52153" y="98.708" width="118.011" height="151.803" filterUnits="userSpaceOnUse" color-interpolation-filters="sRGB">
<feFlood flood-opacity="0" result="BackgroundImageFix"/>
<feColorMatrix in="SourceAlpha" type="matrix" values="0 0 0 0 0 0 0 0 0 0 0 0 0 0 0 0 0 0 127 0" result="hardAlpha"/>
<feOffset dx="6.06447" dy="12.1289"/>
<feGaussianBlur stdDeviation="10.1075"/>
<feColorMatrix type="matrix" values="0 0 0 0 0.164706 0 0 0 0 0.164706 0 0 0 0 0.537255 0 0 0 1 0"/>
<feBlend mode="normal" in2="BackgroundImageFix" result="effect1_dropShadow_70_596"/>
<feBlend mode="normal" in="SourceGraphic" in2="effect1_dropShadow_70_596" result="shape"/>
</filter>
<filter id="filter1_d_70_596" x="6.07613" y="111.232" width="91.9672" height="74.3583" filterUnits="userSpaceOnUse" color-interpolation-filters="sRGB">
<feFlood flood-opacity="0" result="BackgroundImageFix"/>
<feColorMatrix in="SourceAlpha" type="matrix" values="0 0 0 0 0 0 0 0 0 0 0 0 0 0 0 0 0 0 127 0" result="hardAlpha"/>
<feOffset dx="4.04298" dy="6.06447"/>
<feGaussianBlur stdDeviation="8.08597"/>
<feColorMatrix type="matrix" values="0 0 0 0 0.588235 0 0 0 0 0.188235 0 0 0 0 0.407843 0 0 0 1 0"/>
<feBlend mode="normal" in2="BackgroundImageFix" result="effect1_dropShadow_70_596"/>
<feBlend mode="normal" in="SourceGraphic" in2="effect1_dropShadow_70_596" result="shape"/>
</filter>
<filter id="filter2_d_70_596" x="170.598" y="79.968" width="151.551" height="113.45" filterUnits="userSpaceOnUse" color-interpolation-filters="sRGB">
<feFlood flood-opacity="0" result="BackgroundImageFix"/>
<feColorMatrix in="SourceAlpha" type="matrix" values="0 0 0 0 0 0 0 0 0 0 0 0 0 0 0 0 0 0 127 0" result="hardAlpha"/>
<feOffset dx="6.06447" dy="12.1289"/>
<feGaussianBlur stdDeviation="10.1075"/>
<feColorMatrix type="matrix" values="0 0 0 0 0.164706 0 0 0 0 0.164706 0 0 0 0 0.537255 0 0 0 1 0"/>
<feBlend mode="normal" in2="BackgroundImageFix" result="effect1_dropShadow_70_596"/>
<feBlend mode="normal" in="SourceGraphic" in2="effect1_dropShadow_70_596" result="shape"/>
</filter>
<filter id="filter3_d_70_596" x="202.424" y="104.527" width="89.0442" height="37.9361" filterUnits="userSpaceOnUse" color-interpolation-filters="sRGB">
<feFlood flood-opacity="0" result="BackgroundImageFix"/>
<feColorMatrix in="SourceAlpha" type="matrix" values="0 0 0 0 0 0 0 0 0 0 0 0 0 0 0 0 0 0 127 0" result="hardAlpha"/>
<feOffset dx="2.02149" dy="4.04298"/>
<feGaussianBlur stdDeviation="4.04298"/>
<feColorMatrix type="matrix" values="0 0 0 0 0.164706 0 0 0 0 0.164706 0 0 0 0 0.537255 0 0 0 1 0"/>
<feBlend mode="normal" in2="BackgroundImageFix" result="effect1_dropShadow_70_596"/>
<feBlend mode="normal" in="SourceGraphic" in2="effect1_dropShadow_70_596" result="shape"/>
</filter>
<filter id="filter4_d_70_596" x="203.719" y="110.404" width="81.3931" height="32.4451" filterUnits="userSpaceOnUse" color-interpolation-filters="sRGB">
<feFlood flood-opacity="0" result="BackgroundImageFix"/>
<feColorMatrix in="SourceAlpha" type="matrix" values="0 0 0 0 0 0 0 0 0 0 0 0 0 0 0 0 0 0 127 0" result="hardAlpha"/>
<feOffset dx="2.02149" dy="4.04298"/>
<feGaussianBlur stdDeviation="4.04298"/>
<feColorMatrix type="matrix" values="0 0 0 0 0.164706 0 0 0 0 0.164706 0 0 0 0 0.537255 0 0 0 1 0"/>
<feBlend mode="normal" in2="BackgroundImageFix" result="effect1_dropShadow_70_596"/>
<feBlend mode="normal" in="SourceGraphic" in2="effect1_dropShadow_70_596" result="shape"/>
</filter>
<filter id="filter5_d_70_596" x="142.027" y="172.012" width="158.433" height="90.5062" filterUnits="userSpaceOnUse" color-interpolation-filters="sRGB">
<feFlood flood-opacity="0" result="BackgroundImageFix"/>
<feColorMatrix in="SourceAlpha" type="matrix" values="0 0 0 0 0 0 0 0 0 0 0 0 0 0 0 0 0 0 127 0" result="hardAlpha"/>
<feOffset dx="6.06447" dy="12.1289"/>
<feGaussianBlur stdDeviation="10.1075"/>
<feColorMatrix type="matrix" values="0 0 0 0 0.164706 0 0 0 0 0.164706 0 0 0 0 0.537255 0 0 0 1 0"/>
<feBlend mode="normal" in2="BackgroundImageFix" result="effect1_dropShadow_70_596"/>
<feBlend mode="normal" in="SourceGraphic" in2="effect1_dropShadow_70_596" result="shape"/>
</filter>
<filter id="filter6_d_70_596" x="136.43" y="94.6611" width="63.6657" height="63.2875" filterUnits="userSpaceOnUse" color-interpolation-filters="sRGB">
<feFlood flood-opacity="0" result="BackgroundImageFix"/>
<feColorMatrix in="SourceAlpha" type="matrix" values="0 0 0 0 0 0 0 0 0 0 0 0 0 0 0 0 0 0 127 0" result="hardAlpha"/>
<feOffset dx="6.06447" dy="12.1289"/>
<feGaussianBlur stdDeviation="10.1075"/>
<feColorMatrix type="matrix" values="0 0 0 0 0.164706 0 0 0 0 0.164706 0 0 0 0 0.537255 0 0 0 1 0"/>
<feBlend mode="normal" in2="BackgroundImageFix" result="effect1_dropShadow_70_596"/>
<feBlend mode="normal" in="SourceGraphic" in2="effect1_dropShadow_70_596" result="shape"/>
</filter>
<filter id="filter7_d_70_596" x="136.426" y="122.438" width="63.6657" height="63.2875" filterUnits="userSpaceOnUse" color-interpolation-filters="sRGB">
<feFlood flood-opacity="0" result="BackgroundImageFix"/>
<feColorMatrix in="SourceAlpha" type="matrix" values="0 0 0 0 0 0 0 0 0 0 0 0 0 0 0 0 0 0 127 0" result="hardAlpha"/>
<feOffset dx="6.06447" dy="12.1289"/>
<feGaussianBlur stdDeviation="10.1075"/>
<feColorMatrix type="matrix" values="0 0 0 0 0.164706 0 0 0 0 0.164706 0 0 0 0 0.537255 0 0 0 1 0"/>
<feBlend mode="normal" in2="BackgroundImageFix" result="effect1_dropShadow_70_596"/>
<feBlend mode="normal" in="SourceGraphic" in2="effect1_dropShadow_70_596" result="shape"/>
</filter>
<filter id="filter8_d_70_596" x="374.426" y="22.4428" width="108.776" height="107.651" filterUnits="userSpaceOnUse" color-interpolation-filters="sRGB">
<feFlood flood-opacity="0" result="BackgroundImageFix"/>
<feColorMatrix in="SourceAlpha" type="matrix" values="0 0 0 0 0 0 0 0 0 0 0 0 0 0 0 0 0 0 127 0" result="hardAlpha"/>
<feOffset dx="6.06447" dy="12.1289"/>
<feGaussianBlur stdDeviation="10.1075"/>
<feColorMatrix type="matrix" values="0 0 0 0 0.164706 0 0 0 0 0.164706 0 0 0 0 0.537255 0 0 0 1 0"/>
<feBlend mode="normal" in2="BackgroundImageFix" result="effect1_dropShadow_70_596"/>
<feBlend mode="normal" in="SourceGraphic" in2="effect1_dropShadow_70_596" result="shape"/>
</filter>
<filter id="filter9_d_70_596" x="398.336" y="46.2729" width="14.0484" height="14.042" filterUnits="userSpaceOnUse" color-interpolation-filters="sRGB">
<feFlood flood-opacity="0" result="BackgroundImageFix"/>
<feColorMatrix in="SourceAlpha" type="matrix" values="0 0 0 0 0 0 0 0 0 0 0 0 0 0 0 0 0 0 127 0" result="hardAlpha"/>
<feOffset dy="2.02149"/>
<feGaussianBlur stdDeviation="2.02149"/>
<feColorMatrix type="matrix" values="0 0 0 0 0.164706 0 0 0 0 0.164706 0 0 0 0 0.537255 0 0 0 1 0"/>
<feBlend mode="normal" in2="BackgroundImageFix" result="effect1_dropShadow_70_596"/>
<feBlend mode="normal" in="SourceGraphic" in2="effect1_dropShadow_70_596" result="shape"/>
</filter>
<filter id="filter10_d_70_596" x="410.113" y="61.062" width="14.0484" height="14.042" filterUnits="userSpaceOnUse" color-interpolation-filters="sRGB">
<feFlood flood-opacity="0" result="BackgroundImageFix"/>
<feColorMatrix in="SourceAlpha" type="matrix" values="0 0 0 0 0 0 0 0 0 0 0 0 0 0 0 0 0 0 127 0" result="hardAlpha"/>
<feOffset dy="2.02149"/>
<feGaussianBlur stdDeviation="2.02149"/>
<feColorMatrix type="matrix" values="0 0 0 0 0.164706 0 0 0 0 0.164706 0 0 0 0 0.537255 0 0 0 1 0"/>
<feBlend mode="normal" in2="BackgroundImageFix" result="effect1_dropShadow_70_596"/>
<feBlend mode="normal" in="SourceGraphic" in2="effect1_dropShadow_70_596" result="shape"/>
</filter>
<filter id="filter11_d_70_596" x="421.957" y="47.6558" width="14.0484" height="14.042" filterUnits="userSpaceOnUse" color-interpolation-filters="sRGB">
<feFlood flood-opacity="0" result="BackgroundImageFix"/>
<feColorMatrix in="SourceAlpha" type="matrix" values="0 0 0 0 0 0 0 0 0 0 0 0 0 0 0 0 0 0 127 0" result="hardAlpha"/>
<feOffset dy="2.02149"/>
<feGaussianBlur stdDeviation="2.02149"/>
<feColorMatrix type="matrix" values="0 0 0 0 0.164706 0 0 0 0 0.164706 0 0 0 0 0.537255 0 0 0 1 0"/>
<feBlend mode="normal" in2="BackgroundImageFix" result="effect1_dropShadow_70_596"/>
<feBlend mode="normal" in="SourceGraphic" in2="effect1_dropShadow_70_596" result="shape"/>
</filter>
<linearGradient id="paint0_linear_70_596" x1="56.9454" y1="73.2744" x2="27.4584" y2="31.6078" gradientUnits="userSpaceOnUse">
<stop stop-color="#BECCFC"/>
<stop offset="1" stop-color="#F5F7F9"/>
</linearGradient>
<linearGradient id="paint1_linear_70_596" x1="195.153" y1="263.271" x2="192.916" y2="162.442" gradientUnits="userSpaceOnUse">
<stop stop-color="#8A88FA"/>
<stop offset="1" stop-color="#ECECFD"/>
</linearGradient>
<linearGradient id="paint2_linear_70_596" x1="209.603" y1="272.754" x2="183.856" y2="90.1446" gradientUnits="userSpaceOnUse">
<stop stop-color="#4C86FA"/>
<stop offset="1" stop-color="#8EF0FD"/>
</linearGradient>
<linearGradient id="paint3_linear_70_596" x1="192.873" y1="270.145" x2="192.873" y2="261.392" gradientUnits="userSpaceOnUse">
<stop stop-color="#D8E0FD"/>
<stop offset="1" stop-color="#F5F7F9"/>
</linearGradient>
<linearGradient id="paint4_linear_70_596" x1="192.873" y1="269.446" x2="192.873" y2="275.709" gradientUnits="userSpaceOnUse">
<stop stop-color="#8A88FA"/>
<stop offset="1" stop-color="#ECECFD"/>
</linearGradient>
<linearGradient id="paint5_linear_70_596" x1="192.873" y1="265.014" x2="192.873" y2="260.897" gradientUnits="userSpaceOnUse">
<stop stop-color="#8A88FA"/>
<stop offset="0.17" stop-color="#A09FFB"/>
<stop offset="0.54" stop-color="#C9C8FC"/>
<stop offset="0.83" stop-color="#E3E2FD"/>
<stop offset="1" stop-color="#ECECFD"/>
</linearGradient>
<linearGradient id="paint6_linear_70_596" x1="104.392" y1="299.714" x2="90.9701" y2="-12.288" gradientUnits="userSpaceOnUse">
<stop stop-color="#4578FA"/>
<stop offset="1" stop-color="#5493FB" stop-opacity="0.3"/>
</linearGradient>
<linearGradient id="paint7_linear_70_596" x1="228.151" y1="295.077" x2="214.674" y2="-18.0795" gradientUnits="userSpaceOnUse">
<stop stop-color="#4578FA"/>
<stop offset="1" stop-color="#5493FB" stop-opacity="0.3"/>
</linearGradient>
<linearGradient id="paint8_linear_70_596" x1="224.91" y1="295.328" x2="211.362" y2="-19.5177" gradientUnits="userSpaceOnUse">
<stop stop-color="#4578FA"/>
<stop offset="1" stop-color="#5493FB" stop-opacity="0.3"/>
</linearGradient>
<linearGradient id="paint9_linear_70_596" x1="212.483" y1="295.062" x2="199.053" y2="-16.9403" gradientUnits="userSpaceOnUse">
<stop stop-color="#4578FA"/>
<stop offset="1" stop-color="#5493FB" stop-opacity="0.3"/>
</linearGradient>
<linearGradient id="paint10_linear_70_596" x1="262.211" y1="292.917" x2="248.788" y2="-19.0776" gradientUnits="userSpaceOnUse">
<stop stop-color="#4578FA"/>
<stop offset="1" stop-color="#5493FB" stop-opacity="0.3"/>
</linearGradient>
<linearGradient id="paint11_linear_70_596" x1="311.095" y1="290.811" x2="297.665" y2="-21.1834" gradientUnits="userSpaceOnUse">
<stop stop-color="#4578FA"/>
<stop offset="1" stop-color="#5493FB" stop-opacity="0.3"/>
</linearGradient>
<linearGradient id="paint12_linear_70_596" x1="354.37" y1="262.814" x2="354.37" y2="122.934" gradientUnits="userSpaceOnUse">
<stop stop-color="#1D1C33"/>
<stop offset="1" stop-color="#35346C"/>
</linearGradient>
<linearGradient id="paint13_linear_70_596" x1="418.414" y1="224.878" x2="302.786" y2="56.7143" gradientUnits="userSpaceOnUse">
<stop stop-color="#35346C" stop-opacity="0"/>
<stop offset="1" stop-color="#35346C"/>
</linearGradient>
<linearGradient id="paint14_linear_70_596" x1="354.363" y1="212.454" x2="354.363" y2="54.2973" gradientUnits="userSpaceOnUse">
<stop stop-color="#DE5D83"/>
<stop offset="1" stop-color="#EAAB71"/>
</linearGradient>
<linearGradient id="paint15_linear_70_596" x1="490.301" y1="168.798" x2="242.492" y2="101.452" gradientUnits="userSpaceOnUse">
<stop stop-color="#DE5D83" stop-opacity="0"/>
<stop offset="1" stop-color="#EAAB71"/>
</linearGradient>
<linearGradient id="paint16_linear_70_596" x1="403.709" y1="91.7863" x2="405.274" y2="91.7863" gradientUnits="userSpaceOnUse">
<stop stop-color="#1D1C33"/>
<stop offset="1" stop-color="#34336A"/>
</linearGradient>
<linearGradient id="paint17_linear_70_596" x1="305.027" y1="91.7791" x2="303.462" y2="91.7791" gradientUnits="userSpaceOnUse">
<stop stop-color="#1D1C33"/>
<stop offset="1" stop-color="#34336A"/>
</linearGradient>
<linearGradient id="paint18_linear_70_596" x1="403.709" y1="113.261" x2="405.274" y2="113.261" gradientUnits="userSpaceOnUse">
<stop stop-color="#1D1C33"/>
<stop offset="1" stop-color="#34336A"/>
</linearGradient>
<linearGradient id="paint19_linear_70_596" x1="354.837" y1="132.426" x2="353.722" y2="84.6202" gradientUnits="userSpaceOnUse">
<stop stop-color="#852A82"/>
<stop offset="1" stop-color="#A72A66" stop-opacity="0.3"/>
</linearGradient>
<linearGradient id="paint20_linear_70_596" x1="335.063" y1="128.465" x2="338.791" y2="195.121" gradientUnits="userSpaceOnUse">
<stop stop-color="#852A82"/>
<stop offset="1" stop-color="#A72A66" stop-opacity="0.3"/>
</linearGradient>
<linearGradient id="paint21_linear_70_596" x1="333.38" y1="154.883" x2="338.419" y2="222.285" gradientUnits="userSpaceOnUse">
<stop stop-color="#E38579"/>
<stop offset="1" stop-color="#EAAB71" stop-opacity="0.3"/>
</linearGradient>
<linearGradient id="paint22_linear_70_596" x1="347.609" y1="153.822" x2="352.641" y2="221.225" gradientUnits="userSpaceOnUse">
<stop stop-color="#E38579"/>
<stop offset="1" stop-color="#EAAB71" stop-opacity="0.3"/>
</linearGradient>
<linearGradient id="paint23_linear_70_596" x1="347.121" y1="153.853" x2="352.153" y2="221.264" gradientUnits="userSpaceOnUse">
<stop stop-color="#E38579"/>
<stop offset="1" stop-color="#EAAB71" stop-opacity="0.3"/>
</linearGradient>
<linearGradient id="paint24_linear_70_596" x1="342.882" y1="154.175" x2="347.921" y2="221.578" gradientUnits="userSpaceOnUse">
<stop stop-color="#E38579"/>
<stop offset="1" stop-color="#EAAB71" stop-opacity="0.3"/>
</linearGradient>
<linearGradient id="paint25_linear_70_596" x1="338.117" y1="91.2367" x2="338.675" y2="130.305" gradientUnits="userSpaceOnUse">
<stop stop-color="#E38579"/>
<stop offset="1" stop-color="#EAAB71" stop-opacity="0.3"/>
</linearGradient>
<linearGradient id="paint26_linear_70_596" x1="368.091" y1="95.4559" x2="368.224" y2="104.791" gradientUnits="userSpaceOnUse">
<stop stop-color="#E38579"/>
<stop offset="1" stop-color="#EAAB71" stop-opacity="0.3"/>
</linearGradient>
<linearGradient id="paint27_linear_70_596" x1="368.146" y1="107.242" x2="368.099" y2="117.559" gradientUnits="userSpaceOnUse">
<stop stop-color="#E38579"/>
<stop offset="1" stop-color="#EAAB71" stop-opacity="0.3"/>
</linearGradient>
<linearGradient id="paint28_linear_70_596" x1="365.715" y1="107.234" x2="365.668" y2="117.551" gradientUnits="userSpaceOnUse">
<stop stop-color="#E38579"/>
<stop offset="1" stop-color="#EAAB71" stop-opacity="0.3"/>
</linearGradient>
<linearGradient id="paint29_linear_70_596" x1="354.117" y1="115.21" x2="355.427" y2="169.168" gradientUnits="userSpaceOnUse">
<stop stop-color="#852A82"/>
<stop offset="1" stop-color="#A72A66" stop-opacity="0.3"/>
</linearGradient>
<linearGradient id="paint30_linear_70_596" x1="354.546" y1="202.24" x2="353.988" y2="175.917" gradientUnits="userSpaceOnUse">
<stop stop-color="#852A82"/>
<stop offset="1" stop-color="#A72A66" stop-opacity="0.3"/>
</linearGradient>
<linearGradient id="paint31_linear_70_596" x1="340.241" y1="185.409" x2="339.872" y2="225.365" gradientUnits="userSpaceOnUse">
<stop stop-color="#852A82"/>
<stop offset="1" stop-color="#A72A66" stop-opacity="0.3"/>
</linearGradient>
<linearGradient id="paint32_linear_70_596" x1="353.926" y1="188.757" x2="355.614" y2="222.215" gradientUnits="userSpaceOnUse">
<stop stop-color="#E38579"/>
<stop offset="1" stop-color="#EAAB71" stop-opacity="0.3"/>
</linearGradient>
<linearGradient id="paint33_linear_70_596" x1="368.651" y1="185.676" x2="368.274" y2="225.632" gradientUnits="userSpaceOnUse">
<stop stop-color="#852A82"/>
<stop offset="1" stop-color="#A72A66" stop-opacity="0.3"/>
</linearGradient>
<linearGradient id="paint34_linear_70_596" x1="382.411" y1="193.573" x2="382.481" y2="210.372" gradientUnits="userSpaceOnUse">
<stop stop-color="#E38579"/>
<stop offset="1" stop-color="#EAAB71" stop-opacity="0.3"/>
</linearGradient>
<linearGradient id="paint35_linear_70_596" x1="326.324" y1="194.783" x2="326.253" y2="177.984" gradientUnits="userSpaceOnUse">
<stop stop-color="#E38579"/>
<stop offset="1" stop-color="#EAAB71" stop-opacity="0.3"/>
</linearGradient>
<linearGradient id="paint36_linear_70_596" x1="52.781" y1="216.8" x2="44.9473" y2="119.05" gradientUnits="userSpaceOnUse">
<stop stop-color="#454490"/>
<stop offset="1" stop-color="#8E8EEE"/>
</linearGradient>
<linearGradient id="paint37_linear_70_596" x1="52.781" y1="216.8" x2="44.9473" y2="119.05" gradientUnits="userSpaceOnUse">
<stop stop-color="#454490"/>
<stop offset="1" stop-color="#8E8EEE"/>
</linearGradient>
<linearGradient id="paint38_linear_70_596" x1="47.8751" y1="251.2" x2="48.715" y2="115.924" gradientUnits="userSpaceOnUse">
<stop stop-color="#454490" stop-opacity="0"/>
<stop offset="1" stop-color="#8E8EEE"/>
</linearGradient>
<linearGradient id="paint39_linear_70_596" x1="81.1083" y1="173.812" x2="19.769" y2="115.35" gradientUnits="userSpaceOnUse">
<stop stop-color="#DC449A"/>
<stop offset="0.51" stop-color="#DF8ADC"/>
<stop offset="1" stop-color="#F2D1B7"/>
</linearGradient>
<linearGradient id="paint40_linear_70_596" x1="36.4014" y1="141.124" x2="35.3731" y2="127.774" gradientUnits="userSpaceOnUse">
<stop stop-color="#DAAD7F"/>
<stop offset="1" stop-color="#F8E8A1"/>
</linearGradient>
<linearGradient id="paint41_linear_70_596" x1="64.1254" y1="156.219" x2="64.7533" y2="164.477" gradientUnits="userSpaceOnUse">
<stop stop-color="#A3FFEC"/>
<stop offset="1" stop-color="#80C3E7"/>
</linearGradient>
<linearGradient id="paint42_linear_70_596" x1="241.186" y1="162.897" x2="239.702" y2="98.0251" gradientUnits="userSpaceOnUse">
<stop stop-color="#454490"/>
<stop offset="1" stop-color="#8E8EEE"/>
</linearGradient>
<linearGradient id="paint43_linear_70_596" x1="240.564" y1="183.743" x2="240.195" y2="98.2531" gradientUnits="userSpaceOnUse">
<stop stop-color="#454490"/>
<stop offset="1" stop-color="#8E8EEE"/>
</linearGradient>
<linearGradient id="paint44_linear_70_596" x1="240.902" y1="183.617" x2="240.156" y2="109.678" gradientUnits="userSpaceOnUse">
<stop stop-color="#454490" stop-opacity="0"/>
<stop offset="1" stop-color="#8E8EEE"/>
</linearGradient>
<linearGradient id="paint45_linear_70_596" x1="242.331" y1="132.441" x2="242.425" y2="116.663" gradientUnits="userSpaceOnUse">
<stop stop-color="#DE5D83"/>
<stop offset="1" stop-color="#EAAB71"/>
</linearGradient>
<linearGradient id="paint46_linear_70_596" x1="217.366" y1="232.303" x2="213.449" y2="183.413" gradientUnits="userSpaceOnUse">
<stop stop-color="#454490"/>
<stop offset="1" stop-color="#8E8EEE"/>
</linearGradient>
<linearGradient id="paint47_linear_70_596" x1="217.366" y1="232.303" x2="213.449" y2="183.413" gradientUnits="userSpaceOnUse">
<stop stop-color="#454490"/>
<stop offset="1" stop-color="#8E8EEE"/>
</linearGradient>
<linearGradient id="paint48_linear_70_596" x1="215.449" y1="239.917" x2="215.072" y2="190.257" gradientUnits="userSpaceOnUse">
<stop stop-color="#454490" stop-opacity="0"/>
<stop offset="1" stop-color="#8E8EEE"/>
</linearGradient>
<linearGradient id="paint49_linear_70_596" x1="189.773" y1="219.849" x2="184.827" y2="198.097" gradientUnits="userSpaceOnUse">
<stop stop-color="#80C3E7"/>
<stop offset="1" stop-color="#A3FFEC"/>
</linearGradient>
<linearGradient id="paint50_linear_70_596" x1="214.646" y1="221.829" x2="207.652" y2="193.813" gradientUnits="userSpaceOnUse">
<stop stop-color="#DC449A"/>
<stop offset="0.51" stop-color="#DF8ADC"/>
<stop offset="1" stop-color="#F2D1B7"/>
</linearGradient>
<linearGradient id="paint51_linear_70_596" x1="247.422" y1="198.468" x2="246.81" y2="190.791" gradientUnits="userSpaceOnUse">
<stop stop-color="#EBB02A"/>
<stop offset="1" stop-color="#F3D478"/>
</linearGradient>
<linearGradient id="paint52_linear_70_596" x1="163.103" y1="125.479" x2="161.47" y2="105.128" gradientUnits="userSpaceOnUse">
<stop stop-color="#454490"/>
<stop offset="1" stop-color="#8E8EEE"/>
</linearGradient>
<linearGradient id="paint53_linear_70_596" x1="163.103" y1="125.479" x2="161.47" y2="105.128" gradientUnits="userSpaceOnUse">
<stop stop-color="#454490"/>
<stop offset="1" stop-color="#8E8EEE"/>
</linearGradient>
<linearGradient id="paint54_linear_70_596" x1="167.566" y1="121.088" x2="159.373" y2="110.574" gradientUnits="userSpaceOnUse">
<stop stop-color="#EBB02A"/>
<stop offset="1" stop-color="#F3D478"/>
</linearGradient>
<linearGradient id="paint55_linear_70_596" x1="163.099" y1="153.264" x2="161.466" y2="132.904" gradientUnits="userSpaceOnUse">
<stop stop-color="#454490"/>
<stop offset="1" stop-color="#8E8EEE"/>
</linearGradient>
<linearGradient id="paint56_linear_70_596" x1="163.099" y1="153.264" x2="161.466" y2="132.904" gradientUnits="userSpaceOnUse">
<stop stop-color="#454490"/>
<stop offset="1" stop-color="#8E8EEE"/>
</linearGradient>
<linearGradient id="paint57_linear_70_596" x1="166.59" y1="147.379" x2="157.98" y2="136.723" gradientUnits="userSpaceOnUse">
<stop stop-color="#DE5D83"/>
<stop offset="1" stop-color="#EAAB71"/>
</linearGradient>
<linearGradient id="paint58_linear_70_596" x1="425.42" y1="97.4046" x2="420.624" y2="37.537" gradientUnits="userSpaceOnUse">
<stop stop-color="#454490"/>
<stop offset="1" stop-color="#8E8EEE"/>
</linearGradient>
<linearGradient id="paint59_linear_70_596" x1="425.42" y1="97.4046" x2="420.624" y2="37.537" gradientUnits="userSpaceOnUse">
<stop stop-color="#454490"/>
<stop offset="1" stop-color="#8E8EEE"/>
</linearGradient>
<linearGradient id="paint60_linear_70_596" x1="425.122" y1="93.6957" x2="420.859" y2="40.5071" gradientUnits="userSpaceOnUse">
<stop stop-color="#454490" stop-opacity="0"/>
<stop offset="1" stop-color="#8E8EEE"/>
</linearGradient>
<linearGradient id="paint61_linear_70_596" x1="406.698" y1="92.9492" x2="404.453" y2="51.6338" gradientUnits="userSpaceOnUse">
<stop stop-color="#DC449A"/>
<stop offset="0.51" stop-color="#DF8ADC"/>
<stop offset="1" stop-color="#F2D1B7"/>
</linearGradient>
<linearGradient id="paint62_linear_70_596" x1="417.134" y1="92.0217" x2="417.134" y2="67.9383" gradientUnits="userSpaceOnUse">
<stop stop-color="#DE5D83"/>
<stop offset="1" stop-color="#EAAB71"/>
</linearGradient>
<linearGradient id="paint63_linear_70_596" x1="429.369" y1="96.3758" x2="428.812" y2="57.8658" gradientUnits="userSpaceOnUse">
<stop stop-color="#80C3E7"/>
<stop offset="1" stop-color="#A3FFEC"/>
</linearGradient>
<linearGradient id="paint64_linear_70_596" x1="405.625" y1="53.9361" x2="404.918" y2="46.9349" gradientUnits="userSpaceOnUse">
<stop stop-color="#454490" stop-opacity="0"/>
<stop offset="1" stop-color="#8E8EEE"/>
</linearGradient>
<linearGradient id="paint65_linear_70_596" x1="417.402" y1="68.7252" x2="416.696" y2="61.724" gradientUnits="userSpaceOnUse">
<stop stop-color="#454490" stop-opacity="0"/>
<stop offset="1" stop-color="#8E8EEE"/>
</linearGradient>
<linearGradient id="paint66_linear_70_596" x1="429.248" y1="55.319" x2="428.541" y2="48.3177" gradientUnits="userSpaceOnUse">
<stop stop-color="#454490" stop-opacity="0"/>
<stop offset="1" stop-color="#8E8EEE"/>
</linearGradient>
<linearGradient id="paint67_linear_70_596" x1="114.269" y1="44.138" x2="95.423" y2="6.58648" gradientUnits="userSpaceOnUse">
<stop stop-color="#BECCFC"/>
<stop offset="1" stop-color="#F5F7F9"/>
</linearGradient>
<clipPath id="clip0_70_596">
<rect width="471.007" height="272.901" fill="white" transform="translate(0.193359 0.709229)"/>
</clipPath>
</defs>
</svg>
