<svg width="445" height="369" viewBox="0 0 445 369" fill="none" xmlns="http://www.w3.org/2000/svg">
<g clip-path="url(#clip0_70_1619)">
<path d="M96.0024 265.183C95.0554 262.743 93.8718 260.403 92.4686 258.196L101.874 246.516L82.9148 231.161L73.5408 242.842C68.5592 240.953 63.2433 240.114 57.9245 240.378L52.5392 226.415L29.8449 235.228L35.2407 249.202C33.4035 250.715 31.7104 252.397 30.1834 254.225C30.0036 254.437 29.8343 254.66 29.6544 254.883L29.1254 255.541C27.6776 257.427 26.4062 259.442 25.3271 261.562L10.5784 259.279L6.83308 283.404L21.5818 285.708C21.9774 288.058 22.5829 290.368 23.391 292.61C23.4862 292.875 23.6026 293.141 23.6978 293.406C23.793 293.672 23.8988 293.927 24.0046 294.181C24.8999 296.404 26.0016 298.537 27.295 300.552L17.9845 312.18L36.9335 327.491L46.2969 315.811C51.2826 317.681 56.5982 318.501 61.9132 318.221L67.3091 332.216L89.9294 323.403L84.5124 309.366C86.5182 307.694 88.354 305.826 89.9929 303.791C91.6634 301.699 93.1201 299.444 94.3413 297.059L109.153 299.374L112.888 275.238L98.0761 272.923C97.6491 270.279 96.9543 267.685 96.0024 265.183ZM80.9257 289.499C80.8622 289.637 80.7987 289.764 80.7247 289.892C80.4707 290.391 80.1957 290.89 79.91 291.368L79.4974 292.047C79.254 292.419 78.9895 292.79 78.7356 293.109C78.4817 293.428 78.3018 293.682 78.0796 293.958C77.8575 294.235 77.6247 294.511 77.3919 294.787C77.1592 295.063 76.7889 295.445 76.4715 295.764L75.9107 296.326C75.4946 296.709 75.0714 297.08 74.6411 297.441L74.3025 297.707C72.4936 299.135 70.4824 300.284 68.3353 301.115C64.7436 302.512 60.8641 303 57.0401 302.534C53.2161 302.067 49.5656 300.662 46.4116 298.443C43.2575 296.223 40.6973 293.258 38.9573 289.809C37.2174 286.36 36.3515 282.533 36.4363 278.668C36.4363 278.519 36.4363 278.381 36.4363 278.243C36.4363 277.712 36.4998 277.181 36.5632 276.661C36.5632 276.332 36.6373 275.992 36.6902 275.663C36.7431 275.334 36.8066 275.005 36.8701 274.676C36.9653 274.155 37.0817 273.614 37.2192 273.136C37.2192 272.998 37.3038 272.86 37.3356 272.722C38.2096 269.768 39.6469 267.013 41.5676 264.609C43.8635 261.749 46.7945 259.468 50.1262 257.949C53.4579 256.429 57.0977 255.714 60.7544 255.859C64.411 256.005 67.983 257.007 71.1843 258.787C74.3857 260.566 77.1276 263.073 79.1906 266.107L79.4233 266.468C79.7301 266.935 80.0158 267.423 80.2909 267.922C80.4178 268.145 80.5448 268.379 80.6612 268.612C80.8728 269.016 81.0632 269.419 81.2431 269.834C81.423 270.248 81.5182 270.492 81.6451 270.821C81.7721 271.15 81.8991 271.501 82.0154 271.883C82.1318 272.265 82.2905 272.732 82.4069 273.168L82.5974 273.932C82.7243 274.484 82.8407 274.994 82.9253 275.599C82.9253 275.737 82.9253 275.886 82.9994 276.024C83.6289 280.627 82.8929 285.314 80.8834 289.499H80.9257Z" fill="white" fill-opacity="0.2"/>
<path d="M214.282 54.7911H2.71112C2.35184 54.7911 1.99614 54.7194 1.66474 54.5802C1.33334 54.4409 1.03286 54.2369 0.78079 53.98C0.52872 53.723 0.330102 53.4183 0.196503 53.0836C0.0629027 52.7489 -0.00300946 52.3908 0.00260423 52.0303C0.00260423 51.3094 0.287964 50.618 0.795909 50.1082C1.30385 49.5984 1.99277 49.312 2.71112 49.312H214.314C215.026 49.3204 215.707 49.6105 216.208 50.1194C216.709 50.6282 216.99 51.3149 216.99 52.0303C216.996 52.3908 216.93 52.7489 216.796 53.0836C216.663 53.4183 216.464 53.723 216.212 53.98C215.96 54.2369 215.66 54.4409 215.328 54.5802C214.997 54.7194 214.641 54.7911 214.282 54.7911Z" fill="#E9E2E7" fill-opacity="0.1"/>
<path d="M214.282 74.265H2.71095C1.9926 74.265 1.30368 73.9786 0.795738 73.4688C0.287794 72.959 0.00243378 72.2676 0.00243378 71.5467H0.00243378C0.00243378 70.8257 0.287794 70.1343 0.795738 69.6245C1.30368 69.1148 1.9926 68.8284 2.71095 68.8284H214.313C215.032 68.8284 215.721 69.1148 216.229 69.6245C216.737 70.1343 217.022 70.8257 217.022 71.5467C217.022 71.9063 216.951 72.2624 216.813 72.5943C216.675 72.9262 216.472 73.2273 216.217 73.4802C215.963 73.733 215.66 73.9325 215.328 74.0673C214.996 74.202 214.64 74.2692 214.282 74.265Z" fill="#E9E2E7" fill-opacity="0.1"/>
<path d="M214.282 93.7288H2.71095C1.9926 93.7288 1.30368 93.4424 0.795738 92.9327C0.287794 92.4229 0.00243378 91.7315 0.00243378 91.0105H0.00243378C0.00243378 90.2896 0.287794 89.5982 0.795738 89.0884C1.30368 88.5786 1.9926 88.2922 2.71095 88.2922H214.313C215.032 88.2922 215.721 88.5786 216.229 89.0884C216.737 89.5982 217.022 90.2896 217.022 91.0105C217.022 91.3702 216.951 91.7263 216.813 92.0582C216.675 92.3901 216.472 92.6912 216.217 92.944C215.963 93.1969 215.66 93.3964 215.328 93.5311C214.996 93.6659 214.64 93.733 214.282 93.7288Z" fill="#E9E2E7" fill-opacity="0.1"/>
<path d="M214.282 107.767H2.71095C1.21508 107.767 0.00243378 108.984 0.00243378 110.485C0.00243378 111.987 1.21508 113.204 2.71095 113.204H214.282C215.778 113.204 216.99 111.987 216.99 110.485C216.99 108.984 215.778 107.767 214.282 107.767Z" fill="#E9E2E7" fill-opacity="0.1"/>
<path d="M214.282 132.731H2.71146C2.35128 132.731 1.9947 132.659 1.66259 132.519C1.33049 132.379 1.02952 132.174 0.777306 131.916C0.525094 131.658 0.326702 131.352 0.19374 131.016C0.0607773 130.68 -0.00408434 130.321 0.00295047 129.959C0.00295047 129.238 0.288311 128.547 0.796255 128.037C1.3042 127.527 1.99312 127.241 2.71146 127.241H214.314C215.032 127.241 215.721 127.527 216.229 128.037C216.737 128.547 217.022 129.238 217.022 129.959C217.03 130.323 216.964 130.685 216.829 131.023C216.694 131.361 216.493 131.669 216.237 131.927C215.981 132.186 215.677 132.39 215.341 132.528C215.005 132.666 214.645 132.735 214.282 132.731Z" fill="#E9E2E7" fill-opacity="0.1"/>
<path d="M214.282 152.14H2.71095C1.9926 152.14 1.30368 151.854 0.795738 151.344C0.287794 150.835 0.00243378 150.143 0.00243378 149.422H0.00243378C0.00243378 148.701 0.287794 148.01 0.795738 147.5C1.30368 146.99 1.9926 146.704 2.71095 146.704H214.313C215.032 146.704 215.721 146.99 216.229 147.5C216.737 148.01 217.022 148.701 217.022 149.422C217.022 149.782 216.951 150.138 216.813 150.47C216.675 150.802 216.472 151.103 216.217 151.356C215.963 151.608 215.66 151.808 215.328 151.943C214.996 152.077 214.64 152.145 214.282 152.14Z" fill="#E9E2E7" fill-opacity="0.1"/>
<path d="M214.282 171.615H2.71095C1.9926 171.615 1.30368 171.329 0.795738 170.819C0.287794 170.309 0.00243378 169.618 0.00243378 168.897H0.00243378C0.00243378 168.176 0.287794 167.485 0.795738 166.975C1.30368 166.465 1.9926 166.179 2.71095 166.179H214.313C215.032 166.179 215.721 166.465 216.229 166.975C216.737 167.485 217.022 168.176 217.022 168.897C217.022 169.257 216.951 169.613 216.813 169.945C216.675 170.277 216.472 170.578 216.217 170.831C215.963 171.083 215.66 171.283 215.328 171.418C214.996 171.552 214.64 171.62 214.282 171.615Z" fill="#E9E2E7" fill-opacity="0.1"/>
<path d="M214.282 191.132H2.71128C2.352 191.132 1.9963 191.06 1.6649 190.921C1.3335 190.782 1.03302 190.577 0.78095 190.321C0.52888 190.064 0.330263 189.759 0.196663 189.424C0.0630629 189.089 -0.00284924 188.731 0.00276445 188.371C0.00276445 187.65 0.288125 186.959 0.796069 186.449C1.30401 185.939 1.99293 185.653 2.71128 185.653H214.314C215.032 185.653 215.721 185.939 216.229 186.449C216.737 186.959 217.022 187.65 217.022 188.371C217.028 188.734 216.961 189.095 216.825 189.432C216.69 189.768 216.488 190.075 216.233 190.332C215.977 190.589 215.673 190.793 215.338 190.93C215.003 191.067 214.644 191.136 214.282 191.132Z" fill="#E9E2E7" fill-opacity="0.1"/>
<path d="M214.282 210.552H2.71095C1.9926 210.552 1.30368 210.265 0.795738 209.756C0.287794 209.246 0.00243378 208.554 0.00243378 207.834H0.00243378C0.00243378 207.113 0.287794 206.421 0.795738 205.911C1.30368 205.402 1.9926 205.115 2.71095 205.115H214.313C215.032 205.115 215.721 205.402 216.229 205.911C216.737 206.421 217.022 207.113 217.022 207.834C217.022 208.193 216.951 208.549 216.813 208.881C216.675 209.213 216.472 209.514 216.217 209.767C215.963 210.02 215.66 210.219 215.328 210.354C214.996 210.489 214.64 210.556 214.282 210.552Z" fill="#E9E2E7" fill-opacity="0.1"/>
<path d="M214.971 349.259C304.694 349.259 377.429 342.366 377.429 333.862C377.429 325.359 304.694 318.466 214.971 318.466C125.248 318.466 52.5134 325.359 52.5134 333.862C52.5134 342.366 125.248 349.259 214.971 349.259Z" fill="white" fill-opacity="0.2"/>
<path d="M262.042 334.68H167.89L184.077 287.821H245.854L262.042 334.68Z" fill="url(#paint0_linear_70_1619)"/>
<path d="M64.103 145.28H365.827V295.19C365.827 299.499 364.121 303.631 361.086 306.678C358.05 309.725 353.933 311.436 349.639 311.436H80.2906C75.9973 311.436 71.88 309.725 68.8442 306.678C65.8084 303.631 64.103 299.499 64.103 295.19V145.28Z" fill="url(#paint1_linear_70_1619)"/>
<path d="M80.2906 98.6975H349.629C353.922 98.6975 358.039 100.409 361.075 103.456C364.111 106.503 365.816 110.635 365.816 114.944V273.03H64.103V114.944C64.103 110.635 65.8084 106.503 68.8442 103.456C71.88 100.409 75.9973 98.6975 80.2906 98.6975Z" fill="#7C4992"/>
<path d="M354.209 115.103H76.2269V256.295H354.209V115.103Z" fill="url(#paint2_linear_70_1619)"/>
<path style="mix-blend-mode:multiply" d="M214.969 299.076C219.819 299.076 223.751 295.13 223.751 290.263C223.751 285.396 219.819 281.45 214.969 281.45C210.119 281.45 206.188 285.396 206.188 290.263C206.188 295.13 210.119 299.076 214.969 299.076Z" fill="url(#paint3_linear_70_1619)"/>
<path d="M286.575 334.68H143.363C143.361 333.533 143.585 332.397 144.022 331.337C144.458 330.277 145.099 329.313 145.906 328.502C146.714 327.69 147.673 327.046 148.729 326.607C149.785 326.168 150.917 325.941 152.06 325.941H277.868C279.011 325.941 280.144 326.167 281.2 326.607C282.257 327.046 283.216 327.69 284.025 328.501C284.834 329.312 285.475 330.276 285.913 331.336C286.35 332.396 286.575 333.533 286.575 334.68Z" fill="url(#paint4_linear_70_1619)"/>
<path d="M350.487 368.86C386.844 368.86 416.317 364.629 416.317 359.409C416.317 354.19 386.844 349.959 350.487 349.959C314.131 349.959 284.658 354.19 284.658 359.409C284.658 364.629 314.131 368.86 350.487 368.86Z" fill="white" fill-opacity="0.2"/>
<path d="M383.425 209.893H317.553C312.358 209.893 308.147 214.119 308.147 219.332V346.317C308.147 351.531 312.358 355.757 317.553 355.757H383.425C388.619 355.757 392.831 351.531 392.831 346.317V219.332C392.831 214.119 388.619 209.893 383.425 209.893Z" fill="white"/>
<path d="M392.831 220.044H308.147V345.001H392.831V220.044Z" fill="url(#paint5_linear_70_1619)"/>
<g filter="url(#filter0_d_70_1619)">
<path d="M371.577 252.218H329.415C324.22 252.218 320.009 256.444 320.009 261.658V303.972C320.009 309.185 324.22 313.412 329.415 313.412H371.577C376.771 313.412 380.983 309.185 380.983 303.972V261.658C380.983 256.444 376.771 252.218 371.577 252.218Z" fill="url(#paint6_linear_70_1619)"/>
</g>
<g filter="url(#filter1_d_70_1619)">
<path d="M350.486 306.245C345.87 306.245 341.357 304.871 337.519 302.297C333.681 299.723 330.69 296.065 328.923 291.785C327.157 287.504 326.694 282.795 327.595 278.251C328.495 273.707 330.718 269.533 333.982 266.257C337.247 262.981 341.405 260.75 345.933 259.847C350.46 258.943 355.153 259.407 359.418 261.18C363.683 262.952 367.328 265.955 369.892 269.807C372.457 273.659 373.826 278.188 373.826 282.821C373.82 289.031 371.359 294.986 366.984 299.378C362.608 303.769 356.675 306.239 350.486 306.245ZM350.486 263.771C346.72 263.771 343.038 264.892 339.906 266.992C336.774 269.093 334.333 272.078 332.892 275.57C331.45 279.063 331.073 282.906 331.808 286.613C332.543 290.321 334.356 293.726 337.02 296.399C339.683 299.072 343.077 300.893 346.771 301.63C350.465 302.368 354.294 301.989 357.774 300.542C361.254 299.096 364.228 296.646 366.321 293.503C368.413 290.36 369.53 286.665 369.53 282.884C369.536 280.371 369.047 277.881 368.093 275.557C367.138 273.233 365.736 271.121 363.967 269.342C362.198 267.563 360.097 266.151 357.784 265.188C355.471 264.225 352.991 263.729 350.486 263.729V263.771Z" fill="white"/>
<path d="M348.802 291.729L340.635 284.519L344.063 280.622L348.316 284.381L356.441 275.068L360.335 278.477L348.802 291.729Z" fill="white"/>
</g>
<path d="M361.103 225.004H339.879C338.307 225.004 336.8 224.377 335.689 223.262C334.578 222.147 333.954 220.634 333.954 219.057H367.027C367.027 220.634 366.403 222.147 365.292 223.262C364.181 224.377 362.674 225.004 361.103 225.004Z" fill="white"/>
<path opacity="0.15" d="M358.153 220.043H342.802C342.672 220.043 342.544 220.018 342.425 219.968C342.306 219.919 342.197 219.846 342.106 219.754C342.014 219.662 341.942 219.554 341.893 219.434C341.843 219.314 341.818 219.186 341.818 219.056C341.818 218.794 341.921 218.543 342.106 218.358C342.29 218.172 342.541 218.068 342.802 218.068H358.122C358.383 218.068 358.633 218.172 358.817 218.358C359.002 218.543 359.106 218.794 359.106 219.056C359.108 219.313 359.01 219.561 358.832 219.746C358.653 219.931 358.41 220.038 358.153 220.043Z" fill="white"/>
<g filter="url(#filter2_d_70_1619)">
<path d="M288.31 83.928H121.81C116.616 83.928 112.404 88.1543 112.404 93.3677V194.401C112.404 199.615 116.616 203.841 121.81 203.841H288.31C293.504 203.841 297.715 199.615 297.715 194.401V93.3677C297.715 88.1543 293.504 83.928 288.31 83.928Z" fill="url(#paint7_linear_70_1619)"/>
</g>
<path d="M288.312 93.3679H121.812V194.402H288.312V93.3679Z" fill="white"/>
<path d="M156.887 106.863H139.567V109.209H156.887V106.863Z" fill="#5854F6"/>
<path d="M197.812 106.863H162.368V109.209H197.812V106.863Z" fill="#5854F6"/>
<path d="M164.242 116.377H146.922V118.724H164.242V116.377Z" fill="white"/>
<path d="M270.987 116.377H169.714V118.724H270.987V116.377Z" fill="#961DF6"/>
<path d="M164.242 125.212H146.922V127.558H164.242V125.212Z" fill="white"/>
<path d="M270.987 125.212H169.714V127.558H270.987V125.212Z" fill="#961DF6"/>
<path d="M164.242 134.046H146.922V136.393H164.242V134.046Z" fill="white"/>
<path d="M270.987 134.047H169.714V136.394H270.987V134.047Z" fill="#961DF6"/>
<path d="M164.242 142.869H146.922V145.216H164.242V142.869Z" fill="white"/>
<path d="M156.887 152.214H139.567V154.561H156.887V152.214Z" fill="#5854F6"/>
<path d="M197.812 152.214H162.368V154.561H197.812V152.214Z" fill="#5854F6"/>
<path d="M235.015 161.728H169.714V164.074H235.015V161.728Z" fill="white"/>
<path d="M235.015 170.563H169.714V172.91H235.015V170.563Z" fill="white"/>
<path d="M164.227 170.563H158.482V172.91H164.227V170.563Z" fill="#961DF6"/>
<path d="M164.242 179.398H146.922V181.744H164.242V179.398Z" fill="#961DF6"/>
<path d="M235.015 179.398H169.714V181.744H235.015V179.398Z" fill="white"/>
<path d="M271.73 161.728H239.725V164.074H271.73V161.728Z" fill="white"/>
<path d="M271.73 170.563H239.725V172.91H271.73V170.563Z" fill="white"/>
<path d="M271.73 179.398H239.725V181.744H271.73V179.398Z" fill="white"/>
<path d="M270.987 142.87H169.714V145.217H270.987V142.87Z" fill="#961DF6"/>
<path d="M82.1899 131.116H28.5381C23.3434 131.116 19.1324 135.343 19.1324 140.556V194.402C19.1324 199.615 23.3434 203.841 28.5381 203.841H82.1899C87.3845 203.841 91.5956 199.615 91.5956 194.402V140.556C91.5956 135.343 87.3845 131.116 82.1899 131.116Z" fill="url(#paint8_linear_70_1619)"/>
<g filter="url(#filter3_d_70_1619)">
<path d="M72.0664 167.44C72.0675 166.31 71.954 165.182 71.7278 164.074L77.3247 160.836L72.0346 151.714L66.4483 154.953C64.7385 153.417 62.7327 152.25 60.5552 151.523V145.067H50.1232V151.523C49.1511 151.851 48.2094 152.263 47.3089 152.755L47.0021 152.936L46.6847 153.116C45.8099 153.649 44.9848 154.261 44.2195 154.942L38.6543 151.757L33.3643 160.878L38.94 164.064C38.7293 165.066 38.6124 166.087 38.5909 167.111V167.844C38.613 168.872 38.7299 169.896 38.94 170.902L33.3643 174.087L38.6543 183.198L44.2195 180.012C45.9333 181.543 47.943 182.704 50.1232 183.421V189.888H60.6081V183.4C61.6742 183.044 62.7021 182.581 63.6763 182.019C64.6719 181.438 65.6075 180.758 66.4695 179.991L72.0875 183.24L77.3776 174.13L71.7596 170.87C71.9804 169.741 72.0832 168.591 72.0664 167.44ZM62.2374 174.873L62.0999 175.001L61.5392 175.468L61.2641 175.67L60.788 175.999L60.3965 176.243L59.9945 176.466L59.4655 176.71L59.1586 176.848C58.9259 176.944 58.7037 177.029 58.4709 177.103H58.2911C57.345 177.395 56.3606 177.541 55.3709 177.538C53.7093 177.539 52.0731 177.129 50.6073 176.344C49.1415 175.558 47.8913 174.422 46.9674 173.036C46.0435 171.65 45.4745 170.057 45.3108 168.397C45.147 166.738 45.3936 165.063 46.0287 163.522C46.0597 163.468 46.0846 163.411 46.1028 163.352C46.198 163.15 46.2932 162.938 46.399 162.736C46.4633 162.609 46.5339 162.485 46.6106 162.365C46.6784 162.237 46.7525 162.113 46.8328 161.993C46.95 161.799 47.0771 161.611 47.2137 161.43L47.3195 161.282C48.3281 159.958 49.646 158.905 51.1568 158.214C52.6676 157.524 54.3246 157.217 55.9814 157.322C57.6382 157.427 59.2437 157.94 60.6559 158.816C62.0681 159.692 63.2436 160.903 64.0784 162.343C64.5679 163.205 64.9246 164.136 65.1364 165.104C65.1415 165.164 65.1415 165.225 65.1364 165.285C65.1893 165.518 65.2316 165.763 65.2634 166.007C65.2951 166.251 65.2634 166.23 65.2634 166.347C65.2634 166.463 65.2634 166.729 65.2634 166.92C65.2634 167.111 65.2634 167.228 65.2634 167.387C65.2634 167.546 65.2634 167.695 65.2634 167.844C65.2634 167.992 65.2634 168.237 65.2634 168.428C65.2634 168.619 65.2634 168.651 65.2634 168.768C65.2634 168.884 65.1893 169.245 65.1364 169.49C65.1401 169.55 65.1401 169.61 65.1364 169.67C64.9246 170.639 64.5679 171.57 64.0784 172.431C63.5853 173.323 62.9652 174.139 62.2374 174.852V174.873Z" fill="white"/>
</g>
<g filter="url(#filter4_d_70_1619)">
<path d="M165.869 220.405H93.4161C88.2214 220.405 84.0103 224.632 84.0103 229.845V274.251C84.0103 279.464 88.2214 283.691 93.4161 283.691H165.869C171.063 283.691 175.274 279.464 175.274 274.251V229.845C175.274 224.632 171.063 220.405 165.869 220.405Z" fill="url(#paint9_linear_70_1619)"/>
</g>
<g filter="url(#filter5_d_70_1619)">
<path d="M116.451 237.119L99.2792 252.048L116.451 266.967V258.886L108.579 252.048L116.451 245.21V237.119Z" fill="white"/>
<path d="M142.847 266.967L160.029 252.048L142.847 237.119V245.21L150.719 252.048L142.847 258.886V266.967Z" fill="white"/>
<path d="M127.993 271.841H120.714L131.315 232.256H138.584L127.993 271.841Z" fill="white"/>
</g>
<path d="M409.922 46.4014H328.063C322.869 46.4014 318.658 50.6277 318.658 55.8411V137.995C318.658 143.209 322.869 147.435 328.063 147.435H409.922C415.116 147.435 419.327 143.209 419.327 137.995V55.8411C419.327 50.6277 415.116 46.4014 409.922 46.4014Z" fill="url(#paint10_linear_70_1619)"/>
<g filter="url(#filter6_d_70_1619)">
<path d="M393.931 78.2881C391.923 78.3026 389.943 78.7632 388.133 79.6366C386.938 75.361 384.394 71.5896 380.882 68.8883C377.37 66.187 373.08 64.7016 368.656 64.6549C364.232 64.6083 359.912 66.0029 356.344 68.6295C352.777 71.2561 350.154 74.973 348.87 79.2225C347.332 78.6368 345.701 78.3382 344.056 78.3411C340.45 78.3411 336.991 79.7744 334.435 82.3274C331.879 84.8805 330.435 88.3455 330.418 91.9645H407.568C407.566 88.3363 406.128 84.8577 403.57 82.2931C401.013 79.7286 397.546 78.2881 393.931 78.2881Z" fill="white"/>
<path d="M354.806 115.007L368.994 129.246L383.181 115.007H373.617V98.2085H364.359V115.007H354.806Z" fill="white"/>
</g>
<path d="M82.1899 41.8362H28.5381C23.3434 41.8362 19.1324 46.0625 19.1324 51.2759V105.122C19.1324 110.335 23.3434 114.561 28.5381 114.561H82.1899C87.3845 114.561 91.5956 110.335 91.5956 105.122V51.2759C91.5956 46.0625 87.3845 41.8362 82.1899 41.8362Z" fill="url(#paint11_linear_70_1619)"/>
<path d="M83.0335 50.4263H27.6888V105.971H83.0335V50.4263Z" fill="white"/>
<path d="M42.1433 61.2356H37.0543V63.5823H42.1433V61.2356Z" fill="white"/>
<path d="M70.8458 61.2356H44.8081V63.5823H70.8458V61.2356Z" fill="#961DF6"/>
<path d="M44.9682 69.1252H37.0543V71.4719H44.9682V69.1252Z" fill="white"/>
<path d="M73.6677 69.1252H47.63V71.4719H73.6677V69.1252Z" fill="#961DF6"/>
<path d="M42.1433 83.9597H37.0543V86.3064H42.1433V83.9597Z" fill="white"/>
<path d="M70.8458 83.9597H44.8081V86.3064H70.8458V83.9597Z" fill="#961DF6"/>
<path d="M44.9682 91.8381H37.0543V94.1848H44.9682V91.8381Z" fill="white"/>
<path d="M73.6677 91.8381H47.63V94.1848H73.6677V91.8381Z" fill="#961DF6"/>
<path d="M40.2728 77.0137H32.3589V79.3603H40.2728V77.0137Z" fill="white"/>
<path d="M78.3717 77.0137H42.9283V79.3603H78.3717V77.0137Z" fill="#961DF6"/>
<g style="mix-blend-mode:multiply">
<path d="M238.163 218.419H216.939V239.72H238.163V218.419Z" fill="#DDA1F6"/>
</g>
<g style="mix-blend-mode:multiply">
<path d="M268.99 218.419H247.766V239.72H268.99V218.419Z" fill="#DDA1F6"/>
</g>
<g style="mix-blend-mode:multiply">
<path d="M299.834 218.419H278.61V239.72H299.834V218.419Z" fill="#DDA1F6"/>
</g>
<g style="mix-blend-mode:multiply">
<path d="M342.1 160.56H310.095V162.907H342.1V160.56Z" fill="#DDA1F6"/>
</g>
<g style="mix-blend-mode:multiply">
<path d="M342.1 169.385H310.095V171.732H342.1V169.385Z" fill="#DDA1F6"/>
</g>
<g style="mix-blend-mode:multiply">
<path d="M342.1 178.218H310.095V180.565H342.1V178.218Z" fill="#DDA1F6"/>
</g>
</g>
<defs>
<filter id="filter0_d_70_1619" x="294.642" y="248.006" width="111.708" height="111.928" filterUnits="userSpaceOnUse" color-interpolation-filters="sRGB">
<feFlood flood-opacity="0" result="BackgroundImageFix"/>
<feColorMatrix in="SourceAlpha" type="matrix" values="0 0 0 0 0 0 0 0 0 0 0 0 0 0 0 0 0 0 127 0" result="hardAlpha"/>
<feOffset dy="21.1553"/>
<feGaussianBlur stdDeviation="12.6837"/>
<feColorMatrix type="matrix" values="0 0 0 0 0.498039 0 0 0 0 0.0627451 0 0 0 0 0.8 0 0 0 1 0"/>
<feBlend mode="normal" in2="BackgroundImageFix" result="effect1_dropShadow_70_1619"/>
<feBlend mode="normal" in="SourceGraphic" in2="effect1_dropShadow_70_1619" result="shape"/>
</filter>
<filter id="filter1_d_70_1619" x="309.299" y="250.473" width="82.3747" height="82.5433" filterUnits="userSpaceOnUse" color-interpolation-filters="sRGB">
<feFlood flood-opacity="0" result="BackgroundImageFix"/>
<feColorMatrix in="SourceAlpha" type="matrix" values="0 0 0 0 0 0 0 0 0 0 0 0 0 0 0 0 0 0 127 0" result="hardAlpha"/>
<feOffset dy="8.9238"/>
<feGaussianBlur stdDeviation="8.9238"/>
<feColorMatrix type="matrix" values="0 0 0 0 0.643137 0 0 0 0 0.113725 0 0 0 0 0.964706 0 0 0 1 0"/>
<feBlend mode="normal" in2="BackgroundImageFix" result="effect1_dropShadow_70_1619"/>
<feBlend mode="normal" in="SourceGraphic" in2="effect1_dropShadow_70_1619" result="shape"/>
</filter>
<filter id="filter2_d_70_1619" x="87.0371" y="79.7159" width="236.046" height="170.648" filterUnits="userSpaceOnUse" color-interpolation-filters="sRGB">
<feFlood flood-opacity="0" result="BackgroundImageFix"/>
<feColorMatrix in="SourceAlpha" type="matrix" values="0 0 0 0 0 0 0 0 0 0 0 0 0 0 0 0 0 0 127 0" result="hardAlpha"/>
<feOffset dy="21.1553"/>
<feGaussianBlur stdDeviation="12.6837"/>
<feColorMatrix type="matrix" values="0 0 0 0 0.643137 0 0 0 0 0.113725 0 0 0 0 0.964706 0 0 0 1 0"/>
<feBlend mode="normal" in2="BackgroundImageFix" result="effect1_dropShadow_70_1619"/>
<feBlend mode="normal" in="SourceGraphic" in2="effect1_dropShadow_70_1619" result="shape"/>
</filter>
<filter id="filter3_d_70_1619" x="15.5167" y="136.144" width="79.7085" height="80.5153" filterUnits="userSpaceOnUse" color-interpolation-filters="sRGB">
<feFlood flood-opacity="0" result="BackgroundImageFix"/>
<feColorMatrix in="SourceAlpha" type="matrix" values="0 0 0 0 0 0 0 0 0 0 0 0 0 0 0 0 0 0 127 0" result="hardAlpha"/>
<feOffset dy="8.9238"/>
<feGaussianBlur stdDeviation="8.9238"/>
<feColorMatrix type="matrix" values="0 0 0 0 0.643137 0 0 0 0 0.113725 0 0 0 0 0.964706 0 0 0 1 0"/>
<feBlend mode="normal" in2="BackgroundImageFix" result="effect1_dropShadow_70_1619"/>
<feBlend mode="normal" in="SourceGraphic" in2="effect1_dropShadow_70_1619" result="shape"/>
</filter>
<filter id="filter4_d_70_1619" x="58.643" y="216.193" width="141.999" height="114.02" filterUnits="userSpaceOnUse" color-interpolation-filters="sRGB">
<feFlood flood-opacity="0" result="BackgroundImageFix"/>
<feColorMatrix in="SourceAlpha" type="matrix" values="0 0 0 0 0 0 0 0 0 0 0 0 0 0 0 0 0 0 127 0" result="hardAlpha"/>
<feOffset dy="21.1553"/>
<feGaussianBlur stdDeviation="12.6837"/>
<feColorMatrix type="matrix" values="0 0 0 0 0.643137 0 0 0 0 0.113725 0 0 0 0 0.964706 0 0 0 1 0"/>
<feBlend mode="normal" in2="BackgroundImageFix" result="effect1_dropShadow_70_1619"/>
<feBlend mode="normal" in="SourceGraphic" in2="effect1_dropShadow_70_1619" result="shape"/>
</filter>
<filter id="filter5_d_70_1619" x="81.4316" y="223.332" width="96.4454" height="75.2804" filterUnits="userSpaceOnUse" color-interpolation-filters="sRGB">
<feFlood flood-opacity="0" result="BackgroundImageFix"/>
<feColorMatrix in="SourceAlpha" type="matrix" values="0 0 0 0 0 0 0 0 0 0 0 0 0 0 0 0 0 0 127 0" result="hardAlpha"/>
<feOffset dy="8.9238"/>
<feGaussianBlur stdDeviation="8.9238"/>
<feColorMatrix type="matrix" values="0 0 0 0 0.643137 0 0 0 0 0.113725 0 0 0 0 0.964706 0 0 0 1 0"/>
<feBlend mode="normal" in2="BackgroundImageFix" result="effect1_dropShadow_70_1619"/>
<feBlend mode="normal" in="SourceGraphic" in2="effect1_dropShadow_70_1619" result="shape"/>
</filter>
<filter id="filter6_d_70_1619" x="312.571" y="55.73" width="112.845" height="100.287" filterUnits="userSpaceOnUse" color-interpolation-filters="sRGB">
<feFlood flood-opacity="0" result="BackgroundImageFix"/>
<feColorMatrix in="SourceAlpha" type="matrix" values="0 0 0 0 0 0 0 0 0 0 0 0 0 0 0 0 0 0 127 0" result="hardAlpha"/>
<feOffset dy="8.9238"/>
<feGaussianBlur stdDeviation="8.9238"/>
<feColorMatrix type="matrix" values="0 0 0 0 0.643137 0 0 0 0 0.113725 0 0 0 0 0.964706 0 0 0 1 0"/>
<feBlend mode="normal" in2="BackgroundImageFix" result="effect1_dropShadow_70_1619"/>
<feBlend mode="normal" in="SourceGraphic" in2="effect1_dropShadow_70_1619" result="shape"/>
</filter>
<linearGradient id="paint0_linear_70_1619" x1="183.802" y1="288.097" x2="246.354" y2="350.424" gradientUnits="userSpaceOnUse">
<stop offset="0.23" stop-color="#DDA1F6"/>
<stop offset="0.46" stop-color="#DEA5F6"/>
<stop offset="0.68" stop-color="#E1B1F6"/>
<stop offset="0.9" stop-color="#E6C5F6"/>
<stop offset="1" stop-color="#E9D0F6"/>
</linearGradient>
<linearGradient id="paint1_linear_70_1619" x1="100.499" y1="108.753" x2="330.247" y2="337.673" gradientUnits="userSpaceOnUse">
<stop stop-color="#E9D0F6"/>
<stop offset="1" stop-color="#DDA1F6"/>
</linearGradient>
<linearGradient id="paint2_linear_70_1619" x1="110.559" y1="80.6568" x2="320.642" y2="289.983" gradientUnits="userSpaceOnUse">
<stop stop-color="#F62A7D"/>
<stop offset="1" stop-color="#D979F6"/>
</linearGradient>
<linearGradient id="paint3_linear_70_1619" x1="208.759" y1="284.03" x2="221.225" y2="296.451" gradientUnits="userSpaceOnUse">
<stop stop-color="#DDA1F6"/>
<stop offset="1" stop-color="#E9D0F6"/>
</linearGradient>
<linearGradient id="paint4_linear_70_1619" x1="178.256" y1="296.029" x2="251.937" y2="369.444" gradientUnits="userSpaceOnUse">
<stop stop-color="#DDA1F6"/>
<stop offset="1" stop-color="#CB6FF6"/>
</linearGradient>
<linearGradient id="paint5_linear_70_1619" x1="298.191" y1="230.046" x2="403.164" y2="334.641" gradientUnits="userSpaceOnUse">
<stop stop-color="#F62A7D"/>
<stop offset="1" stop-color="#D979F6"/>
</linearGradient>
<linearGradient id="paint6_linear_70_1619" x1="322.76" y1="254.989" x2="378.432" y2="310.461" gradientUnits="userSpaceOnUse">
<stop stop-color="#6F33F6"/>
<stop offset="1" stop-color="#5033DD"/>
</linearGradient>
<linearGradient id="paint7_linear_70_1619" x1="131.618" y1="70.1772" x2="279.032" y2="217.06" gradientUnits="userSpaceOnUse">
<stop stop-color="#7333D9"/>
<stop offset="1" stop-color="#5033DD"/>
</linearGradient>
<linearGradient id="paint8_linear_70_1619" x1="21.8938" y1="133.888" x2="89.0864" y2="200.838" gradientUnits="userSpaceOnUse">
<stop stop-color="#7333D9"/>
<stop offset="1" stop-color="#5033DD"/>
</linearGradient>
<linearGradient id="paint9_linear_70_1619" x1="93.8181" y1="216.094" x2="165.736" y2="287.742" gradientUnits="userSpaceOnUse">
<stop stop-color="#7333D9"/>
<stop offset="1" stop-color="#5033DD"/>
</linearGradient>
<linearGradient id="paint10_linear_70_1619" x1="321.419" y1="49.1728" x2="416.92" y2="144.33" gradientUnits="userSpaceOnUse">
<stop stop-color="#7333D9"/>
<stop offset="1" stop-color="#5033DD"/>
</linearGradient>
<linearGradient id="paint11_linear_70_1619" x1="21.8938" y1="44.597" x2="89.0864" y2="111.548" gradientUnits="userSpaceOnUse">
<stop stop-color="#7333D9"/>
<stop offset="1" stop-color="#5033DD"/>
</linearGradient>
<clipPath id="clip0_70_1619">
<rect width="445" height="368.85" fill="white"/>
</clipPath>
</defs>
</svg>
