<svg width="41" height="41" viewBox="0 0 41 41" fill="none" xmlns="http://www.w3.org/2000/svg">
<g clip-path="url(#clip0_1_51)">
<path d="M34.8332 8.40427C32.2832 7.25427 29.5498 6.40427 26.6915 5.92093C26.666 5.91605 26.6397 5.91919 26.6161 5.92994C26.5925 5.94069 26.5729 5.95851 26.5598 5.98093C26.2098 6.59593 25.8198 7.3976 25.5465 8.03093C22.515 7.57799 19.433 7.57799 16.4015 8.03093C16.0971 7.32903 15.7538 6.64464 15.3732 5.98093C15.3603 5.95824 15.3408 5.94002 15.3172 5.9287C15.2937 5.91738 15.2673 5.91351 15.2415 5.9176C12.3848 6.40093 9.6515 7.25093 7.09984 8.4026C7.07789 8.41181 7.05927 8.42751 7.0465 8.4476C1.85984 16.0726 0.438171 23.5093 1.1365 30.8526C1.13845 30.8706 1.14403 30.888 1.15291 30.9037C1.16179 30.9195 1.17379 30.9333 1.18817 30.9443C4.21549 33.1483 7.59207 34.8273 11.1765 35.9109C11.2015 35.9186 11.2282 35.9186 11.2532 35.9109C11.2782 35.9031 11.3002 35.8881 11.3165 35.8676C12.0878 34.8361 12.7713 33.7417 13.3598 32.5959C13.368 32.5803 13.3727 32.563 13.3736 32.5454C13.3746 32.5277 13.3717 32.5101 13.3652 32.4937C13.3587 32.4772 13.3488 32.4624 13.3361 32.4501C13.3234 32.4379 13.3082 32.4285 13.2915 32.4226C12.2148 32.0171 11.1716 31.5279 10.1715 30.9593C10.1535 30.949 10.1384 30.9344 10.1274 30.9169C10.1165 30.8993 10.11 30.8793 10.1087 30.8587C10.1074 30.838 10.1112 30.8174 10.1199 30.7986C10.1285 30.7798 10.1417 30.7634 10.1582 30.7509C10.3682 30.5959 10.5782 30.4343 10.7782 30.2726C10.7962 30.2581 10.8179 30.2488 10.8408 30.2459C10.8638 30.2429 10.8871 30.2464 10.9082 30.2559C17.4532 33.1959 24.5415 33.1959 31.0098 30.2559C31.031 30.2458 31.0545 30.2419 31.0778 30.2446C31.1011 30.2472 31.1232 30.2563 31.1415 30.2709C31.3415 30.4343 31.5498 30.5959 31.7615 30.7509C31.7782 30.7631 31.7916 30.7793 31.8005 30.7979C31.8094 30.8166 31.8135 30.8371 31.8125 30.8578C31.8115 30.8784 31.8054 30.8985 31.7948 30.9162C31.7841 30.9339 31.7693 30.9487 31.7515 30.9593C30.7548 31.5326 29.7182 32.0176 28.6298 32.4209C28.6131 32.427 28.5979 32.4366 28.5852 32.449C28.5725 32.4614 28.5625 32.4764 28.5561 32.493C28.5496 32.5095 28.5467 32.5273 28.5477 32.545C28.5486 32.5628 28.5533 32.5801 28.5615 32.5959C29.1615 33.7409 29.8482 34.8309 30.6032 35.8659C30.6189 35.8872 30.6407 35.903 30.6658 35.9114C30.6908 35.9198 30.7179 35.9202 30.7432 35.9126C34.3338 34.832 37.7158 33.1522 40.7465 30.9443C40.7613 30.9339 40.7737 30.9206 40.7829 30.905C40.7921 30.8895 40.7979 30.8722 40.7998 30.8543C41.6332 22.3643 39.4032 14.9876 34.8848 8.45093C34.8738 8.42969 34.8554 8.41313 34.8332 8.40427ZM14.3382 26.3809C12.3682 26.3809 10.7432 24.5993 10.7432 22.4143C10.7432 20.2276 12.3365 18.4476 14.3382 18.4476C16.3548 18.4476 17.9648 20.2426 17.9332 22.4143C17.9332 24.6009 16.3398 26.3809 14.3382 26.3809ZM27.6298 26.3809C25.6582 26.3809 24.0348 24.5993 24.0348 22.4143C24.0348 20.2276 25.6265 18.4476 27.6298 18.4476C29.6465 18.4476 31.2565 20.2426 31.2248 22.4143C31.2248 24.6009 29.6482 26.3809 27.6298 26.3809Z" fill="white"/>
</g>
<defs>
<clipPath id="clip0_1_51">
<rect width="40" height="40" fill="white" transform="translate(0.970703 0.917969)"/>
</clipPath>
</defs>
</svg>
