<svg width="561" height="560" viewBox="0 0 561 560" fill="none" xmlns="http://www.w3.org/2000/svg">
<path style="mix-blend-mode:overlay" d="M280.971 560C435.61 560 560.971 434.64 560.971 280C560.971 125.36 435.61 0.00012207 280.971 0.00012207C126.331 0.00012207 0.970703 125.36 0.970703 280C0.970703 434.64 126.331 560 280.971 560Z" fill="url(#paint0_radial_139_19)"/>
<path style="mix-blend-mode:overlay" d="M280.971 515C410.758 515 515.971 409.787 515.971 280C515.971 150.213 410.758 45.0001 280.971 45.0001C151.184 45.0001 45.9707 150.213 45.9707 280C45.9707 409.787 151.184 515 280.971 515Z" fill="url(#paint1_radial_139_19)"/>
<g opacity="0.5">
<path style="mix-blend-mode:overlay" d="M174.799 498.323C144.202 440.923 195.114 354.024 288.531 304.21C381.948 254.397 482.483 260.578 513.079 317.978C543.676 375.379 492.764 462.278 399.348 512.076C305.931 561.875 205.396 555.724 174.799 498.323Z" fill="url(#paint2_radial_139_19)"/>
<path style="mix-blend-mode:overlay" d="M174.799 498.323C144.202 440.923 195.114 354.024 288.531 304.21C381.948 254.397 482.483 260.578 513.079 317.978C543.676 375.379 492.764 462.278 399.348 512.076C305.931 561.875 205.396 555.724 174.799 498.323Z" fill="url(#paint3_radial_139_19)"/>
<path style="mix-blend-mode:overlay" d="M205.924 481.729C179.149 431.52 219.237 357.847 295.459 317.275C371.68 276.704 455.108 284.423 481.955 334.646C508.803 384.87 468.656 458.528 392.42 499.158C316.184 539.788 232.698 531.952 205.924 481.729Z" fill="url(#paint4_radial_139_19)"/>
<path style="mix-blend-mode:overlay" d="M190.091 490.18C183.514 477.862 247.081 431.153 332.046 385.851C417.012 340.549 491.227 313.804 497.803 326.063C504.379 338.323 440.798 385.09 355.833 430.392C270.867 475.694 196.652 502.497 190.091 490.18Z" fill="url(#paint5_radial_139_19)"/>
<path style="mix-blend-mode:screen" d="M190.091 490.18C186.049 482.607 251.608 439.751 336.646 394.464C421.685 349.176 493.732 318.564 497.804 326.063C501.876 333.563 436.288 376.477 351.249 421.78C266.21 467.082 194.119 497.737 190.091 490.18Z" fill="url(#paint6_radial_139_19)"/>
</g>
<defs>
<radialGradient id="paint0_radial_139_19" cx="0" cy="0" r="1" gradientUnits="userSpaceOnUse" gradientTransform="translate(280.971 280) scale(280)">
<stop stop-color="#FFFDFF"/>
<stop offset="0.07" stop-color="#FAFDFF" stop-opacity="0.92"/>
<stop offset="0.42" stop-color="#E5FEFF" stop-opacity="0.53"/>
<stop offset="0.7" stop-color="#D5FFFF" stop-opacity="0.24"/>
<stop offset="0.9" stop-color="#CBFFFF" stop-opacity="0.07"/>
<stop offset="1" stop-color="#C7FFFF" stop-opacity="0"/>
</radialGradient>
<radialGradient id="paint1_radial_139_19" cx="0" cy="0" r="1" gradientUnits="userSpaceOnUse" gradientTransform="translate(280.971 280) scale(235)">
<stop stop-color="#FFFDFF"/>
<stop offset="0.07" stop-color="#FAFDFF" stop-opacity="0.92"/>
<stop offset="0.42" stop-color="#E5FEFF" stop-opacity="0.53"/>
<stop offset="0.7" stop-color="#D5FFFF" stop-opacity="0.24"/>
<stop offset="0.9" stop-color="#CBFFFF" stop-opacity="0.07"/>
<stop offset="1" stop-color="#C7FFFF" stop-opacity="0"/>
</radialGradient>
<radialGradient id="paint2_radial_139_19" cx="0" cy="0" r="1" gradientUnits="userSpaceOnUse" gradientTransform="translate(344.285 413.681) rotate(151.771) scale(192.433 117.37)">
<stop stop-color="#FFFDFF"/>
<stop offset="0.01" stop-color="#FDFDFF" stop-opacity="0.96"/>
<stop offset="0.05" stop-color="#F3FDFF" stop-opacity="0.78"/>
<stop offset="0.09" stop-color="#E9FEFF" stop-opacity="0.61"/>
<stop offset="0.14" stop-color="#E1FEFF" stop-opacity="0.47"/>
<stop offset="0.2" stop-color="#DAFEFF" stop-opacity="0.34"/>
<stop offset="0.25" stop-color="#D4FFFF" stop-opacity="0.23"/>
<stop offset="0.32" stop-color="#CFFFFF" stop-opacity="0.15"/>
<stop offset="0.4" stop-color="#CCFFFF" stop-opacity="0.08"/>
<stop offset="0.49" stop-color="#C9FFFF" stop-opacity="0.03"/>
<stop offset="0.63" stop-color="#C7FFFF" stop-opacity="0.01"/>
<stop offset="1" stop-color="#C7FFFF" stop-opacity="0"/>
</radialGradient>
<radialGradient id="paint3_radial_139_19" cx="0" cy="0" r="1" gradientUnits="userSpaceOnUse" gradientTransform="translate(344.285 413.681) rotate(151.771) scale(192.433 117.37)">
<stop stop-color="#FFFDFF"/>
<stop offset="0.01" stop-color="#FDFDFF" stop-opacity="0.96"/>
<stop offset="0.05" stop-color="#F3FDFF" stop-opacity="0.78"/>
<stop offset="0.09" stop-color="#E9FEFF" stop-opacity="0.61"/>
<stop offset="0.14" stop-color="#E1FEFF" stop-opacity="0.47"/>
<stop offset="0.2" stop-color="#DAFEFF" stop-opacity="0.34"/>
<stop offset="0.25" stop-color="#D4FFFF" stop-opacity="0.23"/>
<stop offset="0.32" stop-color="#CFFFFF" stop-opacity="0.15"/>
<stop offset="0.4" stop-color="#CCFFFF" stop-opacity="0.08"/>
<stop offset="0.49" stop-color="#C9FFFF" stop-opacity="0.03"/>
<stop offset="0.63" stop-color="#C7FFFF" stop-opacity="0.01"/>
<stop offset="1" stop-color="#C7FFFF" stop-opacity="0"/>
</radialGradient>
<radialGradient id="paint4_radial_139_19" cx="0" cy="0" r="1" gradientUnits="userSpaceOnUse" gradientTransform="translate(345.77 411.814) rotate(152.083) scale(156.057 102.665)">
<stop stop-color="#FFFDFF"/>
<stop offset="0.01" stop-color="#FDFDFF" stop-opacity="0.96"/>
<stop offset="0.05" stop-color="#F3FDFF" stop-opacity="0.78"/>
<stop offset="0.09" stop-color="#E9FEFF" stop-opacity="0.61"/>
<stop offset="0.14" stop-color="#E1FEFF" stop-opacity="0.47"/>
<stop offset="0.2" stop-color="#DAFEFF" stop-opacity="0.34"/>
<stop offset="0.25" stop-color="#D4FFFF" stop-opacity="0.23"/>
<stop offset="0.32" stop-color="#CFFFFF" stop-opacity="0.15"/>
<stop offset="0.4" stop-color="#CCFFFF" stop-opacity="0.08"/>
<stop offset="0.49" stop-color="#C9FFFF" stop-opacity="0.03"/>
<stop offset="0.63" stop-color="#C7FFFF" stop-opacity="0.01"/>
<stop offset="1" stop-color="#C7FFFF" stop-opacity="0"/>
</radialGradient>
<radialGradient id="paint5_radial_139_19" cx="0" cy="0" r="1" gradientUnits="userSpaceOnUse" gradientTransform="translate(318.136 399.14) rotate(151.928) scale(174.968 25.7911)">
<stop stop-color="#FFFDFF"/>
<stop offset="0.01" stop-color="#FDFDFF" stop-opacity="0.96"/>
<stop offset="0.05" stop-color="#F3FDFF" stop-opacity="0.78"/>
<stop offset="0.09" stop-color="#E9FEFF" stop-opacity="0.61"/>
<stop offset="0.14" stop-color="#E1FEFF" stop-opacity="0.47"/>
<stop offset="0.2" stop-color="#DAFEFF" stop-opacity="0.34"/>
<stop offset="0.25" stop-color="#D4FFFF" stop-opacity="0.23"/>
<stop offset="0.32" stop-color="#CFFFFF" stop-opacity="0.15"/>
<stop offset="0.4" stop-color="#CCFFFF" stop-opacity="0.08"/>
<stop offset="0.49" stop-color="#C9FFFF" stop-opacity="0.03"/>
<stop offset="0.63" stop-color="#C7FFFF" stop-opacity="0.01"/>
<stop offset="1" stop-color="#C7FFFF" stop-opacity="0"/>
</radialGradient>
<radialGradient id="paint6_radial_139_19" cx="0" cy="0" r="1" gradientUnits="userSpaceOnUse" gradientTransform="translate(342.723 433.762) rotate(151.928) scale(174.868 15.1875)">
<stop stop-color="#FFFDFF"/>
<stop offset="0.01" stop-color="#FDFDFF" stop-opacity="0.96"/>
<stop offset="0.05" stop-color="#F3FDFF" stop-opacity="0.78"/>
<stop offset="0.09" stop-color="#E9FEFF" stop-opacity="0.61"/>
<stop offset="0.14" stop-color="#E1FEFF" stop-opacity="0.47"/>
<stop offset="0.2" stop-color="#DAFEFF" stop-opacity="0.34"/>
<stop offset="0.25" stop-color="#D4FFFF" stop-opacity="0.23"/>
<stop offset="0.32" stop-color="#CFFFFF" stop-opacity="0.15"/>
<stop offset="0.4" stop-color="#CCFFFF" stop-opacity="0.08"/>
<stop offset="0.49" stop-color="#C9FFFF" stop-opacity="0.03"/>
<stop offset="0.63" stop-color="#C7FFFF" stop-opacity="0.01"/>
<stop offset="1" stop-color="#C7FFFF" stop-opacity="0"/>
</radialGradient>
</defs>
</svg>
