<svg width="81" height="81" viewBox="0 0 81 81" fill="none" xmlns="http://www.w3.org/2000/svg">
<rect x="0.666748" y="0.755371" width="80" height="80" rx="40" fill="url(#paint0_linear_70_3209)"/>
<path d="M39.7001 43.9943C40.4367 43.8659 41.2195 43.6703 42.0295 43.4144L42.0324 43.4109L42.2498 43.3386C43.7395 42.8469 45.3152 42.2769 46.5801 41.5974C44.2785 38.28 40.4469 36.1045 36.1035 36.1045H34.6219C27.5805 36.1045 21.8728 41.8124 21.8728 48.8544C21.8728 50.7702 23.4261 52.3246 25.343 52.3246H38.4842C38.4806 52.2088 38.4686 52.0955 38.4686 51.9791L38.4683 45.4541C38.4679 44.7327 38.9864 44.1186 39.7004 43.9943L39.7001 43.9943ZM35.3627 35.1438C39.8882 35.1438 43.5568 31.4752 43.5568 26.9495C43.5568 22.424 39.8882 18.7554 35.3627 18.7554C30.8372 18.7554 27.1686 22.424 27.1686 26.9495C27.1683 31.475 30.8369 35.1438 35.3627 35.1438ZM59.0239 44.9419C58.1571 44.7912 57.2457 44.5554 56.3436 44.2536C53.74 43.396 51.1719 42.4052 49.8183 40.979C49.7156 40.8714 49.5801 40.817 49.4449 40.817C49.3097 40.817 49.1742 40.871 49.0715 40.979C47.7176 42.4049 45.1509 43.3956 42.5507 44.2536L42.5458 44.2593C41.6391 44.5572 40.7285 44.7922 39.8652 44.9429C39.6132 44.9864 39.4296 45.1999 39.4296 45.4561V51.9818C39.4296 57.3004 43.4045 61.9226 49.2449 64.2574C49.308 64.2828 49.3765 64.2955 49.4446 64.2955C49.5131 64.2955 49.5819 64.2828 49.6451 64.2581C55.4857 61.9287 59.4603 57.3058 59.4603 51.9825L59.4607 45.4551C59.4607 45.1992 59.2754 44.9861 59.0234 44.9426L59.0239 44.9419ZM54.1063 50.7147L48.9059 55.9168C48.7037 56.1184 48.4301 56.232 48.1442 56.232C47.8583 56.232 47.5852 56.118 47.3833 55.9168L44.7813 53.3156C44.362 52.8956 44.362 52.2141 44.7813 51.7937C45.2017 51.3737 45.8839 51.3737 46.304 51.7937L48.1442 53.635L52.5844 49.1935C53.0054 48.7732 53.6862 48.7732 54.1063 49.1932C54.5277 49.6135 54.5277 50.2947 54.1063 50.7147L54.1063 50.7147Z" fill="#D9D9D9"/>
<defs>
<linearGradient id="paint0_linear_70_3209" x1="0.666748" y1="0.755371" x2="79.4233" y2="77.0256" gradientUnits="userSpaceOnUse">
<stop stop-color="#D13FBA"/>
<stop offset="1" stop-color="#0A55FF"/>
</linearGradient>
</defs>
</svg>
