<svg width="81" height="81" viewBox="0 0 81 81" fill="none" xmlns="http://www.w3.org/2000/svg">
<rect x="0.333374" y="0.755371" width="80" height="80" rx="40" fill="url(#paint0_linear_70_3200)"/>
<path d="M41.4031 44.7713H42.179C42.7171 44.7713 43.1549 44.3336 43.1549 43.7955C43.1549 43.2574 42.7171 42.8197 42.179 42.8197H41.4031V44.7713Z" fill="white"/>
<path d="M37.8546 39.964V40.0464C37.8546 40.5844 38.2923 41.0226 38.8304 41.0226H39.6064V38.9886H38.8304C38.2924 38.9882 37.8546 39.4259 37.8546 39.964V39.964Z" fill="white"/>
<path d="M66.5691 22.7554L61.744 24.0481L62.8803 25.1844L56.7202 31.3446L53.1375 27.7615L48.4571 32.442C46.3114 30.6242 43.5396 29.5232 40.5072 29.5232C33.707 29.5232 28.1944 35.0362 28.1944 41.8361C28.1944 44.8685 29.2952 47.6403 31.1131 49.786L28.1735 52.7256L23.7208 48.2729L14.0977 57.8956L15.3691 59.167L23.7204 50.8157L28.1731 55.2684L32.3762 51.0657C34.546 52.9789 37.3869 54.1492 40.5072 54.1492C47.3074 54.1492 52.82 48.6363 52.82 41.8364C52.82 38.7162 51.6497 35.8753 49.7365 33.7054L53.1372 30.3047L56.7199 33.8877L64.1514 26.4557L65.2761 27.5804L66.5691 22.7554ZM44.9554 38.9876H41.4054V41.0217H42.1813C43.7107 41.0217 44.9554 42.2659 44.9554 43.7957C44.9554 45.325 43.7111 46.5697 42.1813 46.5697H41.4054V48.8864H39.6071V46.5697L36.0571 46.5693V44.7711H39.6071V42.8195H38.8312C37.3018 42.8195 36.0571 41.5752 36.0571 40.0454V39.9631C36.0571 38.4337 37.3014 37.1891 38.8312 37.1891H39.6071V34.8724H41.4054V37.1894H44.9554V38.9876Z" fill="white"/>
<defs>
<linearGradient id="paint0_linear_70_3200" x1="0.333374" y1="0.755371" x2="79.0899" y2="77.0256" gradientUnits="userSpaceOnUse">
<stop stop-color="#D13FBA"/>
<stop offset="1" stop-color="#0A55FF"/>
</linearGradient>
</defs>
</svg>
