<svg width="80" height="81" viewBox="0 0 80 81" fill="none" xmlns="http://www.w3.org/2000/svg">
<rect y="0.755371" width="80" height="80" rx="40" fill="url(#paint0_linear_70_3117)"/>
<path fill-rule="evenodd" clip-rule="evenodd" d="M31.4155 35.258V46.902C30.4345 46.9587 29.4134 47.1175 28.3074 47.3897V35.2577H27.6323V33.7945H32.0902V35.2577H31.4152L31.4155 35.258ZM48.5893 48.4898V35.258H47.9142V33.7948H52.3666V35.258H51.6915V48.2916L50.0128 49.4714C49.593 49.0177 49.1111 48.6943 48.5892 48.4903L48.5893 48.4898ZM55.7812 29.2517V32.9214H24.2243V29.2517L40.0027 20.7554L55.7812 29.2517ZM50.4951 29.2517L40.0024 23.597L29.504 29.2517H50.4951ZM27.8425 49.0801C31.563 47.9629 34.4274 47.7304 39.7248 51.2128L46.4003 49.7666C48.2945 49.3526 48.6802 50.6968 48.9809 51.6723L40.7794 55.8297C40.127 56.2495 40.5754 56.9413 41.0969 56.7032L49.8995 52.285L50.1321 51.3889L57.5508 46.1937C59.241 45.0027 59.6438 46.3469 60.0351 47.2545L51.9022 55.4896L43.2191 59.959C42.0678 60.5487 40.9278 60.7587 39.6459 60.6169L27.843 59.2784L27.8425 49.0801ZM19.9644 48.9666H26.8215V60.826H19.9644V48.9666ZM40.944 35.1559C41.4941 35.3035 41.9819 35.5984 42.3564 36.0406C42.8271 36.5851 43.0652 37.2939 43.0711 38.0142C43.0767 38.0821 43.0711 38.1503 43.0711 38.2182L41.1824 38.1503L41.188 38.1277V38.0368C41.1824 37.759 41.103 37.4753 40.9213 37.2654C40.7229 37.0328 40.4221 36.942 40.1217 36.9252H40.0026C39.7021 36.9252 39.407 37.0161 39.1859 37.2257C39.0497 37.3562 38.9533 37.5262 38.9022 37.7079C38.8569 37.8722 38.8454 38.0539 38.8907 38.2182C38.9304 38.3544 39.0042 38.4734 39.1177 38.5528L40.4221 39.2731L41.7777 39.9878L41.8118 40.0104C42.3733 40.345 42.7646 40.8613 42.9348 41.4907C43.0654 41.9841 43.0539 42.5115 42.9178 43.0051C42.7761 43.5099 42.498 43.9806 42.1125 44.3437C41.7835 44.6612 41.3807 44.8882 40.9442 45.0243V46.4081H39.0555V45.047C38.5054 44.8938 38.0233 44.6045 37.6432 44.1623C37.1725 43.6178 36.9343 42.909 36.9285 42.1887V42.0015L38.8227 41.9277L38.8171 42.0752C38.8171 42.1035 38.8115 42.1376 38.8115 42.1661C38.8171 42.4383 38.8965 42.7276 39.0782 42.9375C39.2766 43.1701 39.5774 43.2609 39.8779 43.2721C39.9176 43.2777 39.9573 43.2777 39.997 43.2777C40.2974 43.2721 40.5926 43.1868 40.8137 42.9772C40.9498 42.8467 41.0462 42.6767 41.0974 42.495C41.1485 42.3307 41.1541 42.149 41.1088 41.9847C41.0747 41.8486 41.0009 41.7295 40.8819 41.6501L39.5377 40.9413L39.5207 40.9298L38.2047 40.2039L38.1821 40.1924C37.6261 39.8579 37.2349 39.336 37.0649 38.7121C36.9344 38.2188 36.9458 37.6913 37.082 37.1977C37.2295 36.6874 37.5018 36.2222 37.8872 35.8592C38.2218 35.5417 38.619 35.3091 39.0556 35.1786V33.7947H40.9442V35.1559L40.944 35.1559Z" fill="white"/>
<path d="M19.9857 60.9099C19.9848 60.9107 19.9837 60.911 19.9823 60.911H19.979C19.9759 60.911 19.9734 60.9104 19.9711 60.9087C19.9689 60.9065 19.9678 60.904 19.9678 60.9009C19.9678 60.8981 19.9689 60.8953 19.9711 60.8931C19.9734 60.8908 19.9759 60.8897 19.979 60.8897C19.9804 60.8897 19.9815 60.8903 19.9823 60.8908C19.9837 60.8908 19.9848 60.8914 19.9857 60.892V60.8964C19.9848 60.895 19.9837 60.8942 19.9823 60.8942H19.979C19.9773 60.8942 19.9759 60.895 19.9745 60.8964C19.9736 60.8973 19.9734 60.8987 19.9734 60.9009C19.9734 60.9031 19.9736 60.9051 19.9745 60.9065C19.9759 60.9073 19.9773 60.9076 19.979 60.9076H19.9823C19.9837 60.9071 19.9848 60.9062 19.9857 60.9054V60.9099Z" fill="white"/>
<path d="M19.9967 60.8993H19.9955C19.9955 60.8988 19.995 60.8982 19.9944 60.8982C19.9927 60.8982 19.9916 60.8991 19.9911 60.9005V60.9038V60.9105H19.9855V60.8949H19.9911V60.8982C19.9916 60.8968 19.9925 60.896 19.9933 60.896C19.9939 60.8954 19.9947 60.8949 19.9955 60.8949H19.9967V60.8993Z" fill="white"/>
<path d="M20.014 60.9027V60.9038H20.0028C20.0028 60.9055 20.0031 60.9066 20.0039 60.9072H20.0073H20.0095C20.0109 60.9066 20.012 60.906 20.0128 60.906V60.9094C20.012 60.9102 20.0109 60.9105 20.0095 60.9105H20.0061C20.0031 60.9105 20.0008 60.91 19.9994 60.9083C19.9978 60.9069 19.9972 60.9049 19.9972 60.9027C19.9972 60.9005 19.9978 60.8988 19.9994 60.8971C20.0008 60.8957 20.0031 60.8949 20.0061 60.8949C20.0084 60.8949 20.01 60.8957 20.0117 60.8971C20.0131 60.8988 20.014 60.9005 20.014 60.9027ZM20.0084 60.9016C20.0084 60.9002 20.0078 60.8993 20.0073 60.8993C20.0073 60.8988 20.0067 60.8982 20.0061 60.8982C20.0053 60.8982 20.0045 60.8988 20.0039 60.8993C20.0031 60.8993 20.0028 60.9002 20.0028 60.9016H20.0084Z" fill="white"/>
<path d="M20.0285 60.9038C20.0276 60.9038 20.0268 60.9044 20.0262 60.9049V60.906V60.9072H20.0285H20.0307C20.0313 60.9066 20.0318 60.9055 20.0318 60.9038H20.0285ZM20.0363 60.9016V60.9105H20.0318V60.9083C20.031 60.9091 20.0301 60.91 20.0296 60.9105H20.0262C20.0245 60.9105 20.0231 60.9102 20.0217 60.9094C20.0209 60.9088 20.0206 60.9077 20.0206 60.906C20.0206 60.9038 20.0209 60.9024 20.0217 60.9016C20.0231 60.901 20.0254 60.9005 20.0285 60.9005H20.0318C20.0318 60.8999 20.0313 60.8993 20.0307 60.8993C20.0299 60.8988 20.0287 60.8982 20.0273 60.8982H20.024C20.0231 60.8982 20.0223 60.8988 20.0217 60.8993V60.896C20.0231 60.8954 20.0243 60.8949 20.0251 60.8949H20.0285C20.0313 60.8949 20.0332 60.8957 20.034 60.8971C20.0354 60.8979 20.0363 60.8993 20.0363 60.9016Z" fill="white"/>
<path d="M20.0442 60.8902V60.8947H20.0487V60.8981H20.0442V60.9048V60.907H20.0464H20.0487V60.9104H20.0453C20.0431 60.9104 20.0411 60.9101 20.0397 60.9092C20.0389 60.9087 20.0386 60.907 20.0386 60.9048V60.8981H20.0364V60.8947H20.0386V60.8902H20.0442Z" fill="white"/>
<path d="M20.0668 60.9027V60.9038H20.0556C20.0556 60.9055 20.0559 60.9066 20.0568 60.9072H20.0601H20.0623C20.0637 60.9066 20.0649 60.906 20.0657 60.906V60.9094C20.0649 60.9102 20.0637 60.9105 20.0623 60.9105H20.059C20.0559 60.9105 20.0537 60.91 20.0523 60.9083C20.0506 60.9069 20.05 60.9049 20.05 60.9027C20.05 60.9005 20.0506 60.8988 20.0523 60.8971C20.0537 60.8957 20.0559 60.8949 20.059 60.8949C20.0612 60.8949 20.0629 60.8957 20.0646 60.8971C20.066 60.8988 20.0668 60.9005 20.0668 60.9027ZM20.0612 60.9016C20.0612 60.9002 20.0607 60.8993 20.0601 60.8993C20.0601 60.8988 20.0596 60.8982 20.059 60.8982C20.0582 60.8982 20.0573 60.8988 20.0568 60.8993C20.0559 60.8993 20.0556 60.9002 20.0556 60.9016H20.0612Z" fill="white"/>
<path d="M20.0848 60.8976V60.8897H20.0904V60.911H20.0848V60.9087C20.0848 60.9096 20.084 60.9104 20.0826 60.911H20.0803C20.0781 60.911 20.0761 60.9104 20.0747 60.9087C20.0739 60.9073 20.0736 60.9054 20.0736 60.9031C20.0736 60.9009 20.0739 60.8992 20.0747 60.8976C20.0761 60.8962 20.0781 60.8953 20.0803 60.8953C20.0809 60.8953 20.0817 60.8959 20.0826 60.8964C20.084 60.8964 20.0848 60.897 20.0848 60.8976ZM20.0826 60.9076C20.0831 60.9076 20.0837 60.9073 20.0837 60.9065C20.0842 60.9059 20.0848 60.9048 20.0848 60.9031C20.0848 60.9017 20.0842 60.9006 20.0837 60.8998C20.0837 60.8992 20.0831 60.8987 20.0826 60.8987C20.0809 60.8987 20.0798 60.8992 20.0792 60.8998V60.9031V60.9065C20.0798 60.9073 20.0809 60.9076 20.0826 60.9076Z" fill="white"/>
<path d="M20.1103 60.9073C20.1108 60.9073 20.1114 60.907 20.1114 60.9062C20.1119 60.9056 20.1125 60.9045 20.1125 60.9029C20.1125 60.9015 20.1119 60.9003 20.1114 60.8995C20.1114 60.8989 20.1108 60.8984 20.1103 60.8984C20.1086 60.8984 20.1075 60.8989 20.1069 60.8995V60.9029V60.9062C20.1075 60.907 20.1086 60.9073 20.1103 60.9073ZM20.1069 60.8973C20.1075 60.8967 20.1083 60.8961 20.1091 60.8961C20.1097 60.8956 20.1105 60.895 20.1114 60.895C20.1136 60.895 20.115 60.8959 20.1159 60.8973C20.1173 60.8989 20.1181 60.9006 20.1181 60.9029C20.1181 60.9051 20.1173 60.907 20.1159 60.9084C20.115 60.9101 20.1136 60.9107 20.1114 60.9107H20.1091C20.1083 60.9101 20.1075 60.9093 20.1069 60.9084V60.9107H20.1013V60.8894H20.1069V60.8973Z" fill="white"/>
<path d="M20.1245 60.8949H20.1301L20.1335 60.906L20.1368 60.8949H20.1424L20.1357 60.9116C20.1357 60.9139 20.1349 60.9153 20.1335 60.9161C20.1326 60.9167 20.1315 60.9172 20.1301 60.9172H20.1267V60.9128H20.129H20.1301C20.1307 60.9128 20.1312 60.9122 20.1312 60.9116V60.9105L20.1245 60.8949Z" fill="white"/>
<path d="M20.1576 60.9083V60.9161H20.152V60.8949H20.1576V60.8971C20.1581 60.8965 20.159 60.896 20.1598 60.896C20.1604 60.8954 20.1612 60.8949 20.162 60.8949C20.1643 60.8949 20.1657 60.8957 20.1665 60.8971C20.1679 60.8988 20.1687 60.9005 20.1687 60.9027C20.1687 60.9049 20.1679 60.9069 20.1665 60.9083C20.1657 60.91 20.1643 60.9105 20.162 60.9105H20.1598C20.159 60.91 20.1581 60.9091 20.1576 60.9083ZM20.1609 60.8982C20.1592 60.8982 20.1581 60.8988 20.1576 60.8993V60.9027V60.906C20.1581 60.9069 20.1592 60.9072 20.1609 60.9072C20.1615 60.9072 20.162 60.9069 20.162 60.906C20.1626 60.9055 20.1632 60.9044 20.1632 60.9027C20.1632 60.9013 20.1626 60.9002 20.162 60.8993C20.162 60.8988 20.1615 60.8982 20.1609 60.8982Z" fill="white"/>
<path d="M20.1767 60.8982C20.175 60.8982 20.1739 60.8988 20.1733 60.8993V60.9027V60.906C20.1739 60.9069 20.175 60.9072 20.1767 60.9072C20.1772 60.9072 20.1781 60.9069 20.1789 60.906C20.1795 60.9055 20.18 60.9044 20.18 60.9027C20.18 60.9013 20.1795 60.9002 20.1789 60.8993C20.1781 60.8988 20.1772 60.8982 20.1767 60.8982ZM20.1767 60.8949C20.1789 60.8949 20.1806 60.8957 20.1823 60.8971C20.1837 60.8988 20.1845 60.9005 20.1845 60.9027C20.1845 60.9049 20.1837 60.9069 20.1823 60.9083C20.1806 60.91 20.1789 60.9105 20.1767 60.9105C20.1736 60.9105 20.1714 60.91 20.17 60.9083C20.1683 60.9069 20.1677 60.9049 20.1677 60.9027C20.1677 60.9005 20.1683 60.8988 20.17 60.8971C20.1714 60.8957 20.1736 60.8949 20.1767 60.8949Z" fill="white"/>
<path d="M20.1968 60.9083V60.9161H20.1912V60.8949H20.1968V60.8971C20.1973 60.8965 20.1981 60.896 20.199 60.896C20.1995 60.8954 20.2004 60.8949 20.2012 60.8949C20.2035 60.8949 20.2049 60.8957 20.2057 60.8971C20.2071 60.8988 20.2079 60.9005 20.2079 60.9027C20.2079 60.9049 20.2071 60.9069 20.2057 60.9083C20.2049 60.91 20.2035 60.9105 20.2012 60.9105H20.199C20.1981 60.91 20.1973 60.9091 20.1968 60.9083ZM20.2001 60.8982C20.1984 60.8982 20.1973 60.8988 20.1968 60.8993V60.9027V60.906C20.1973 60.9069 20.1984 60.9072 20.2001 60.9072C20.2007 60.9072 20.2012 60.9069 20.2012 60.906C20.2018 60.9055 20.2023 60.9044 20.2023 60.9027C20.2023 60.9013 20.2018 60.9002 20.2012 60.8993C20.2012 60.8988 20.2007 60.8982 20.2001 60.8982Z" fill="white"/>
<path d="M20.2203 60.896V60.8993H20.2181C20.2181 60.8988 20.2175 60.8982 20.217 60.8982C20.2153 60.8982 20.2142 60.8988 20.2136 60.8993C20.2128 60.9002 20.2125 60.9013 20.2125 60.9027C20.2125 60.9044 20.2128 60.9055 20.2136 60.906C20.2142 60.9069 20.2153 60.9072 20.217 60.9072H20.2192C20.2198 60.9066 20.2203 60.906 20.2203 60.906V60.9105H20.2181H20.2159C20.2128 60.9105 20.2105 60.91 20.2091 60.9083C20.2075 60.9069 20.2069 60.9049 20.2069 60.9027C20.2069 60.9005 20.2075 60.8988 20.2091 60.8971C20.2105 60.8957 20.2128 60.8949 20.2159 60.8949H20.2181C20.2186 60.8949 20.2195 60.8954 20.2203 60.896Z" fill="white"/>
<path d="M20.2394 60.8982C20.2377 60.8982 20.2366 60.8988 20.2361 60.8993V60.9027V60.906C20.2366 60.9069 20.2377 60.9072 20.2394 60.9072C20.24 60.9072 20.2408 60.9069 20.2416 60.906C20.2422 60.9055 20.2428 60.9044 20.2428 60.9027C20.2428 60.9013 20.2422 60.9002 20.2416 60.8993C20.2408 60.8988 20.24 60.8982 20.2394 60.8982ZM20.2394 60.8949C20.2416 60.8949 20.2433 60.8957 20.245 60.8971C20.2464 60.8988 20.2472 60.9005 20.2472 60.9027C20.2472 60.9049 20.2464 60.9069 20.245 60.9083C20.2433 60.91 20.2416 60.9105 20.2394 60.9105C20.2363 60.9105 20.2341 60.91 20.2327 60.9083C20.231 60.9069 20.2305 60.9049 20.2305 60.9027C20.2305 60.9005 20.231 60.8988 20.2327 60.8971C20.2341 60.8957 20.2363 60.8949 20.2394 60.8949Z" fill="white"/>
<path d="M20.2573 60.8993H20.2562C20.2562 60.8988 20.2556 60.8982 20.255 60.8982C20.2534 60.8982 20.2522 60.8991 20.2517 60.9005V60.9038V60.9105H20.2461V60.8949H20.2517V60.8982C20.2522 60.8968 20.2531 60.896 20.2539 60.896C20.2545 60.8954 20.2553 60.8949 20.2562 60.8949H20.2573V60.8993Z" fill="white"/>
<path d="M20.2735 60.9017V60.9106H20.2679V60.9039V60.9005V60.8994H20.2668V60.8983C20.2651 60.8983 20.264 60.8989 20.2634 60.8994V60.9028V60.9106H20.2578V60.8949H20.2634V60.8972C20.264 60.8966 20.2648 60.8961 20.2656 60.8961C20.2662 60.8955 20.267 60.8949 20.2679 60.8949C20.2693 60.8949 20.2704 60.8958 20.2712 60.8972C20.2726 60.898 20.2735 60.8994 20.2735 60.9017V60.9017Z" fill="white"/>
<path d="M20.2912 60.9038C20.2903 60.9038 20.2895 60.9044 20.2889 60.9049V60.906V60.9072H20.2912H20.2934C20.2939 60.9066 20.2945 60.9055 20.2945 60.9038H20.2912ZM20.299 60.9016V60.9105H20.2945V60.9083C20.2937 60.9091 20.2928 60.91 20.2923 60.9105H20.2889C20.2872 60.9105 20.2858 60.9102 20.2844 60.9094C20.2836 60.9088 20.2833 60.9077 20.2833 60.906C20.2833 60.9038 20.2836 60.9024 20.2844 60.9016C20.2858 60.901 20.2881 60.9005 20.2912 60.9005H20.2945C20.2945 60.8999 20.2939 60.8993 20.2934 60.8993C20.2925 60.8988 20.2914 60.8982 20.29 60.8982H20.2867C20.2858 60.8982 20.285 60.8988 20.2844 60.8993V60.896C20.2858 60.8954 20.287 60.8949 20.2878 60.8949H20.2912C20.2939 60.8949 20.2959 60.8957 20.2967 60.8971C20.2981 60.8979 20.299 60.8993 20.299 60.9016Z" fill="white"/>
<path d="M20.3082 60.8994H20.3071C20.3071 60.8989 20.3065 60.8983 20.3059 60.8983C20.3043 60.8983 20.3031 60.8991 20.3026 60.9005V60.9039V60.9106H20.297V60.8949H20.3026V60.8983C20.3031 60.8969 20.304 60.8961 20.3048 60.8961C20.3054 60.8955 20.3062 60.8949 20.3071 60.8949H20.3082V60.8994Z" fill="white"/>
<path d="M20.3186 60.8902V60.8947H20.3231V60.8981H20.3186V60.9048V60.907H20.3209H20.3231V60.9104H20.3197C20.3175 60.9104 20.3155 60.9101 20.3141 60.9092C20.3133 60.9087 20.313 60.907 20.313 60.9048V60.8981H20.3108V60.8947H20.313V60.8902H20.3186Z" fill="white"/>
<path d="M20.3379 60.896V60.8993C20.3362 60.8988 20.3351 60.8982 20.3345 60.8982H20.3323H20.3289V60.8993V60.9005H20.3323C20.3345 60.9013 20.3359 60.9021 20.3368 60.9027C20.3382 60.9035 20.339 60.9046 20.339 60.906C20.339 60.9077 20.3382 60.9088 20.3368 60.9094C20.3359 60.9102 20.3345 60.9105 20.3323 60.9105H20.3278H20.3256V60.906C20.3261 60.9069 20.327 60.9072 20.3278 60.9072H20.3312H20.3334C20.334 60.9072 20.3345 60.9069 20.3345 60.906C20.3345 60.9055 20.334 60.9049 20.3334 60.9049C20.3334 60.9049 20.3328 60.9046 20.3323 60.9038H20.3312C20.3289 60.9038 20.327 60.9035 20.3256 60.9027C20.3247 60.9021 20.3245 60.901 20.3245 60.8993C20.3245 60.8979 20.3247 60.8968 20.3256 60.896C20.327 60.8954 20.3292 60.8949 20.3323 60.8949H20.3345C20.3351 60.8949 20.3362 60.8954 20.3379 60.896Z" fill="white"/>
<path d="M19.9801 60.9179V60.9213H19.9778H19.9756V60.9224V60.9235H19.9801V60.9269H19.9756V60.9392H19.9711V60.9269H19.9678V60.9235H19.9711V60.9224C19.9711 60.921 19.9714 60.9199 19.9722 60.919C19.9728 60.9185 19.9745 60.9179 19.9767 60.9179H19.9801Z" fill="white"/>
<path d="M19.9926 60.9285H19.9915C19.9915 60.9279 19.9909 60.9274 19.9904 60.9274C19.9887 60.9274 19.9876 60.9282 19.987 60.9296V60.933V60.9397H19.9814V60.924H19.987V60.9274C19.9876 60.926 19.9884 60.9251 19.9893 60.9251C19.9898 60.9246 19.9907 60.924 19.9915 60.924H19.9926V60.9285Z" fill="white"/>
<path d="M20.0042 60.9274C20.0025 60.9274 20.0014 60.9279 20.0008 60.9285V60.9319V60.9352C20.0014 60.936 20.0025 60.9363 20.0042 60.9363C20.0047 60.9363 20.0056 60.936 20.0064 60.9352C20.007 60.9346 20.0075 60.9335 20.0075 60.9319C20.0075 60.9305 20.007 60.9293 20.0064 60.9285C20.0056 60.9279 20.0047 60.9274 20.0042 60.9274ZM20.0042 60.924C20.0064 60.924 20.0081 60.9249 20.0098 60.9263C20.0112 60.9279 20.012 60.9296 20.012 60.9319C20.012 60.9341 20.0112 60.936 20.0098 60.9374C20.0081 60.9391 20.0064 60.9397 20.0042 60.9397C20.0011 60.9397 19.9989 60.9391 19.9975 60.9374C19.9958 60.936 19.9952 60.9341 19.9952 60.9319C19.9952 60.9296 19.9958 60.9279 19.9975 60.9263C19.9989 60.9249 20.0011 60.924 20.0042 60.924Z" fill="white"/>
<path d="M20.0254 60.9274C20.026 60.926 20.0268 60.9251 20.0276 60.9251C20.0282 60.9246 20.029 60.924 20.0299 60.924C20.0321 60.924 20.0335 60.9249 20.0343 60.9263C20.0357 60.9271 20.0366 60.9285 20.0366 60.9307V60.9397H20.031V60.9319V60.9307C20.031 60.9293 20.0304 60.9285 20.0299 60.9285C20.0299 60.9279 20.0293 60.9274 20.0288 60.9274C20.0279 60.9274 20.0271 60.9279 20.0265 60.9285C20.0257 60.9293 20.0254 60.9305 20.0254 60.9319V60.9397H20.0209V60.9319C20.0209 60.9296 20.0204 60.9285 20.0198 60.9285C20.0198 60.9279 20.0192 60.9274 20.0187 60.9274C20.0179 60.9274 20.017 60.9279 20.0165 60.9285V60.9319V60.9397H20.0109V60.924H20.0165V60.9263C20.017 60.9257 20.0179 60.9251 20.0187 60.9251C20.0192 60.9246 20.0201 60.924 20.0209 60.924C20.0215 60.924 20.0223 60.9246 20.0232 60.9251C20.0237 60.9251 20.0246 60.926 20.0254 60.9274Z" fill="white"/>
<path d="M20.0579 60.9194V60.9238H20.0623V60.9272H20.0579V60.9339V60.9361H20.0601H20.0623V60.9395H20.059C20.0568 60.9395 20.0548 60.9392 20.0534 60.9384C20.0526 60.9378 20.0523 60.9361 20.0523 60.9339V60.9272H20.05V60.9238H20.0523V60.9194H20.0579Z" fill="white"/>
<path d="M20.0795 60.93V60.9389H20.0739V60.9322V60.9288V60.9277H20.0728V60.9266C20.0711 60.9266 20.07 60.9272 20.0694 60.9277V60.9311V60.9389H20.0638V60.9177H20.0694V60.9255C20.07 60.9249 20.0708 60.9244 20.0717 60.9244C20.0722 60.9238 20.0731 60.9233 20.0739 60.9233C20.0753 60.9233 20.0764 60.9241 20.0773 60.9255C20.0787 60.9263 20.0795 60.9277 20.0795 60.93V60.93Z" fill="white"/>
<path d="M20.1021 60.9319V60.933H20.0909C20.0909 60.9346 20.0912 60.9358 20.092 60.9363H20.0954H20.0976C20.099 60.9358 20.1001 60.9352 20.101 60.9352V60.9386C20.1001 60.9394 20.099 60.9397 20.0976 60.9397H20.0943C20.0912 60.9397 20.089 60.9391 20.0876 60.9374C20.0859 60.936 20.0853 60.9341 20.0853 60.9319C20.0853 60.9296 20.0859 60.9279 20.0876 60.9263C20.089 60.9249 20.0912 60.924 20.0943 60.924C20.0965 60.924 20.0982 60.9249 20.0999 60.9263C20.1013 60.9279 20.1021 60.9296 20.1021 60.9319ZM20.0965 60.9307C20.0965 60.9293 20.0959 60.9285 20.0954 60.9285C20.0954 60.9279 20.0948 60.9274 20.0943 60.9274C20.0934 60.9274 20.0926 60.9279 20.092 60.9285C20.0912 60.9285 20.0909 60.9293 20.0909 60.9307H20.0965Z" fill="white"/>
<path d="M20.1147 60.9177H20.1215L20.1282 60.9322V60.9177H20.1338V60.9389H20.127L20.1203 60.9244V60.9389H20.1147V60.9177Z" fill="white"/>
<path d="M20.1494 60.927C20.1478 60.927 20.1467 60.9276 20.1461 60.9281V60.9315V60.9349C20.1467 60.9357 20.1478 60.936 20.1494 60.936C20.15 60.936 20.1508 60.9357 20.1517 60.9349C20.1522 60.9343 20.1528 60.9332 20.1528 60.9315C20.1528 60.9301 20.1522 60.929 20.1517 60.9281C20.1508 60.9276 20.15 60.927 20.1494 60.927ZM20.1494 60.9237C20.1517 60.9237 20.1534 60.9245 20.155 60.9259C20.1564 60.9276 20.1573 60.9293 20.1573 60.9315C20.1573 60.9337 20.1564 60.9357 20.155 60.9371C20.1534 60.9388 20.1517 60.9393 20.1494 60.9393C20.1464 60.9393 20.1441 60.9388 20.1427 60.9371C20.1411 60.9357 20.1405 60.9337 20.1405 60.9315C20.1405 60.9293 20.1411 60.9276 20.1427 60.9259C20.1441 60.9245 20.1464 60.9237 20.1494 60.9237Z" fill="white"/>
<path d="M20.1638 60.933V60.924H20.1683V60.9251V60.9296V60.9307V60.9341C20.1688 60.9349 20.1694 60.9352 20.1694 60.9352V60.9363H20.1716C20.1722 60.9363 20.1728 60.936 20.1728 60.9352C20.1733 60.9346 20.1739 60.9335 20.1739 60.9319V60.924H20.1795V60.9397H20.1739V60.9374C20.173 60.9383 20.1722 60.9391 20.1716 60.9397H20.1694C20.1672 60.9397 20.1655 60.9394 20.1649 60.9386C20.1641 60.9372 20.1638 60.9352 20.1638 60.933V60.933Z" fill="white"/>
<path d="M20.1952 60.9304V60.9393H20.1896V60.9326V60.9293V60.9281H20.1885V60.927C20.1868 60.927 20.1857 60.9276 20.1852 60.9281V60.9315V60.9393H20.1796V60.9237H20.1852V60.9259C20.1857 60.9254 20.1866 60.9248 20.1874 60.9248C20.188 60.9242 20.1888 60.9237 20.1896 60.9237C20.191 60.9237 20.1921 60.9245 20.193 60.9259C20.1944 60.9268 20.1952 60.9281 20.1952 60.9304V60.9304Z" fill="white"/>
<path d="M20.2069 60.9177H20.2159C20.2186 60.9177 20.2206 60.9185 20.2214 60.9199C20.2228 60.9216 20.2237 60.9233 20.2237 60.9255C20.2237 60.9272 20.2228 60.9286 20.2214 60.93C20.2206 60.9316 20.2186 60.9322 20.2159 60.9322H20.2125V60.9389H20.2069V60.9177ZM20.2125 60.9221V60.9277H20.2159H20.2181C20.2186 60.9272 20.2192 60.9263 20.2192 60.9255C20.2192 60.9241 20.2186 60.9233 20.2181 60.9233C20.2173 60.9227 20.2164 60.9221 20.2159 60.9221H20.2125Z" fill="white"/>
<path d="M20.2416 60.9285H20.2405C20.2405 60.9279 20.24 60.9274 20.2394 60.9274C20.2377 60.9274 20.2366 60.9282 20.2361 60.9296V60.933V60.9397H20.2305V60.924H20.2361V60.9274C20.2366 60.926 20.2375 60.9251 20.2383 60.9251C20.2389 60.9246 20.2397 60.924 20.2405 60.924H20.2416V60.9285Z" fill="white"/>
<path d="M20.2531 60.9274C20.2514 60.9274 20.2503 60.9279 20.2497 60.9285V60.9319V60.9352C20.2503 60.936 20.2514 60.9363 20.2531 60.9363C20.2536 60.9363 20.2545 60.936 20.2553 60.9352C20.2559 60.9346 20.2564 60.9335 20.2564 60.9319C20.2564 60.9305 20.2559 60.9293 20.2553 60.9285C20.2545 60.9279 20.2536 60.9274 20.2531 60.9274ZM20.2531 60.924C20.2553 60.924 20.257 60.9249 20.2587 60.9263C20.2601 60.9279 20.2609 60.9296 20.2609 60.9319C20.2609 60.9341 20.2601 60.936 20.2587 60.9374C20.257 60.9391 20.2553 60.9397 20.2531 60.9397C20.25 60.9397 20.2478 60.9391 20.2464 60.9374C20.2447 60.936 20.2441 60.9341 20.2441 60.9319C20.2441 60.9296 20.2447 60.9279 20.2464 60.9263C20.2478 60.9249 20.25 60.924 20.2531 60.924Z" fill="white"/>
<path d="M20.2612 60.9232H20.2668V60.9388C20.2668 60.9402 20.2659 60.9416 20.2645 60.9433C20.2637 60.9447 20.2623 60.9455 20.26 60.9455H20.2578V60.9411H20.2589H20.26C20.2606 60.9411 20.2612 60.9402 20.2612 60.9388V60.9232ZM20.2612 60.9176H20.2668V60.9209H20.2612V60.9176Z" fill="white"/>
<path d="M20.2884 60.9319V60.933H20.2772C20.2772 60.9346 20.2775 60.9358 20.2783 60.9363H20.2817H20.2839C20.2853 60.9358 20.2864 60.9352 20.2873 60.9352V60.9386C20.2864 60.9394 20.2853 60.9397 20.2839 60.9397H20.2806C20.2775 60.9397 20.2752 60.9391 20.2738 60.9374C20.2722 60.936 20.2716 60.9341 20.2716 60.9319C20.2716 60.9296 20.2722 60.9279 20.2738 60.9263C20.2752 60.9249 20.2775 60.924 20.2806 60.924C20.2828 60.924 20.2845 60.9249 20.2861 60.9263C20.2875 60.9279 20.2884 60.9296 20.2884 60.9319ZM20.2828 60.9307C20.2828 60.9293 20.2822 60.9285 20.2817 60.9285C20.2817 60.9279 20.2811 60.9274 20.2806 60.9274C20.2797 60.9274 20.2789 60.9279 20.2783 60.9285C20.2775 60.9285 20.2772 60.9293 20.2772 60.9307H20.2828Z" fill="white"/>
<path d="M20.3085 60.9251V60.9285H20.3062C20.3062 60.9279 20.3057 60.9274 20.3051 60.9274C20.3034 60.9274 20.3023 60.9279 20.3018 60.9285C20.3009 60.9293 20.3006 60.9305 20.3006 60.9319C20.3006 60.9335 20.3009 60.9346 20.3018 60.9352C20.3023 60.936 20.3034 60.9363 20.3051 60.9363H20.3073C20.3079 60.9358 20.3085 60.9352 20.3085 60.9352V60.9397H20.3062H20.304C20.3009 60.9397 20.2987 60.9391 20.2973 60.9374C20.2956 60.936 20.295 60.9341 20.295 60.9319C20.295 60.9296 20.2956 60.9279 20.2973 60.9263C20.2987 60.9249 20.3009 60.924 20.304 60.924H20.3062C20.3068 60.924 20.3076 60.9246 20.3085 60.9251Z" fill="white"/>
<path d="M20.3167 60.9194V60.9238H20.3211V60.9272H20.3167V60.9339V60.9361H20.3189H20.3211V60.9395H20.3178C20.3155 60.9395 20.3136 60.9392 20.3122 60.9384C20.3114 60.9378 20.3111 60.9361 20.3111 60.9339V60.9272H20.3088V60.9238H20.3111V60.9194H20.3167Z" fill="white"/>
<defs>
<linearGradient id="paint0_linear_70_3117" x1="0" y1="0.755371" x2="78.7565" y2="77.0256" gradientUnits="userSpaceOnUse">
<stop stop-color="#D13FBA"/>
<stop offset="1" stop-color="#0A55FF"/>
</linearGradient>
</defs>
</svg>
