<svg width="222" height="48" viewBox="0 0 222 48" fill="none" xmlns="http://www.w3.org/2000/svg">
<g clip-path="url(#clip0_1_275)">
<path d="M61.0098 20.1737H62.3161L64.8981 29.8115L67.3881 20.1737H68.3408L70.8772 29.8115L73.4285 20.1737H74.7205L71.5382 31.5478H70.2938L67.8652 22.3094L65.4371 31.5478H64.1615L61.0098 20.1737Z" fill="white"/>
<path d="M78.4062 25.8909C78.4062 22.3862 81.1273 19.9731 84.3396 19.9731C87.6753 19.9731 90.273 22.5245 90.273 25.8602C90.273 29.1959 87.6903 31.7472 84.3396 31.7472C80.9739 31.7472 78.4062 29.1489 78.4062 25.9072V25.8909ZM79.6826 25.8602C79.6826 28.5342 81.6963 30.6249 84.3553 30.6249C87.045 30.6249 89.0123 28.4579 89.0123 25.8602C89.0123 23.2625 87.045 21.0955 84.3396 21.0955C81.6656 21.0955 79.6826 23.2168 79.6826 25.8459V25.8602Z" fill="white"/>
<path d="M95.115 20.1737H96.39V30.4261H100.725V31.5478H95.115V20.1737Z" fill="white"/>
<path d="M104.997 20.1737H110.776V21.2954H106.257V25.2921H110.745V26.4301H106.257V31.5478H104.996V20.1737H104.997Z" fill="white"/>
<path d="M127.85 20.1737H129.188L132.954 29.9028L136.734 20.1737H138.072L133.553 31.5478H132.338L127.85 20.1737Z" fill="white"/>
<path d="M142.436 20.1737H148.738V21.2954H143.696V25.2457H148.708V26.3674H143.696V30.4254H148.738V31.5471H142.436V20.1737Z" fill="white"/>
<path d="M161.788 29.6726L161.772 20.1738H163.002V31.5479H161.772L155.026 21.9715L155.056 31.5479H153.826V20.1738H155.118L161.788 29.6726Z" fill="white"/>
<path d="M170.117 21.2955H167.318V20.1738H174.204V21.2955H171.392V31.5479H170.117V21.2955Z" fill="white"/>
<path d="M179.767 20.1735V27.3833C179.767 28.2433 179.767 28.9043 180.304 29.6723C180.705 30.242 181.457 30.6249 182.287 30.6249C183.102 30.6249 183.855 30.2563 184.24 29.6879C184.777 28.9349 184.777 28.2732 184.777 27.3826V20.1729H186.038V27.3826C186.052 28.7032 185.883 30.0096 184.747 30.8859C184.116 31.425 183.271 31.7473 182.287 31.7473C181.487 31.7473 180.489 31.517 179.782 30.8859C178.583 29.9183 178.49 28.6276 178.49 27.3826V20.1729H179.767V20.1735Z" fill="white"/>
<path d="M191.264 20.1737H194.231C196.014 20.1737 196.845 20.389 197.427 20.7577C198.35 21.3117 198.98 22.5254 198.98 23.8161C198.996 24.5854 198.779 25.3997 198.304 26.0451C197.627 26.9678 196.813 27.1817 195.767 27.2894L198.595 31.5471H197.213L194 26.5827H194.37C195.168 26.5827 196.274 26.5671 196.889 25.9987C197.489 25.4147 197.75 24.7224 197.75 23.9081C197.75 23.0631 197.335 22.171 196.627 21.7104C196.06 21.3417 195.352 21.2954 194.323 21.2954H192.539V31.5478H191.264V20.1737Z" fill="white"/>
<path d="M203.467 20.1737H209.769V21.2954H204.728V25.2457H209.739V26.3674H204.728V30.4254H209.769V31.5471H203.467V20.1737Z" fill="white"/>
<path d="M215.578 28.3811C215.762 30.2721 217.146 30.6714 217.852 30.6714C219.037 30.6714 220.128 29.7637 220.128 28.5044C220.128 26.9044 218.76 26.5521 217.439 26.1207C216.516 25.8454 214.533 25.2607 214.533 23.1087C214.504 21.095 216.177 19.9727 217.915 19.9727C219.328 19.9727 220.958 20.7563 221.144 22.909H219.882C219.743 22.1703 219.375 21.0487 217.868 21.0487C216.73 21.0487 215.793 21.818 215.793 23.001C215.779 24.3837 216.899 24.7217 218.621 25.3064C219.696 25.7214 221.388 26.3217 221.388 28.4117C221.388 30.2721 219.989 31.7474 217.868 31.7474C215.962 31.7474 214.378 30.5481 214.303 28.3818H215.578V28.3811Z" fill="white"/>
<path d="M115.139 29.8806C114.891 30.1293 114.816 30.5661 114.951 30.8919C115.086 31.2169 115.401 31.5297 115.755 31.5297H122.687C123.04 31.5297 123.355 31.2183 123.49 30.8932C123.625 30.5682 123.551 30.1 123.303 29.8513L119.837 26.3827C119.672 26.2178 119.453 26.1299 119.222 26.1299C118.989 26.1299 118.771 26.2294 118.607 26.395L115.139 29.8806Z" fill="white"/>
<path d="M24.9897 47.9383C38.2054 47.9383 48.9188 37.2249 48.9188 24.0092C48.9188 10.7935 38.2054 0.0800781 24.9897 0.0800781C11.774 0.0800781 1.06055 10.7935 1.06055 24.0092C1.06055 37.2249 11.774 47.9383 24.9897 47.9383Z" fill="white"/>
<path d="M36.5764 29.4172C36.5968 29.3279 36.6111 29.2359 36.6111 29.1419V11.863C36.6111 11.3642 36.3106 10.9138 35.8499 10.7223C35.3886 10.5322 34.8577 10.6371 34.5048 10.9901L26.2265 19.2684H26.2251L25.8633 19.6289C25.6221 19.8708 25.3065 19.9907 24.9904 19.9907C24.6748 19.9907 24.3586 19.8708 24.1181 19.6289L23.7562 19.2684H23.7549L15.4759 10.9901C15.1229 10.6371 14.5921 10.5322 14.1308 10.7223C13.6694 10.9138 13.3689 11.3635 13.3689 11.863V29.1412C13.3689 29.1548 13.3716 29.1678 13.3716 29.1814C13.3778 29.5515 13.5215 29.9119 13.7941 30.1852L23.9586 40.3497C24.2421 40.6332 24.6135 40.7743 24.9849 40.7743C25.3563 40.7743 25.7284 40.6332 26.0118 40.3497L36.1757 30.1852C36.3665 29.9951 36.4932 29.7579 36.5559 29.5078C36.5566 29.5037 36.558 29.4997 36.5593 29.4956C36.5648 29.469 36.5716 29.4438 36.5764 29.4172Z" fill="#0A55FF"/>
<path d="M33.0236 23.8897C32.8192 23.8897 32.6195 23.8072 32.4757 23.6634L29.7935 20.9826C29.4916 20.6821 29.4903 20.1921 29.7901 19.8923L32.4634 17.2115C32.6113 17.0636 32.7939 16.9852 32.9943 16.9852C33.0842 16.9852 33.1572 17.0009 33.2601 17.0438C33.5217 17.1529 33.6785 17.4193 33.6785 17.7573V23.1183C33.6785 23.4549 33.5224 23.7227 33.2601 23.8304C33.136 23.8829 33.0985 23.8897 33.0236 23.8897Z" fill="white"/>
<path d="M24.9999 31.8247C24.7927 31.8247 24.5978 31.7436 24.4513 31.5971L16.5438 23.6862C16.5328 23.6725 16.5226 23.6596 16.5117 23.6473C16.4899 23.6248 16.4749 23.6037 16.4599 23.5833C16.4449 23.5635 16.4293 23.5417 16.4156 23.5192C16.3972 23.4886 16.3816 23.4593 16.3679 23.4299L16.3536 23.3911C16.34 23.355 16.3305 23.3216 16.3223 23.2875L16.3148 23.2555C16.3052 23.2023 16.3005 23.1581 16.3005 23.1185V17.7576C16.3005 17.4448 16.4872 17.1654 16.7768 17.0441C16.8708 17.0052 16.9703 16.9855 17.0719 16.9855C17.2784 16.9855 17.4719 17.0666 17.6177 17.2117C17.6177 17.2117 28.1925 27.8485 28.2047 27.8607C28.2763 27.9289 28.3492 28.0257 28.3908 28.1258C28.433 28.2267 28.4494 28.303 28.4494 28.3936C28.4494 28.5947 28.3717 28.778 28.2231 28.9258L25.543 31.5999C25.3978 31.745 25.205 31.8247 24.9999 31.8247Z" fill="white"/>
</g>
<defs>
<clipPath id="clip0_1_275">
<rect width="220.488" height="48" fill="white" transform="translate(0.970703)"/>
</clipPath>
</defs>
</svg>
