<svg width="1440" height="1902" viewBox="0 0 1440 1902" fill="none" xmlns="http://www.w3.org/2000/svg">
<g opacity="0.1">
<path d="M1281.25 4.28292C1236.07 13.4556 1191.85 26.8885 1149.2 44.4017C1040.48 90.3755 961.244 165.943 926.136 257.189C903.915 314.802 899.439 378.359 895.122 439.812C893.043 469.259 890.88 499.713 886.813 529.263C871.24 642.491 819.028 725.052 747.172 750.039C720.426 759.367 690.551 761.28 661.714 763.138C614.599 766.141 570.06 769.03 539.19 801.738C511.369 831.242 503.563 877.414 495.911 921.89C486.067 979.295 476.775 1033.51 426.491 1048.27C398.764 1056.38 370.781 1046.03 343.561 1036.05C321.99 1028.12 299.709 1019.89 277.499 1020.79C201.399 1023.67 168.167 1120.18 162.809 1201.71L162.702 1203.4C158.285 1270.36 152.956 1351.26 108.896 1396.79L108.379 1391.48C149.415 1346.61 154.391 1268.15 158.677 1203.12L158.785 1201.42C164.299 1118.24 198.535 1019.9 277.015 1016.75C300.038 1015.82 322.652 1024.2 344.556 1032.28C372.255 1042.52 398.446 1052.18 424.936 1044.42C472.97 1030.34 481.97 977.333 491.667 921.214C499.348 876.099 507.335 829.456 535.981 799.099C567.924 765.287 613.187 762.374 661.067 759.295C689.679 757.46 719.239 755.577 745.512 746.523C815.78 722.008 867.201 640.66 882.546 528.816C886.581 499.406 888.766 469.176 890.836 439.639C895.173 377.912 899.708 314.031 922.096 255.812C957.607 163.573 1037.62 87.2023 1147.31 40.8621C1190.43 23.0996 1235.15 9.49524 1280.86 0.234325L1281.25 4.28292Z" fill="#7899C9"/>
<path d="M1311.02 309.763L1311.41 313.767C1304.81 314.002 1298.28 314.094 1291.92 314.123C1280.53 314.189 1268.73 314.204 1256.94 315.398C1214.56 319.167 1173.52 332.157 1136.68 353.46C1063.15 396.683 1005.25 452.552 969.212 515.599C965.603 521.899 962.182 528.272 959.023 534.529C938.476 575.767 926.925 617.989 915.783 658.81C909.384 682.139 902.757 706.399 894.613 729.534C889.207 744.892 882.778 759.87 875.37 774.369C846.867 830.414 807.231 867.291 760.581 881.602C738.528 888.293 714.18 890.076 690.781 891.812C652.318 894.608 616.024 897.283 588.714 919.926C564.293 940.062 552.825 971.015 541.53 1000.95C531.121 1028.8 521.292 1055.15 501.883 1072.66C493.319 1080.55 482.963 1086.23 471.71 1089.22C450.591 1094.78 429.381 1089.63 408.869 1084.63C388.356 1079.64 370.117 1075.15 351.438 1079.65C297.659 1092.57 289.882 1159.99 290.023 1199.17C290.732 1225.85 293.521 1252.43 298.364 1278.68C302.866 1303.41 304.496 1328.58 303.223 1353.68C298.733 1415.7 270.548 1468.49 223.864 1502.01C207.542 1513.12 190.237 1522.71 172.165 1530.66C157.828 1536.97 144.007 1544.4 130.825 1552.86C128.91 1554.18 127.045 1555.54 125.184 1556.95L124.745 1552.45C126.061 1551.51 127.332 1550.56 128.652 1549.66C142.032 1541.2 156.032 1533.77 170.531 1527.42C188.479 1519.56 205.674 1510.09 221.902 1499.11C267.747 1466.31 295.395 1414.52 299.698 1353.39C300.923 1328.6 299.309 1303.76 294.886 1279.34C289.998 1252.87 287.187 1226.06 286.479 1199.15C286.327 1158.93 294.533 1089.38 350.885 1075.85C370.451 1071.12 390.64 1076.06 410.133 1080.83C429.625 1085.61 450.925 1090.75 471.113 1085.42C481.771 1082.64 491.598 1077.32 499.754 1069.92C518.41 1053.07 528.103 1027.19 538.326 999.766C549.708 969.321 561.448 937.888 586.711 917.079C614.994 893.705 653.591 890.896 690.925 888.165C714.144 886.447 738.177 884.694 759.924 878.124C805.444 864.332 844.354 827.934 872.271 772.854C879.572 758.522 885.912 743.72 891.247 728.546C899.359 705.549 905.65 682.503 912.308 658.104C923.523 617.095 935.097 574.643 955.883 533.064C959.038 526.762 962.495 520.295 966.14 513.9C1002.55 450.409 1060.97 393.854 1135.06 350.348C1172.28 328.64 1213.79 315.326 1256.68 311.337C1268.65 310.17 1280.5 310.105 1291.98 310.075C1298.16 310.064 1304.55 309.94 1311.02 309.763Z" fill="#7899C9"/>
<path d="M1284.23 622.76C1295.31 624.963 1306.54 626.328 1317.82 626.842C1325.85 627.061 1333.88 626.278 1341.71 624.514L1342.1 628.562C1334.12 630.341 1325.95 631.137 1317.77 630.934C1306.3 630.4 1294.89 629.023 1283.63 626.815C1272.39 624.565 1260.99 623.201 1249.54 622.737C1200.32 621.858 1158.16 635.231 1124.14 662.206C1073.6 702.69 1032.04 756.149 1001.57 798.171L991.854 811.652L975.246 835.068C950.018 870.677 928.269 901.452 902.06 929.8C894.376 938.087 886.176 946.197 877.719 954.015C843.795 985.204 809.978 1004.44 773.925 1012.86C756.067 1016.54 737.974 1018.97 719.778 1020.14C690.018 1022.76 661.918 1025.19 638.024 1037.69C616.995 1048.82 601.979 1064.81 587.697 1080.42C573.416 1096.03 560.253 1110.07 541.614 1120.1C533.851 1124.38 525.52 1127.53 516.87 1129.46C503.171 1131.96 489.201 1132.62 475.328 1131.43C457.364 1130.68 440.402 1129.97 425.222 1137.76C380.242 1160.81 384.439 1227.16 401.737 1276.97C407.042 1292.25 413.838 1307.94 420.362 1323.15C424.82 1333.48 429.403 1344.16 433.617 1354.78C444.084 1379.03 449.578 1405.13 449.773 1431.54C449.045 1485.56 422.321 1534.71 365.531 1586.61C357.774 1593.68 349.896 1600.44 342.275 1607.04C320.435 1625.7 299.861 1643.37 286.18 1665.14C282.189 1671.54 278.728 1678.26 275.831 1685.22C269.724 1700.65 265.198 1716.65 262.324 1732.99C249.12 1797.85 243.569 1854.11 245.61 1901.6L241.741 1901.97C239.612 1854.05 245.151 1797.2 258.489 1732.32C261.498 1715.68 266.178 1699.39 272.457 1683.69C275.458 1676.54 279.005 1669.64 283.068 1663.04C297.106 1640.73 317.892 1622.9 339.939 1604.04C347.565 1597.49 355.402 1590.77 363.151 1583.62C418.998 1532.76 445.333 1484.28 446.018 1431.68C445.826 1405.8 440.43 1380.23 430.15 1356.48C425.99 1345.94 421.407 1335.26 416.953 1324.98C410.38 1309.73 403.575 1293.95 398.212 1278.54C380.396 1227.14 376.344 1158.56 423.617 1134.33C439.661 1126.09 457.126 1126.84 475.635 1127.58C489.22 1128.76 502.903 1128.13 516.321 1125.7C524.621 1123.85 532.614 1120.83 540.058 1116.71C557.954 1106.98 571.108 1092.84 584.992 1077.82C599.702 1061.95 614.948 1045.52 636.603 1034.28C661.145 1021.45 690.95 1018.81 719.77 1016.32C737.845 1015.16 755.817 1012.74 773.557 1009.08C808.809 1000.83 842.203 981.908 875.626 951.176C883.952 943.417 892.247 935.343 899.76 927.163C925.761 899.017 947.474 868.337 972.621 832.827C977.934 825.225 983.47 817.419 989.229 809.41L998.949 795.93C1029.57 753.665 1071.33 699.959 1122.3 659.162C1156.97 631.442 1200.01 617.801 1250.05 618.69C1261.53 619.162 1272.96 620.522 1284.23 622.76V622.76Z" fill="#7899C9"/>
<path d="M1278.36 935.168C1290 939.543 1302.09 942.628 1314.4 944.369C1333.67 946.351 1351.18 941.101 1362.4 929.927C1365.47 926.769 1368.18 923.276 1370.47 919.513L1371.08 925.766C1369.28 928.286 1367.28 930.653 1365.09 932.843C1353.09 944.776 1334.48 950.45 1314.02 948.357C1301.38 946.616 1288.97 943.501 1277.01 939.068C1265.68 934.837 1253.93 931.782 1241.97 929.95C1184.97 923.292 1141.04 937.11 1111.52 971.094C1098.86 986.576 1087.59 1003.14 1077.84 1020.61C1065.07 1041.97 1051.92 1064 1033.79 1081.16C994.481 1118.1 940.573 1126.9 879.358 1133.86L580.922 1167.9C548.133 1171.6 519.348 1176.31 498.993 1196.24C458.812 1235.44 478.211 1306.34 513.257 1355.6C520.1 1365.24 527.541 1374.96 534.772 1384.38C564.044 1422.4 594.333 1461.99 596.295 1510.07C598.764 1569.41 559.927 1612.61 518.798 1658.4C486.472 1694.34 452.996 1731.52 441.437 1777.38C434.441 1805.31 436.288 1834.96 438.074 1863.53C438.683 1869.79 438.721 1876.23 438.903 1882.75L435.034 1883.13C434.803 1876.57 434.536 1870.1 434.147 1863.78C432.375 1834.89 430.561 1805.1 437.657 1776.34C449.286 1729.8 483.105 1691.94 515.796 1655.56C556.357 1610.47 594.662 1567.86 592.45 1510.22C590.52 1463.41 560.665 1424.54 531.793 1386.9C524.513 1377.43 517.022 1367.67 510.175 1357.99C474.13 1307.33 454.466 1234.18 496.343 1193.27C519.312 1170.82 554.657 1166.79 580.483 1163.86L878.967 1129.86C939.508 1122.96 992.741 1114.23 1031.23 1078.14C1049.07 1061.37 1062.11 1039.53 1074.68 1018.46C1084.55 1000.77 1095.95 983.979 1108.75 968.276C1139.24 933.517 1184.24 919.094 1242.58 925.94C1254.79 927.778 1266.78 930.87 1278.36 935.168V935.168Z" fill="#7899C9"/>
<path d="M1384.44 1062.87C1369.21 1072.95 1356.19 1086.02 1346.18 1101.3C1345.19 1102.76 1344.24 1104.25 1343.3 1105.8C1339.09 1113.28 1333.59 1119.97 1327.06 1125.55C1322.25 1129.21 1316.75 1131.86 1310.89 1133.35C1303.18 1135.26 1295.19 1135.81 1287.29 1134.96C1278.1 1133.81 1269.02 1131.86 1260.16 1129.12C1250.95 1126.23 1241.48 1124.25 1231.88 1123.2C1188.66 1120.06 1155.52 1131.73 1133.01 1158.04C1122.97 1170.63 1114.1 1184.11 1106.51 1198.32C1098.22 1214.13 1088.14 1228.94 1076.49 1242.47C1048.31 1272.47 1009.54 1283.29 968.953 1292.28C961.307 1293.98 953.658 1295.64 945.914 1297.25C907.038 1305.58 866.114 1312.48 826.588 1319.28C801.353 1323.61 775.271 1328.1 750.03 1332.83C730.588 1336.5 706.377 1341.08 691.089 1358.01C658.282 1394.14 683.198 1453.15 695.322 1476.9C697.729 1481.57 700.277 1486.27 702.941 1490.77C705.606 1495.28 708.374 1499.92 711.092 1504.51C727.35 1531.54 744.018 1559.52 747.988 1587.2C749.425 1596.95 749.366 1606.86 747.811 1616.59C745.553 1629.85 740.953 1642.6 734.226 1654.25C722.7 1674.13 709.963 1693.28 696.086 1711.59C677.191 1737.64 657.704 1764.61 645.96 1792.73C640.163 1806.09 636.355 1820.23 634.657 1834.7C633.682 1844.4 633.541 1854.17 634.233 1863.89L630.32 1864.27C629.602 1854.26 629.761 1844.2 630.795 1834.21C632.595 1819.33 636.563 1804.79 642.573 1791.06C654.516 1762.65 674.156 1735.39 693.146 1708.93C706.938 1690.74 719.597 1671.71 731.052 1651.97C737.502 1640.77 741.949 1628.54 744.193 1615.81C745.659 1606.48 745.698 1596.99 744.308 1587.64C740.507 1560.77 723.977 1533.27 708.024 1506.58L699.801 1493.03C697.128 1488.44 694.351 1483.71 692.065 1478.89C679.552 1454.41 654.074 1393.36 688.429 1355.41C704.623 1337.53 729.5 1332.79 749.432 1329.03C774.718 1324.3 800.8 1319.8 826.031 1315.43C865.512 1308.63 906.422 1301.6 945.227 1293.46C952.925 1291.85 960.62 1290.19 968.22 1288.49C1008.22 1279.6 1046.36 1269.25 1073.78 1239.83C1085.21 1226.52 1095.1 1211.95 1103.24 1196.41C1110.91 1181.99 1119.9 1168.31 1130.09 1155.56C1153.32 1128.27 1187.68 1116.07 1232.14 1119.36C1242 1120.48 1251.73 1122.57 1261.18 1125.61C1269.83 1128.28 1278.69 1130.19 1287.67 1131.34C1295.11 1132.15 1302.64 1131.63 1309.91 1129.81C1315.28 1128.46 1320.32 1126.06 1324.75 1122.73C1330.85 1117.34 1335.99 1110.94 1339.93 1103.81L1342.8 1099.22C1353.52 1082.87 1367.56 1068.95 1384 1058.37L1384.44 1062.87Z" fill="#7899C9"/>
<path d="M1299.79 1307.35C1300.76 1306.62 1301.74 1305.89 1302.71 1305.21C1322.88 1290.84 1350.43 1284.57 1382.32 1287.09C1388.32 1287.6 1394.39 1288.41 1400.4 1289.51C1402.53 1289.89 1404.58 1290.42 1406.67 1290.85L1407.08 1295.08C1404.66 1294.54 1402.2 1293.96 1399.75 1293.52C1393.89 1292.47 1387.99 1291.73 1382.05 1291.3C1351.07 1288.87 1324.37 1294.88 1304.96 1308.71C1303.98 1309.4 1303.06 1310.12 1302.08 1310.85C1298.13 1314 1293.82 1316.68 1289.24 1318.83C1285.49 1320.34 1281.56 1321.36 1277.55 1321.87C1272.08 1322.54 1266.56 1322.61 1261.08 1322.07C1255.58 1321.56 1250.17 1320.59 1244.91 1319.65C1237.44 1318.05 1229.84 1317.14 1222.21 1316.96C1192.81 1317.24 1170.11 1326.58 1154.84 1345.55C1147.25 1355.62 1140.69 1366.44 1135.28 1377.84C1130.78 1386.96 1125.67 1395.77 1120 1404.21C1102.75 1427.51 1080.68 1440.51 1058.98 1450.89C1054.34 1453.12 1049.69 1455.25 1045.16 1457.24C1020.62 1467.11 995.505 1475.52 969.962 1482.41C953.139 1487.32 935.785 1492.37 919.54 1498.09C905.398 1503.01 891.942 1508.45 883.494 1520.09C863.995 1546.92 876.802 1586.99 888.204 1614.99L892.965 1626.56C903.6 1652.27 914.414 1681.69 907.943 1705.2C906.064 1711.86 903.156 1718.18 899.324 1723.94C894.752 1730.75 889.674 1737.21 884.134 1743.26L881.234 1746.59C856.722 1774.73 839.304 1808.33 830.436 1844.59L826.388 1844.98C835.205 1807.5 853.03 1772.73 878.318 1743.69L881.214 1740.32C886.61 1734.43 891.568 1728.15 896.047 1721.53C899.655 1716.11 902.399 1710.16 904.182 1703.89C910.322 1681.63 899.721 1653.01 889.35 1628.14L884.634 1616.56C872.752 1587.84 859.625 1546.34 880.41 1517.8C889.54 1505.24 903.563 1499.56 918.362 1494.39C934.656 1488.72 952.096 1483.61 968.919 1478.7C994.315 1471.85 1019.28 1463.49 1043.68 1453.66C1048.21 1451.73 1052.78 1449.65 1057.37 1447.42C1078.41 1437.28 1100.12 1424.77 1116.5 1401.83C1122.1 1393.53 1127.12 1384.86 1131.55 1375.89C1137.15 1364.23 1143.92 1353.18 1151.76 1342.9C1168 1323.15 1191.46 1313.19 1222.04 1312.93C1229.92 1313.12 1237.76 1314.02 1245.47 1315.65C1250.65 1316.59 1255.96 1317.57 1261.32 1318.05C1266.52 1318.56 1271.75 1318.5 1276.93 1317.85C1280.61 1317.4 1284.21 1316.47 1287.64 1315.08C1292 1313.01 1296.08 1310.42 1299.79 1307.35V1307.35Z" fill="#7899C9"/>
<path d="M1243.99 1505.88C1271.29 1511.03 1294.98 1528.15 1312.51 1542.11C1346.46 1569.5 1367.37 1595.8 1378.19 1624.3C1389.81 1654.96 1389.95 1698.36 1363.54 1726.09C1361.33 1728.48 1358.87 1730.77 1356.49 1732.95C1351.26 1737.29 1346.74 1742.43 1343.13 1748.2C1335 1762.61 1339.86 1781.21 1348.47 1794.08L1343.97 1794.52C1335.4 1780.65 1331.04 1761.59 1339.62 1746.18C1343.46 1740.04 1348.28 1734.57 1353.89 1729.98C1356.22 1727.85 1358.6 1725.66 1360.78 1723.36C1385.81 1696.9 1385.93 1655.29 1374.57 1625.84C1363.93 1597.77 1343.26 1572.08 1310.14 1545.29C1292.94 1531.44 1269.8 1514.85 1243.11 1509.87C1216.42 1504.88 1189.85 1513.65 1176.02 1532.48C1167.24 1544.42 1163.64 1559.66 1160.13 1574.45C1156.62 1589.23 1153.31 1604.22 1144.83 1616.44C1136.35 1628.67 1123.89 1637.33 1111.8 1645.64C1096.77 1655.91 1082.6 1665.65 1075.9 1681.74C1067.99 1700.68 1073.38 1722.41 1078.59 1743.33C1079.4 1746.52 1080.21 1749.62 1080.92 1752.78C1084.42 1767.65 1090 1803.48 1068.94 1821.33L1060.75 1822.13C1062.16 1821.39 1063.5 1820.55 1064.78 1819.6C1086.22 1803.89 1080.56 1768.12 1077.15 1753.69L1074.83 1744.33C1069.45 1722.7 1063.87 1700.35 1072.29 1680.1C1079.47 1662.91 1094.8 1652.43 1109.47 1642.23C1121.31 1634.13 1133.52 1625.77 1141.51 1614.09C1149.5 1602.41 1153.01 1587.63 1156.4 1573.45C1160.26 1558.13 1163.83 1542.57 1173.05 1530C1187.77 1510.04 1215.63 1500.47 1243.99 1505.88Z" fill="#7899C9"/>
</g>
</svg>
