<svg width="284" height="245" viewBox="0 0 284 245" fill="none" xmlns="http://www.w3.org/2000/svg">
<g opacity="0.1">
<path d="M116.354 139.372L116.709 139.02L116.702 139.012L116.694 139.005L116.354 139.372ZM39.4922 217.717L39.1325 218.065L39.1374 218.07L39.4922 217.717ZM47.9283 76.1302L48.3553 76.3904L48.3579 76.3861L47.9283 76.1302ZM115.417 11L115.795 10.6721L115.532 10.3701L115.18 10.5598L115.417 11ZM121.979 18.5513L122.271 18.9568L122.715 18.6366L122.356 18.2234L121.979 18.5513ZM78.8607 123.326L78.7679 123.817L78.7787 123.819L78.7895 123.821L78.8607 123.326ZM266.354 139.372L266.709 139.02L266.702 139.012L266.694 139.005L266.354 139.372ZM189.492 217.717L189.132 218.065L189.137 218.07L189.492 217.717ZM197.928 76.1302L198.355 76.3904L198.358 76.3861L197.928 76.1302ZM266.354 11L266.755 10.7013L266.5 10.3583L266.122 10.5576L266.354 11ZM271.979 18.5513L272.271 18.9568L272.683 18.6598L272.38 18.2527L271.979 18.5513ZM229.798 123.326L229.711 123.818L229.721 123.82L229.798 123.326ZM117.647 218.07C139.41 196.154 138.451 160.914 116.709 139.02L116 139.725C137.376 161.251 138.291 195.861 116.937 217.365L117.647 218.07ZM39.1374 218.07C60.8919 239.977 95.8922 239.977 117.647 218.07L116.937 217.365C95.5737 238.878 61.2104 238.878 39.847 217.365L39.1374 218.07ZM47.5014 75.87C34.8151 96.6888 24.4763 123.658 21.4204 149.697C18.3656 175.727 22.581 200.921 39.1325 218.065L39.8519 217.37C23.5963 200.533 19.3757 175.699 22.4136 149.814C25.4505 123.937 35.7332 97.1038 48.3553 76.3903L47.5014 75.87ZM115.18 10.5598C74.7631 32.3297 58.7707 56.9561 47.4988 75.8742L48.3579 76.3861C59.5823 57.5476 75.4595 33.0904 115.654 11.4402L115.18 10.5598ZM122.356 18.2234L115.795 10.6721L115.04 11.3279L121.601 18.8793L122.356 18.2234ZM78.9535 122.835C75.5085 122.184 72.4804 118.381 70.925 112.013C69.3806 105.691 69.3433 97.0121 71.7312 86.983C76.5044 66.9357 90.9566 41.5483 122.271 18.9568L121.686 18.1458C90.1984 40.8623 75.593 66.4463 70.7584 86.7514C68.3424 96.8985 68.3636 105.741 69.9535 112.25C71.5323 118.714 74.7142 123.052 78.7679 123.817L78.9535 122.835ZM116.694 139.005C105.339 128.524 92.1003 124.725 78.9319 122.831L78.7895 123.821C91.8667 125.702 104.874 129.455 116.015 139.74L116.694 139.005ZM267.647 218.07C289.41 196.154 288.451 160.914 266.709 139.02L266 139.725C287.376 161.251 288.292 195.861 266.937 217.365L267.647 218.07ZM189.137 218.07C210.892 239.977 245.892 239.977 267.647 218.07L266.937 217.365C245.574 238.878 211.21 238.878 189.847 217.365L189.137 218.07ZM197.501 75.87C184.815 96.6888 174.476 123.658 171.42 149.697C168.366 175.727 172.581 200.921 189.133 218.065L189.852 217.37C173.596 200.533 169.376 175.699 172.414 149.814C175.45 123.937 185.733 97.1038 198.355 76.3903L197.501 75.87ZM266.122 10.5576C224.766 32.327 208.772 56.9541 197.499 75.8742L198.358 76.3861C209.581 57.5496 225.457 33.0931 266.587 11.4424L266.122 10.5576ZM272.38 18.2527L266.755 10.7013L265.953 11.2987L271.578 18.85L272.38 18.2527ZM229.886 122.834C226.197 122.178 223.001 118.36 221.318 112.004C219.645 105.684 219.52 97.0083 221.849 86.9803C226.505 66.9354 240.956 41.5486 272.271 18.9568L271.686 18.1458C240.199 40.862 225.592 66.4466 220.875 86.7541C218.518 96.9023 218.627 105.748 220.351 112.26C222.066 118.735 225.432 123.058 229.711 123.818L229.886 122.834ZM266.694 139.005C255.341 128.525 242.105 124.727 229.875 122.832L229.721 123.82C241.862 125.701 254.872 129.453 266.015 139.74L266.694 139.005Z" fill="white"/>
<path d="M106.354 149.372L106.709 149.02L106.702 149.012L106.694 149.005L106.354 149.372ZM29.4922 227.717L29.1325 228.065L29.1374 228.07L29.4922 227.717ZM37.9283 86.1302L38.3553 86.3904L38.3579 86.3861L37.9283 86.1302ZM105.417 21L105.795 20.6721L105.532 20.3701L105.18 20.5598L105.417 21ZM111.979 28.5513L112.271 28.9568L112.715 28.6366L112.356 28.2234L111.979 28.5513ZM68.8607 133.326L68.7679 133.817L68.7787 133.819L68.7895 133.821L68.8607 133.326ZM256.354 149.372L256.709 149.02L256.702 149.012L256.694 149.005L256.354 149.372ZM179.492 227.717L179.132 228.065L179.137 228.07L179.492 227.717ZM187.928 86.1302L188.355 86.3904L188.358 86.3861L187.928 86.1302ZM256.354 21L256.755 20.7013L256.5 20.3583L256.122 20.5576L256.354 21ZM261.979 28.5513L262.271 28.9568L262.683 28.6598L262.38 28.2527L261.979 28.5513ZM219.798 133.326L219.711 133.818L219.721 133.82L219.798 133.326ZM107.647 228.07C129.41 206.154 128.451 170.914 106.709 149.02L106 149.725C127.376 171.251 128.291 205.861 106.937 227.365L107.647 228.07ZM29.1374 228.07C50.8919 249.977 85.8922 249.977 107.647 228.07L106.937 227.365C85.5737 248.878 51.2104 248.878 29.847 227.365L29.1374 228.07ZM37.5014 85.87C24.8151 106.689 14.4763 133.658 11.4204 159.697C8.36558 185.727 12.581 210.921 29.1325 228.065L29.8519 227.37C13.5963 210.533 9.3757 185.699 12.4136 159.814C15.4505 133.937 25.7332 107.104 38.3553 86.3903L37.5014 85.87ZM105.18 20.5598C64.7631 42.3297 48.7707 66.9561 37.4988 85.8742L38.3579 86.3861C49.5823 67.5476 65.4595 43.0904 105.654 21.4402L105.18 20.5598ZM112.356 28.2234L105.795 20.6721L105.04 21.3279L111.601 28.8793L112.356 28.2234ZM68.9535 132.835C65.5085 132.184 62.4804 128.381 60.925 122.013C59.3806 115.691 59.3433 107.012 61.7312 96.983C66.5044 76.9357 80.9566 51.5483 112.271 28.9568L111.686 28.1458C80.1984 50.8623 65.593 76.4463 60.7584 96.7514C58.3424 106.899 58.3636 115.741 59.9535 122.25C61.5323 128.714 64.7142 133.052 68.7679 133.817L68.9535 132.835ZM106.694 149.005C95.339 138.524 82.1003 134.725 68.9319 132.831L68.7895 133.821C81.8667 135.702 94.8738 139.455 106.015 149.74L106.694 149.005ZM257.647 228.07C279.41 206.154 278.451 170.914 256.709 149.02L256 149.725C277.376 171.251 278.292 205.861 256.937 227.365L257.647 228.07ZM179.137 228.07C200.892 249.977 235.892 249.977 257.647 228.07L256.937 227.365C235.574 248.878 201.21 248.878 179.847 227.365L179.137 228.07ZM187.501 85.87C174.815 106.689 164.476 133.658 161.42 159.697C158.366 185.727 162.581 210.921 179.133 228.065L179.852 227.37C163.596 210.533 159.376 185.699 162.414 159.814C165.45 133.937 175.733 107.104 188.355 86.3903L187.501 85.87ZM256.122 20.5576C214.766 42.327 198.772 66.9541 187.499 85.8742L188.358 86.3861C199.581 67.5496 215.457 43.0931 256.587 21.4424L256.122 20.5576ZM262.38 28.2527L256.755 20.7013L255.953 21.2987L261.578 28.85L262.38 28.2527ZM219.886 132.834C216.197 132.178 213.001 128.36 211.318 122.004C209.645 115.684 209.52 107.008 211.849 96.9803C216.505 76.9354 230.956 51.5486 262.271 28.9568L261.686 28.1458C230.199 50.862 215.592 76.4466 210.875 96.7541C208.518 106.902 208.627 115.748 210.351 122.26C212.066 128.735 215.432 133.058 219.711 133.818L219.886 132.834ZM256.694 149.005C245.341 138.525 232.105 134.727 219.875 132.832L219.721 133.82C231.862 135.701 244.872 139.453 256.015 149.74L256.694 149.005Z" fill="#E8E7E8"/>
<path opacity="0.5" d="M96.3545 129.372L96.7093 129.02L96.7016 129.012L96.6936 129.005L96.3545 129.372ZM19.4922 207.717L19.1325 208.065L19.1374 208.07L19.4922 207.717ZM27.9283 66.1302L28.3553 66.3904L28.3579 66.3861L27.9283 66.1302ZM95.4171 1L95.7946 0.672052L95.5322 0.370106L95.18 0.559796L95.4171 1ZM101.979 8.55132L102.271 8.95681L102.715 8.63656L102.356 8.22337L101.979 8.55132ZM58.8607 113.326L58.7679 113.817L58.7787 113.819L58.7895 113.821L58.8607 113.326ZM246.354 129.372L246.709 129.02L246.702 129.012L246.694 129.005L246.354 129.372ZM169.492 207.717L169.132 208.065L169.137 208.07L169.492 207.717ZM177.928 66.1302L178.355 66.3904L178.358 66.3861L177.928 66.1302ZM246.354 1L246.755 0.701342L246.5 0.358344L246.122 0.557555L246.354 1ZM251.979 8.55132L252.271 8.95681L252.683 8.6598L252.38 8.25266L251.979 8.55132ZM209.798 113.326L209.711 113.818L209.721 113.82L209.798 113.326ZM97.6466 208.07C119.41 186.154 118.451 150.914 96.7093 129.02L95.9997 129.725C117.376 151.251 118.291 185.861 96.937 207.365L97.6466 208.07ZM19.1374 208.07C40.8919 229.977 75.8922 229.977 97.6466 208.07L96.937 207.365C75.5737 228.878 41.2104 228.878 19.847 207.365L19.1374 208.07ZM27.5014 65.87C14.8151 86.6888 4.47631 113.658 1.42042 139.697C-1.63442 165.727 2.58104 190.921 19.1325 208.065L19.8519 207.37C3.59634 190.533 -0.624297 165.699 2.4136 139.814C5.45045 113.937 15.7332 87.1038 28.3553 66.3903L27.5014 65.87ZM95.18 0.559796C54.7631 22.3297 38.7707 46.9561 27.4988 65.8742L28.3579 66.3861C39.5823 47.5476 55.4595 23.0904 95.6543 1.4402L95.18 0.559796ZM102.356 8.22337L95.7946 0.672052L95.0397 1.32795L101.601 8.87927L102.356 8.22337ZM58.9535 112.835C55.5085 112.184 52.4804 108.381 50.925 102.013C49.3806 95.6906 49.3433 87.0121 51.7312 76.983C56.5044 56.9357 70.9566 31.5483 102.271 8.95681L101.686 8.14583C70.1984 30.8623 55.593 56.4463 50.7584 76.7514C48.3424 86.8985 48.3636 95.7414 49.9535 102.25C51.5323 108.714 54.7142 113.052 58.7679 113.817L58.9535 112.835ZM96.6936 129.005C85.339 118.524 72.1003 114.725 58.9319 112.831L58.7895 113.821C71.8667 115.702 84.8738 119.455 96.0154 129.74L96.6936 129.005ZM247.647 208.07C269.41 186.154 268.451 150.914 246.709 129.02L246 129.725C267.376 151.251 268.292 185.861 246.937 207.365L247.647 208.07ZM169.137 208.07C190.892 229.977 225.892 229.977 247.647 208.07L246.937 207.365C225.574 228.878 191.21 228.878 169.847 207.365L169.137 208.07ZM177.501 65.87C164.815 86.6888 154.476 113.658 151.42 139.697C148.366 165.727 152.581 190.921 169.133 208.065L169.852 207.37C153.596 190.533 149.376 165.699 152.414 139.814C155.45 113.937 165.733 87.1038 178.355 66.3903L177.501 65.87ZM246.122 0.557555C204.766 22.327 188.772 46.9541 177.499 65.8742L178.358 66.3861C189.581 47.5496 205.457 23.0931 246.587 1.44245L246.122 0.557555ZM252.38 8.25266L246.755 0.701342L245.953 1.29866L251.578 8.84998L252.38 8.25266ZM209.886 112.834C206.197 112.178 203.001 108.36 201.318 102.004C199.645 95.6841 199.52 87.0083 201.849 76.9803C206.505 56.9354 220.956 31.5486 252.271 8.95681L251.686 8.14583C220.199 30.862 205.592 56.4466 200.875 76.7541C198.518 86.9023 198.627 95.748 200.351 102.26C202.066 108.735 205.432 113.058 209.711 113.818L209.886 112.834ZM246.694 129.005C235.341 118.525 222.105 114.727 209.875 112.832L209.721 113.82C221.862 115.701 234.872 119.453 246.015 129.74L246.694 129.005Z" fill="#64626A"/>
</g>
</svg>
