<svg width="746" height="1664" viewBox="0 0 746 1664" fill="none" xmlns="http://www.w3.org/2000/svg">
<g opacity="0.7" filter="url(#filter0_f_122_23)">
<circle cx="63.3267" cy="980.424" r="282.654" fill="#D13FBA"/>
</g>
<g opacity="0.3">
<path d="M26.4176 431.008C6.22804 422.934 -14.1199 414.397 -34.0556 405.641C-39.8121 402.924 -45.3737 399.811 -50.7007 396.326L-54.2434 394.142L-55.2358 395.53C-54.0638 396.368 -52.7705 397.037 -51.5588 397.787C-46.1779 401.305 -40.5612 404.45 -34.7484 407.197C-14.8127 415.952 5.56171 424.485 25.7556 432.586C31.2861 434.793 40.6338 436.583 51.4447 438.673C76.4029 443.469 110.599 450.045 120.432 467.029C121.981 469.81 122.921 472.89 123.188 476.062C123.455 479.235 123.043 482.428 121.98 485.429C119.152 494.664 109.912 501.947 100.959 508.993C95.0943 513.609 89.5648 517.952 85.7651 522.81C68.3937 545.114 56.4975 566.02 49.4013 586.699C34.5712 629.7 41.4361 688.609 83.23 713.275C92.2717 718.622 102.692 722.204 112.757 725.696C130.647 731.869 147.543 737.705 157.611 752.502C168.507 768.521 167.332 789.752 165.027 811.946L138.991 1062.59L140.943 1059.86L166.693 811.995C169.029 789.497 170.242 767.92 159.002 751.469C148.643 736.231 130.707 730.024 113.364 724.032C103.376 720.595 93.0395 717.026 84.1211 711.768C43.061 687.511 36.4093 629.476 50.9856 587.157C58.0884 566.598 69.8611 545.93 87.0185 523.729C90.6706 519.046 96.1405 514.753 101.908 510.208C111.067 503.006 120.538 495.562 123.521 485.785C124.683 482.558 125.139 479.119 124.857 475.701C124.576 472.282 123.563 468.965 121.887 465.972C111.657 448.402 77.0693 441.754 51.8203 436.844C41.071 434.961 31.7695 433.204 26.4176 431.008Z" fill="#AEC6E4"/>
<path d="M-7.76484 482.499C-23.2063 476.748 -39.247 470.498 -56.8056 463.373C-61.5044 461.337 -66.0836 459.035 -70.5208 456.479C-77.4301 452.68 -84.5002 448.813 -91.9062 446.85L-93.009 448.392C-85.5301 450.221 -78.4667 454.13 -71.3812 458.008C-66.8884 460.597 -62.2502 462.925 -57.4896 464.981C-39.9156 472.118 -23.8595 478.378 -8.40261 484.141C-3.4758 485.986 4.36471 487.374 13.4547 489.003C39.0102 493.549 74.006 499.789 71.7401 521.569C71.049 528.369 66.0609 534.008 60.7576 539.958C59.5006 541.39 58.3098 542.729 57.1433 544.133C55.2754 546.325 53.5969 548.673 52.1259 551.149C43.9359 564.917 32.6929 583.866 25.7892 603.168C23.0274 610.809 21.0207 618.702 19.7979 626.735C14.7999 659.799 22.1696 689.027 39.4791 704.715C44.8358 709.293 50.6485 713.309 56.8258 716.699C67.445 723.034 77.4716 728.992 83.0167 741.021C89.2971 754.695 87.0244 772.508 84.3364 788.065C79.4308 817.186 73.985 855.244 74.5229 892.755C74.8466 902.574 75.6845 912.368 77.0332 922.099C77.9439 929.462 78.8831 937.079 79.3573 944.923C79.6296 952.227 79.4513 959.54 78.8235 966.822C78.4214 972.99 78.0081 979.337 78.1614 985.413C78.3711 990.869 78.9025 996.307 79.7528 1001.7C81.3229 1012.54 82.6685 1022.69 78.9333 1034.89C75.4361 1046.4 72.5709 1058.1 70.3508 1069.93C68.5586 1079.18 67.1652 1088.63 65.6459 1098.71L64.8562 1104.34C61.9303 1123.78 57.3212 1138.25 50.3113 1149.88C43.3014 1161.5 32.9997 1171.64 23.0028 1180.67L20.6525 1182.71C11.3898 1191.01 2.63202 1198.82 -3.28393 1208.85C-6.80157 1215.25 -9.67107 1221.98 -11.8497 1228.95C-14.7741 1237.28 -17.8089 1245.92 -23.3555 1253.51C-29.3326 1262 -37.9932 1268.22 -47.9398 1271.17L-46.2589 1272.38C-36.4488 1269.2 -27.9422 1262.91 -22.0294 1254.46C-16.2953 1246.61 -13.2318 1237.89 -10.2874 1229.44C-8.13428 1222.59 -5.31097 1215.96 -1.85844 1209.66C3.94062 1199.83 12.5683 1192.13 21.7383 1183.93L24.0688 1181.85C34.1628 1172.75 44.5217 1162.63 51.7059 1150.66C58.8901 1138.69 63.5279 1124.16 66.4759 1104.52L67.3141 1098.85C68.8158 1088.83 70.2312 1079.35 72.0057 1070.16C74.2417 1058.4 77.1096 1046.78 80.5969 1035.33C84.4338 1022.76 83.0111 1012.4 81.5293 1001.43C80.6917 996.102 80.1618 990.727 79.9422 985.335C79.7866 979.327 80.2042 973.007 80.6041 966.907C81.2378 959.548 81.4168 952.157 81.1402 944.776C80.7036 936.913 79.76 929.269 78.8603 921.89C77.526 912.225 76.7035 902.496 76.3962 892.743C75.8362 855.425 81.3503 817.37 86.1941 788.368C88.8602 772.515 91.1529 754.414 84.692 740.308C78.9355 727.825 68.1841 721.512 57.8558 715.292C51.7766 711.947 46.0524 707.995 40.7712 703.494C23.8208 688.087 16.7085 659.509 21.5895 626.967C22.7949 619.044 24.7788 611.258 27.5123 603.724C34.3918 584.521 45.5398 565.737 53.6968 552.016C55.1205 549.622 56.7436 547.352 58.5487 545.231C59.7594 543.766 60.9171 542.473 62.1299 541.103C67.6252 534.917 72.7984 529.084 73.6221 521.772C75.9704 498.444 40.1371 492.071 13.9757 487.394C6.61438 486.32 -0.653736 484.684 -7.76484 482.499Z" fill="#AEC6E4"/>
<path d="M-41.9621 534.001C-52.9221 530.359 -64.4924 526.397 -79.5748 521.089C-83.1797 519.839 -86.738 518.297 -90.3823 516.647C-98.918 512.874 -107.716 508.913 -117.192 509.128C-124.237 509.442 -131.128 511.292 -137.382 514.548C-139.182 515.393 -140.897 516.406 -142.506 517.574L-145.45 521.691C-144.509 521.059 -143.609 520.42 -142.736 519.786C-140.86 518.31 -138.836 517.031 -136.698 515.97C-130.686 512.837 -124.064 511.051 -117.292 510.735C-108.224 510.601 -99.5689 514.436 -91.1897 518.167C-87.6423 519.725 -83.8527 521.432 -80.1906 522.699C-65.1456 528.027 -53.5444 532.011 -42.547 535.633C-36.4329 537.301 -30.2104 538.542 -23.9243 539.348C-5.5789 542.212 17.2774 545.807 21.6765 557.972C23.5735 563.174 22.2929 567.735 20.2532 573.945L20.1209 574.13C19.5603 575.827 18.9489 577.627 18.3771 579.502C15.7599 587.255 12.7376 594.864 9.3228 602.3C6.88019 607.965 4.33172 613.81 2.14911 619.568C-0.0557757 625.247 -1.88104 631.066 -3.31454 636.986C-8.9601 660.917 -9.33026 681.838 -4.35697 695.905C-2.89116 699.882 -1.13644 703.746 0.89312 707.467C4.23736 713.937 7.38781 720.059 8.40331 729.362C9.50643 739.683 6.83324 752.222 3.78346 764.211C-5.77465 802.218 -8.602 835.505 -4.36981 863.353C-2.87187 873.024 0.654238 881.489 4.06369 889.66C6.9757 896.182 9.37214 902.922 11.231 909.818C12.8782 916.38 12.696 923.544 12.5425 930.473C12.2229 936.336 12.4582 942.217 13.2451 948.036C14.3552 953.237 16.173 958.262 18.6477 962.97C22.8238 971.829 26.7841 980.208 20.5167 992.134C15.0952 1002.26 10.6665 1012.88 7.29251 1023.86C4.18851 1034.54 2.19466 1045.51 1.34262 1056.59C-0.132039 1073.97 -2.11412 1088.22 -6.96058 1101.25C-11.4904 1113.5 -18.6416 1124.62 -27.9141 1133.82C-32.4233 1138.33 -37.3577 1142.49 -42.1289 1146.49C-46.5429 1150.19 -51.1201 1154.05 -55.0715 1158.07C-66.8968 1169.75 -74.8747 1182.51 -82.6656 1195.65C-84.7214 1199.14 -86.5545 1202.43 -88.3258 1205.59C-93.8362 1215.44 -98.3141 1223.34 -105.833 1229.78L-104.475 1230.75C-96.8335 1224.07 -92.2783 1215.91 -86.9863 1206.29C-85.2259 1203.14 -83.4193 1199.87 -81.326 1196.35C-73.5528 1183.27 -65.6851 1170.67 -54.012 1159.13C-50.021 1155.18 -45.6775 1151.55 -41.1466 1147.66C-36.6157 1143.77 -31.3661 1139.46 -26.8128 1134.88C-17.3569 1125.51 -10.0562 1114.19 -5.41814 1101.7C-0.518717 1088.5 1.53842 1074.05 2.98887 1056.6C3.82345 1045.64 5.79597 1034.78 8.87467 1024.22C12.2284 1013.36 16.6253 1002.84 22.0039 992.824C28.7102 980.187 24.565 971.349 20.1688 962.146C17.7568 957.569 15.9806 952.684 14.8894 947.627C14.1248 941.917 13.9035 936.148 14.2285 930.397C14.7007 923.336 14.2399 916.244 12.8577 909.303C10.9762 902.324 8.55262 895.502 5.60898 888.901C2.22812 880.82 -1.21425 872.368 -2.72114 862.97C-6.9094 835.387 -4.15045 802.26 5.43618 764.507C8.53896 752.346 11.2387 739.64 10.1181 729.05C9.06526 719.441 5.68143 712.896 2.41644 706.576C0.426751 702.917 -1.29836 699.121 -2.74562 695.216C-7.54068 681.649 -7.13727 660.519 -1.65518 637.241C-0.225147 631.426 1.5807 625.711 3.751 620.131C5.92697 614.415 8.4644 608.585 10.9114 602.947C14.3441 595.452 17.379 587.781 20.0033 579.966C20.6126 578.071 21.1798 576.332 21.7515 574.62L21.8728 574.45C24.091 568.089 25.405 562.992 23.301 557.363C18.6357 544.331 -4.76922 540.623 -23.5488 537.682C-29.7652 536.888 -35.9182 535.658 -41.9621 534.001Z" fill="#AEC6E4"/>
<path d="M-76.1616 585.477C-91.4292 581.536 -106.678 577.623 -121.909 573.74C-132.804 570.984 -143.685 568.221 -154.555 565.452C-160.949 563.65 -167.488 562.412 -174.099 561.754L-175.257 563.373C-168.421 563.984 -161.659 565.245 -155.063 567.139C-144.176 569.906 -133.294 572.668 -122.417 575.428C-107.151 579.305 -91.9017 583.218 -76.6694 587.165C-70.5715 588.419 -64.3827 589.181 -58.1628 589.445C-41.4055 590.683 -22.4444 592.099 -16.4938 604.115C-11.4523 614.339 -19.6976 632.519 -24.6355 643.368L-26.3829 647.246C-32.967 662.255 -41.7855 676.738 -50.3041 690.737C-60.0005 706.644 -70.0035 723.077 -76.8048 740.378C-89.4343 772.576 -91.8367 806.703 -83.3728 834.011C-80.5677 843.125 -74.6807 850.341 -69.0006 857.293C-64.2808 862.628 -60.227 868.516 -56.9284 874.829C-54.1767 880.759 -53.9445 887.637 -53.787 894.229C-53.9169 899.826 -53.1953 905.411 -51.647 910.791C-49.8118 916.113 -45.8867 920.271 -42.0894 924.315C-35.0961 931.646 -29.1315 938.102 -37.8933 949.573C-51.7849 967.794 -61.624 982.759 -62.0939 1008.97L-62.1866 1017.57C-62.407 1042.75 -62.6079 1068.78 -78.7717 1087.15C-86.439 1095.88 -97.1197 1101.85 -107.421 1107.66C-121.179 1115.39 -135.414 1123.37 -142.044 1137.85C-145.698 1145.8 -146.619 1154.98 -147.525 1163.84C-148.666 1175.21 -149.767 1186.01 -156.226 1193.83L-154.9 1194.78C-148.167 1186.47 -146.993 1175.05 -145.877 1163.94C-144.997 1155.25 -144.08 1146.21 -140.55 1138.5C-134.103 1124.47 -120.792 1117.07 -106.66 1109.13C-96.2191 1103.27 -85.4149 1097.22 -77.5513 1088.27C-60.9554 1069.4 -60.7432 1043.03 -60.5337 1017.54L-60.4367 1008.97C-59.9934 983.249 -50.2228 968.608 -36.5958 950.594C-26.9386 937.969 -34.009 930.419 -40.8679 923.161C-44.5485 919.247 -48.3568 915.219 -50.0709 910.217C-51.5554 905.008 -52.2246 899.6 -52.0548 894.185C-52.2276 887.42 -52.398 880.422 -55.3589 874.133C-58.7128 867.669 -62.8495 861.643 -67.6755 856.19C-73.2432 849.342 -79.0092 842.282 -81.7241 833.465C-90.0735 806.519 -87.6999 772.79 -75.1985 740.967C-68.4546 723.811 -58.4847 707.425 -48.8324 691.58C-40.2808 677.535 -31.4291 663.005 -24.7987 647.866L-23.0578 644.03C-17.6765 632.169 -9.53491 614.265 -14.9374 603.34C-21.2711 590.491 -40.7412 589.037 -57.9129 587.759C-64.0475 587.494 -70.1506 586.731 -76.1616 585.477Z" fill="#AEC6E4"/>
<path d="M-180.039 650.267C-186.26 648.732 -193.032 647.316 -200.755 645.895C-208.964 644.337 -218.36 642.908 -227.236 644.695C-228.852 645.001 -230.444 645.42 -232.001 645.949C-233.103 646.349 -234.153 646.741 -235.286 647.282L-237.271 650.058C-235.408 649.098 -233.488 648.252 -231.522 647.527C-230.024 646.999 -228.491 646.576 -226.935 646.262C-218.335 644.534 -209.097 645.989 -201.091 647.472C-193.383 648.882 -186.638 650.303 -180.459 651.831L-179.216 652.114C-164.28 655.802 -148.805 659.55 -137.814 667.386C-130.885 672.392 -124.358 677.932 -118.292 683.956C-113.878 688.115 -109.191 693.424 -107.884 701.211C-107.034 706.247 -107.996 712.644 -110.626 719.713C-112.469 724.571 -114.614 729.494 -116.705 734.244C-118.537 738.435 -120.236 742.44 -121.606 745.889C-124.266 752.867 -126.837 759.722 -128.925 766.619C-130.674 772.453 -131.25 778.576 -130.62 784.634L-130.505 787.21C-130.468 789.682 -130.673 792.15 -131.115 794.582C-131.261 795.503 -131.385 796.393 -131.5 797.337C-131.588 799.104 -131.427 800.875 -131.02 802.597C-130.481 805.267 -130.198 807.982 -130.176 810.706C-130.15 816.83 -130.526 823.646 -130.936 830.835C-131.863 847.582 -132.938 866.554 -129.249 883.688C-128.154 888.384 -126.451 892.916 -124.183 897.17C-123.304 898.94 -122.366 900.659 -121.444 902.368C-118.718 906.998 -116.543 911.932 -114.966 917.069C-113.701 921.819 -114.296 927.149 -114.885 932.275C-115.55 936.351 -115.701 940.494 -115.337 944.608C-114.588 948.336 -113.09 951.873 -110.933 955.005C-107.451 960.827 -104.432 965.83 -111.472 974.337C-123.137 988.369 -132.232 1000.7 -134.647 1020.44C-135.123 1024.36 -135.553 1028.48 -135.951 1032.46C-136.8 1041.18 -137.772 1050.29 -139.472 1058.96C-140.864 1067.69 -143.972 1076.06 -148.617 1083.58C-153.412 1090.87 -159.991 1096.42 -166.279 1101.76C-174.947 1109.06 -183.896 1116.62 -188.092 1128.58C-189.177 1131.75 -189.954 1135.02 -190.411 1138.34C-190.893 1141.5 -191.221 1144.76 -191.54 1147.91C-191.907 1154.12 -192.959 1160.27 -194.677 1166.25L-193.304 1167.23C-191.425 1161.01 -190.284 1154.59 -189.905 1148.1C-189.581 1144.97 -189.264 1141.73 -188.8 1138.63C-188.359 1135.41 -187.612 1132.24 -186.569 1129.16C-182.545 1117.63 -174.165 1110.57 -165.297 1103.09C-158.848 1097.66 -152.198 1092.04 -147.337 1084.5C-142.986 1077.89 -139.997 1069.87 -137.929 1059.25C-136.212 1050.52 -135.293 1041.42 -134.393 1032.6C-133.917 1028.67 -133.56 1024.52 -133.085 1020.6C-130.716 1001.32 -121.771 989.23 -110.302 975.407C-102.491 965.983 -106.102 959.951 -109.594 954.144C-111.631 951.187 -113.058 947.853 -113.792 944.337C-114.136 940.369 -113.987 936.373 -113.349 932.441C-112.734 927.148 -112.092 921.687 -113.451 916.613C-115.068 911.349 -117.295 906.292 -120.086 901.544C-121.004 899.862 -121.926 898.154 -122.789 896.395C-125.002 892.266 -126.656 887.861 -127.71 883.297C-131.349 866.385 -130.294 847.538 -129.327 830.867C-128.849 823.68 -128.57 816.772 -128.558 810.627C-128.616 807.789 -128.935 804.963 -129.512 802.184C-129.891 800.622 -130.044 799.013 -129.966 797.408C-129.862 796.48 -129.734 795.616 -129.583 794.722C-129.143 792.185 -128.943 789.613 -128.984 787.039C-128.995 786.239 -129.045 785.364 -129.108 784.41C-129.695 778.539 -129.129 772.61 -127.442 766.957C-125.314 760.135 -122.78 753.3 -120.148 746.326C-118.846 742.875 -117.169 738.901 -115.302 734.758C-113.199 729.992 -111.043 725.055 -109.183 720.139C-106.438 712.78 -105.456 706.094 -106.354 700.767C-107.745 692.477 -112.645 686.945 -117.243 682.586C-123.345 676.595 -129.894 671.078 -136.835 666.082C-148.061 658.054 -163.693 654.264 -178.792 650.576L-180.039 650.267Z" fill="#AEC6E4"/>
</g>
<g filter="url(#filter1_f_122_23)">
<circle cx="82.1544" cy="595.762" r="194.944" fill="#0A55FF"/>
</g>
<defs>
<filter id="filter0_f_122_23" x="-619.327" y="297.77" width="1365.31" height="1365.31" filterUnits="userSpaceOnUse" color-interpolation-filters="sRGB">
<feFlood flood-opacity="0" result="BackgroundImageFix"/>
<feBlend mode="normal" in="SourceGraphic" in2="BackgroundImageFix" result="shape"/>
<feGaussianBlur stdDeviation="200" result="effect1_foregroundBlur_122_23"/>
</filter>
<filter id="filter1_f_122_23" x="-512.79" y="0.817871" width="1189.89" height="1189.89" filterUnits="userSpaceOnUse" color-interpolation-filters="sRGB">
<feFlood flood-opacity="0" result="BackgroundImageFix"/>
<feBlend mode="normal" in="SourceGraphic" in2="BackgroundImageFix" result="shape"/>
<feGaussianBlur stdDeviation="200" result="effect1_foregroundBlur_122_23"/>
</filter>
</defs>
</svg>
