<svg width="712" height="1618" viewBox="0 0 712 1618" fill="none" xmlns="http://www.w3.org/2000/svg">
<g opacity="0.3">
<path d="M739.644 338.384C727.978 340.753 716.562 344.221 705.549 348.743C677.476 360.613 657.019 380.125 647.954 403.684C642.216 418.56 641.061 434.97 639.946 450.837C639.409 458.441 638.851 466.304 637.8 473.934C633.78 503.169 620.298 524.486 601.745 530.938C594.84 533.346 587.126 533.84 579.68 534.32C567.515 535.095 556.015 535.841 548.045 544.286C540.861 551.904 538.846 563.826 536.87 575.31C534.328 590.131 531.929 604.13 518.946 607.94C511.787 610.034 504.561 607.361 497.533 604.787C491.964 602.738 486.211 600.614 480.476 600.845C460.827 601.588 452.247 626.507 450.863 647.56L450.836 647.996C449.695 665.284 448.319 686.172 436.943 697.927L436.809 696.557C447.405 684.971 448.69 664.714 449.797 647.922L449.824 647.485C451.248 626.007 460.088 600.616 480.351 599.802C486.296 599.562 492.135 601.725 497.79 603.812C504.942 606.456 511.705 608.951 518.544 606.948C530.947 603.312 533.271 589.625 535.774 575.135C537.757 563.486 539.82 551.443 547.216 543.605C555.464 534.875 567.151 534.123 579.513 533.328C586.901 532.854 594.533 532.368 601.317 530.03C619.46 523.7 632.737 502.696 636.699 473.818C637.741 466.224 638.305 458.419 638.839 450.793C639.959 434.855 641.13 418.361 646.911 403.329C656.079 379.513 676.74 359.794 705.062 347.829C716.195 343.243 727.741 339.73 739.542 337.339L739.644 338.384Z" fill="#7899C9"/>
<path d="M747.331 417.259L747.432 418.293C745.726 418.353 744.04 418.377 742.399 418.385C739.458 418.402 736.41 418.406 733.368 418.714C722.425 419.687 711.827 423.041 702.317 428.541C683.332 439.702 668.381 454.127 659.076 470.406C658.144 472.032 657.261 473.678 656.445 475.293C651.14 485.941 648.157 496.843 645.28 507.383C643.628 513.406 641.917 519.67 639.814 525.644C638.419 529.609 636.759 533.476 634.846 537.22C627.486 551.691 617.252 561.212 605.207 564.907C599.513 566.635 593.227 567.095 587.185 567.543C577.254 568.265 567.883 568.956 560.832 574.802C554.526 580.002 551.565 587.994 548.649 595.723C545.961 602.915 543.423 609.716 538.412 614.238C536.201 616.275 533.527 617.743 530.621 618.515C525.168 619.95 519.692 618.619 514.396 617.33C509.099 616.04 504.39 614.882 499.567 616.043C485.682 619.379 483.673 636.787 483.71 646.902C483.893 653.791 484.613 660.656 485.864 667.433C487.026 673.818 487.447 680.316 487.118 686.798C485.959 702.81 478.681 716.44 466.628 725.096C462.413 727.964 457.945 730.441 453.279 732.494C449.577 734.124 446.008 736.04 442.605 738.225C442.111 738.566 441.629 738.918 441.149 739.281L441.035 738.12C441.375 737.876 441.703 737.633 442.044 737.4C445.499 735.216 449.113 733.296 452.857 731.656C457.491 729.628 461.931 727.182 466.121 724.348C477.958 715.878 485.097 702.507 486.208 686.722C486.524 680.323 486.107 673.908 484.966 667.603C483.703 660.768 482.978 653.845 482.795 646.897C482.756 636.513 484.874 618.554 499.424 615.061C504.476 613.841 509.689 615.115 514.722 616.348C519.755 617.581 525.255 618.909 530.467 617.534C533.219 616.815 535.756 615.442 537.862 613.53C542.679 609.179 545.182 602.498 547.821 595.417C550.76 587.556 553.791 579.44 560.314 574.067C567.617 568.032 577.583 567.307 587.222 566.602C593.218 566.158 599.423 565.706 605.038 564.009C616.791 560.448 626.838 551.05 634.046 536.829C635.931 533.128 637.568 529.306 638.945 525.388C641.04 519.451 642.664 513.5 644.383 507.2C647.279 496.612 650.267 485.651 655.634 474.915C656.449 473.288 657.341 471.618 658.283 469.967C667.683 453.574 682.768 438.971 701.898 427.738C711.507 422.133 722.225 418.695 733.301 417.665C736.39 417.364 739.449 417.347 742.415 417.34C744.009 417.337 745.659 417.305 747.331 417.259Z" fill="#7899C9"/>
<path d="M740.413 498.075C743.274 498.643 746.174 498.996 749.087 499.128C751.16 499.185 753.232 498.983 755.255 498.527L755.356 499.573C753.295 500.032 751.185 500.238 749.073 500.185C746.112 500.047 743.166 499.692 740.258 499.122C737.355 498.541 734.412 498.188 731.455 498.068C718.746 497.842 707.862 501.295 699.079 508.26C686.028 518.712 675.297 532.515 667.432 543.366L664.922 546.846L660.634 552.892C654.12 562.087 648.504 570.032 641.737 577.352C639.753 579.492 637.636 581.586 635.452 583.604C626.693 591.657 617.962 596.624 608.653 598.798C604.042 599.748 599.37 600.376 594.672 600.676C586.988 601.355 579.733 601.98 573.563 605.208C568.134 608.082 564.257 612.212 560.569 616.242C556.882 620.271 553.483 623.897 548.67 626.488C546.666 627.593 544.515 628.406 542.281 628.905C538.745 629.55 535.137 629.72 531.556 629.411C526.917 629.219 522.538 629.036 518.618 631.048C507.004 636.999 508.088 654.129 512.554 666.99C513.924 670.937 515.679 674.986 517.363 678.914C518.514 681.581 519.698 684.338 520.786 687.081C523.488 693.342 524.907 700.081 524.957 706.9C524.769 720.848 517.869 733.539 503.206 746.939C501.203 748.764 499.169 750.51 497.201 752.215C491.562 757.032 486.25 761.595 482.718 767.216C481.687 768.868 480.794 770.602 480.046 772.401C478.469 776.384 477.3 780.516 476.558 784.735C473.149 801.483 471.716 816.009 472.242 828.269L471.244 828.366C470.694 815.991 472.124 801.313 475.568 784.562C476.345 780.266 477.553 776.059 479.174 772.005C479.949 770.16 480.865 768.377 481.914 766.673C485.539 760.914 490.906 756.311 496.598 751.441C498.567 749.748 500.591 748.015 502.591 746.167C517.011 733.036 523.811 720.519 523.988 706.936C523.938 700.255 522.545 693.652 519.891 687.52C518.816 684.799 517.633 682.042 516.483 679.387C514.786 675.449 513.029 671.376 511.644 667.395C507.044 654.125 505.998 636.417 518.204 630.162C522.346 628.035 526.856 628.228 531.635 628.419C535.142 628.724 538.675 628.561 542.14 627.934C544.283 627.456 546.347 626.675 548.269 625.613C552.889 623.099 556.286 619.45 559.871 615.571C563.669 611.472 567.605 607.231 573.196 604.329C579.533 601.015 587.229 600.335 594.67 599.692C599.337 599.391 603.978 598.766 608.558 597.822C617.66 595.692 626.282 590.806 634.912 582.871C637.062 580.868 639.204 578.783 641.143 576.671C647.857 569.404 653.463 561.482 659.956 552.313C661.328 550.351 662.757 548.335 664.244 546.267L666.754 542.787C674.66 531.874 685.443 518.007 698.604 507.473C707.556 500.316 718.668 496.794 731.588 497.024C734.552 497.145 737.503 497.497 740.413 498.075Z" fill="#7899C9"/>
<path d="M738.897 578.738C741.903 579.867 745.024 580.664 748.203 581.114C753.178 581.625 757.7 580.27 760.597 577.385C761.39 576.569 762.088 575.667 762.68 574.696L762.837 576.31C762.373 576.961 761.856 577.572 761.292 578.138C758.192 581.219 753.386 582.684 748.104 582.143C744.842 581.694 741.638 580.889 738.549 579.745C735.622 578.652 732.591 577.864 729.503 577.391C714.784 575.671 703.442 579.239 695.821 588.014C692.552 592.011 689.642 596.289 687.124 600.798C683.827 606.313 680.431 612.003 675.751 616.434C665.6 625.971 651.681 628.242 635.875 630.041L558.82 638.83C550.354 639.785 542.921 641.002 537.666 646.145C527.291 656.267 532.3 674.574 541.349 687.293C543.115 689.782 545.037 692.292 546.904 694.724C554.462 704.54 562.282 714.764 562.789 727.178C563.427 742.499 553.399 753.654 542.779 765.476C534.433 774.755 525.789 784.356 522.805 796.196C520.998 803.408 521.475 811.064 521.936 818.441C522.094 820.056 522.104 821.72 522.15 823.404L521.152 823.501C521.092 821.807 521.023 820.137 520.922 818.505C520.465 811.046 519.997 803.353 521.829 795.928C524.831 783.91 533.563 774.137 542.004 764.743C552.477 753.099 562.367 742.098 561.796 727.216C561.298 715.13 553.589 705.094 546.135 695.374C544.255 692.931 542.321 690.411 540.553 687.91C531.246 674.829 526.169 655.943 536.981 645.38C542.912 639.584 552.038 638.542 558.706 637.786L635.775 629.007C651.406 627.225 665.151 624.971 675.088 615.654C679.696 611.324 683.063 605.684 686.308 600.244C688.857 595.677 691.8 591.341 695.105 587.286C702.977 578.312 714.597 574.588 729.66 576.355C732.812 576.83 735.908 577.628 738.897 578.738Z" fill="#7899C9"/>
<path d="M766.287 611.711C762.355 614.313 758.994 617.689 756.409 621.632C756.152 622.009 755.909 622.396 755.666 622.795C754.579 624.727 753.159 626.453 751.473 627.894C750.231 628.84 748.81 629.525 747.296 629.907C745.306 630.402 743.244 630.544 741.205 630.325C738.83 630.028 736.485 629.523 734.198 628.815C731.82 628.069 729.375 627.558 726.897 627.288C715.738 626.476 707.18 629.491 701.37 636.284C698.775 639.533 696.485 643.014 694.527 646.682C692.385 650.765 689.784 654.591 686.775 658.084C679.498 665.829 669.488 668.622 659.009 670.945C657.035 671.383 655.06 671.81 653.061 672.228C643.023 674.379 632.456 676.16 622.251 677.917C615.735 679.032 609.001 680.193 602.484 681.415C597.464 682.361 591.213 683.545 587.265 687.916C578.794 697.243 585.228 712.48 588.358 718.611C588.98 719.817 589.637 721.031 590.325 722.195C591.013 723.359 591.728 724.556 592.43 725.742C596.628 732.72 600.931 739.945 601.956 747.091C602.327 749.609 602.312 752.168 601.911 754.681C601.328 758.104 600.14 761.396 598.403 764.403C595.427 769.536 592.138 774.481 588.555 779.21C583.677 785.935 578.645 792.898 575.613 800.158C574.116 803.609 573.133 807.26 572.694 810.995C572.443 813.5 572.406 816.022 572.585 818.533L571.574 818.632C571.389 816.046 571.43 813.449 571.697 810.87C572.162 807.027 573.187 803.274 574.738 799.728C577.822 792.392 582.893 785.355 587.796 778.522C591.357 773.825 594.626 768.913 597.583 763.815C599.249 760.924 600.397 757.765 600.976 754.479C601.355 752.071 601.365 749.618 601.006 747.207C600.025 740.268 595.757 733.168 591.638 726.276L589.515 722.778C588.824 721.591 588.107 720.371 587.517 719.127C584.286 712.806 577.708 697.044 586.578 687.245C590.76 682.628 597.183 681.404 602.329 680.433C608.858 679.21 615.592 678.05 622.107 676.922C632.301 675.166 642.864 673.351 652.883 671.249C654.871 670.832 656.858 670.404 658.82 669.967C669.149 667.67 678.995 664.998 686.075 657.402C689.027 653.965 691.579 650.204 693.682 646.19C695.662 642.467 697.983 638.936 700.615 635.642C706.612 628.597 715.485 625.445 726.965 626.296C729.511 626.585 732.022 627.126 734.462 627.91C736.695 628.599 738.983 629.094 741.301 629.389C743.223 629.598 745.168 629.464 747.043 628.994C748.429 628.647 749.732 628.025 750.875 627.166C752.452 625.775 753.778 624.123 754.795 622.282L755.536 621.096C758.304 616.874 761.928 613.281 766.174 610.55L766.287 611.711Z" fill="#7899C9"/>
<path d="M744.43 674.836C744.682 674.647 744.933 674.458 745.185 674.281C750.393 670.573 757.505 668.953 765.741 669.604C767.289 669.735 768.858 669.945 770.409 670.228C770.958 670.327 771.488 670.463 772.026 670.575L772.132 671.666C771.509 671.528 770.873 671.379 770.241 671.265C768.728 670.993 767.203 670.801 765.671 670.69C757.672 670.063 750.776 671.614 745.766 675.186C745.514 675.363 745.274 675.551 745.023 675.74C744.001 676.553 742.888 677.244 741.706 677.798C740.737 678.188 739.723 678.452 738.687 678.585C737.276 678.758 735.851 678.775 734.436 678.636C733.016 678.505 731.62 678.254 730.26 678.011C728.332 677.597 726.37 677.364 724.4 677.316C716.809 677.388 710.947 679.8 707.004 684.698C705.044 687.3 703.352 690.093 701.954 693.035C700.791 695.389 699.474 697.664 698.01 699.844C693.555 705.86 687.856 709.218 682.254 711.898C681.056 712.472 679.855 713.023 678.685 713.535C672.348 716.085 665.865 718.256 659.269 720.036C654.926 721.304 650.445 722.608 646.251 724.084C642.599 725.354 639.125 726.76 636.944 729.763C631.909 736.691 635.216 747.038 638.16 754.267L639.389 757.254C642.135 763.893 644.927 771.488 643.256 777.56C642.771 779.279 642.02 780.911 641.031 782.397C639.85 784.156 638.539 785.824 637.109 787.387L636.36 788.246C630.031 795.512 625.534 804.189 623.244 813.549L622.199 813.651C624.475 803.973 629.078 794.996 635.607 787.498L636.355 786.628C637.748 785.106 639.028 783.485 640.185 781.776C641.116 780.375 641.825 778.839 642.285 777.221C643.871 771.474 641.133 764.084 638.456 757.662L637.238 754.674C634.17 747.258 630.781 736.543 636.147 729.173C638.504 725.929 642.125 724.463 645.946 723.129C650.154 721.663 654.656 720.345 659 719.077C665.557 717.309 672.003 715.149 678.302 712.611C679.473 712.114 680.652 711.577 681.839 711C687.27 708.384 692.876 705.152 697.106 699.229C698.55 697.086 699.848 694.848 700.991 692.531C702.437 689.522 704.186 686.668 706.211 684.014C710.403 678.915 716.461 676.343 724.357 676.277C726.39 676.324 728.415 676.558 730.405 676.977C731.742 677.222 733.115 677.475 734.499 677.598C735.839 677.731 737.191 677.713 738.527 677.545C739.477 677.431 740.408 677.19 741.295 676.83C742.418 676.297 743.472 675.627 744.43 674.836Z" fill="#7899C9"/>
<path d="M730.023 726.094C737.071 727.424 743.188 731.846 747.714 735.45C756.482 742.521 761.881 749.311 764.673 756.672C767.673 764.587 767.71 775.792 760.892 782.953C760.319 783.571 759.685 784.161 759.072 784.725C757.719 785.845 756.554 787.173 755.621 788.661C753.522 792.383 754.776 797.185 756.999 800.509L755.838 800.623C753.624 797.039 752.499 792.119 754.714 788.139C755.707 786.555 756.952 785.142 758.399 783.958C759.002 783.407 759.615 782.843 760.179 782.248C766.641 775.416 766.673 764.673 763.739 757.068C760.992 749.82 755.656 743.188 747.102 736.271C742.662 732.694 736.686 728.411 729.796 727.125C722.905 725.838 716.044 728.102 712.472 732.964C710.205 736.046 709.276 739.982 708.37 743.799C707.464 747.616 706.61 751.486 704.42 754.643C702.23 757.799 699.013 760.036 695.892 762.181C692.012 764.834 688.353 767.348 686.624 771.503C684.579 776.392 685.971 782.002 687.318 787.405C687.527 788.228 687.734 789.029 687.919 789.843C688.821 793.683 690.262 802.935 684.826 807.545L682.712 807.751C683.074 807.56 683.421 807.342 683.75 807.099C689.288 803.041 687.825 793.804 686.946 790.079L686.347 787.664C684.958 782.077 683.516 776.308 685.691 771.078C687.545 766.641 691.502 763.934 695.291 761.301C698.346 759.21 701.501 757.05 703.564 754.035C705.626 751.019 706.532 747.203 707.407 743.541C708.405 739.586 709.326 735.569 711.707 732.323C715.507 727.169 722.7 724.697 730.023 726.094Z" fill="#7899C9"/>
</g>
<g filter="url(#filter0_f_122_25)">
<circle cx="755.519" cy="917.64" r="299.767" fill="#0A55FF"/>
</g>
<g opacity="0.7" filter="url(#filter1_f_122_25)">
<circle cx="711.896" cy="712.31" r="311.716" fill="#D13FBA"/>
</g>
<defs>
<filter id="filter0_f_122_25" x="55.752" y="217.873" width="1399.53" height="1399.53" filterUnits="userSpaceOnUse" color-interpolation-filters="sRGB">
<feFlood flood-opacity="0" result="BackgroundImageFix"/>
<feBlend mode="normal" in="SourceGraphic" in2="BackgroundImageFix" result="shape"/>
<feGaussianBlur stdDeviation="200" result="effect1_foregroundBlur_122_25"/>
</filter>
<filter id="filter1_f_122_25" x="0.179688" y="0.593262" width="1423.43" height="1423.43" filterUnits="userSpaceOnUse" color-interpolation-filters="sRGB">
<feFlood flood-opacity="0" result="BackgroundImageFix"/>
<feBlend mode="normal" in="SourceGraphic" in2="BackgroundImageFix" result="shape"/>
<feGaussianBlur stdDeviation="200" result="effect1_foregroundBlur_122_25"/>
</filter>
</defs>
</svg>
