<svg width="41" height="41" viewBox="0 0 41 41" fill="none" xmlns="http://www.w3.org/2000/svg">
<g clip-path="url(#clip0_1_47)">
<path fill-rule="evenodd" clip-rule="evenodd" d="M40.9707 20.918C40.9707 31.963 32.0157 40.918 20.9707 40.918C9.9257 40.918 0.970703 31.963 0.970703 20.918C0.970703 9.87297 9.9257 0.917969 20.9707 0.917969C32.0157 0.917969 40.9707 9.87297 40.9707 20.918ZM21.6874 15.683C19.7424 16.4913 15.854 18.1663 10.024 20.7063C9.07737 21.083 8.5807 21.4513 8.5357 21.8113C8.45904 22.4213 9.22237 22.6613 10.259 22.9863C10.4007 23.0313 10.5474 23.0763 10.6974 23.1263C11.719 23.458 13.0924 23.8463 13.8057 23.8613C14.454 23.8746 15.1774 23.608 15.9757 23.0613C21.4224 19.383 24.234 17.5246 24.4107 17.4846C24.5357 17.4563 24.709 17.4196 24.8257 17.5246C24.9424 17.628 24.9307 17.8246 24.919 17.878C24.8424 18.1996 21.8524 20.9813 20.3024 22.4213C19.819 22.8696 19.4774 23.188 19.4074 23.2613C19.2507 23.423 19.0907 23.578 18.9374 23.7263C17.9874 24.6396 17.2774 25.3263 18.9774 26.4463C19.794 26.9846 20.4474 27.4296 21.099 27.873C21.8107 28.358 22.5207 28.8413 23.4407 29.4446C23.674 29.598 23.8974 29.7563 24.1157 29.9113C24.944 30.503 25.689 31.033 26.609 30.9496C27.1424 30.8996 27.6957 30.398 27.9757 28.8996C28.6374 25.3563 29.9407 17.683 30.2424 14.5196C30.2607 14.257 30.2495 13.9931 30.209 13.733C30.1848 13.5229 30.0825 13.3295 29.9224 13.1913C29.684 12.9963 29.314 12.9546 29.1474 12.958C28.3957 12.9713 27.2424 13.373 21.6874 15.683Z" fill="white"/>
</g>
<defs>
<clipPath id="clip0_1_47">
<rect width="40" height="40" fill="white" transform="translate(0.970703 0.917969)"/>
</clipPath>
</defs>
</svg>
