<svg width="41" height="41" viewBox="0 0 41 41" fill="none" xmlns="http://www.w3.org/2000/svg">
<g clip-path="url(#clip0_1_45)">
<path d="M40.3765 9.14627C38.9849 9.76293 37.4899 10.1796 35.9182 10.3679C37.5399 9.39759 38.7531 7.87038 39.3315 6.07127C37.8079 6.97625 36.1404 7.61326 34.4015 7.9546C33.2322 6.70604 31.6833 5.87848 29.9954 5.60039C28.3075 5.3223 26.575 5.60925 25.0669 6.41669C23.5588 7.22412 22.3595 8.50687 21.6551 10.0658C20.9508 11.6247 20.7808 13.3725 21.1715 15.0379C18.0843 14.8829 15.0642 14.0805 12.3072 12.6828C9.55024 11.285 7.11794 9.3232 5.1682 6.9246C4.50154 8.0746 4.1182 9.40793 4.1182 10.8279C4.11746 12.1063 4.43226 13.365 5.03467 14.4925C5.63708 15.62 6.50847 16.5813 7.57154 17.2913C6.33866 17.252 5.13299 16.9189 4.05487 16.3196V16.4196C4.05475 18.2125 4.67492 19.9502 5.81017 21.3379C6.94543 22.7256 8.52582 23.6778 10.2832 24.0329C9.13951 24.3425 7.94043 24.3881 6.77654 24.1663C7.27237 25.709 8.2382 27.058 9.53882 28.0245C10.8394 28.991 12.4097 29.5266 14.0299 29.5563C11.2796 31.7153 7.88302 32.8864 4.38654 32.8813C3.76717 32.8814 3.14833 32.8453 2.5332 32.7729C6.08233 35.0549 10.2138 36.266 14.4332 36.2613C28.7165 36.2613 36.5249 24.4313 36.5249 14.1713C36.5249 13.8379 36.5165 13.5013 36.5015 13.1679C38.0204 12.0696 39.3314 10.7094 40.3732 9.15127L40.3765 9.14627Z" fill="white"/>
</g>
<defs>
<clipPath id="clip0_1_45">
<rect width="40" height="40" fill="white" transform="translate(0.970703 0.917969)"/>
</clipPath>
</defs>
</svg>
